SplineFontDB: 3.0
FontName: Lexington-Oblique
FullName: Lexington Oblique
FamilyName: Lexington
Weight: Book
Copyright: Copyright csyde 2015
Version: 1.0
FONDName: Lexington
ItalicAngle: 0
UnderlinePosition: 127
UnderlineWidth: 51
Ascent: 819
Descent: 205
InvalidEm: 0
sfntRevision: 0x00010000
LayerCount: 2
Layer: 0 1 "Back" 1
Layer: 1 1 "Fore" 0
XUID: [1021 273 464692840 2949266]
FSType: 4
OS2Version: 2
OS2_WeightWidthSlopeOnly: 0
OS2_UseTypoMetrics: 1
CreationTime: 1428114007
ModificationTime: 1428691791
PfmFamily: 81
TTFWeight: 400
TTFWidth: 5
LineGap: 0
VLineGap: 0
Panose: 0 0 4 0 0 0 0 0 0 0
OS2TypoAscent: 512
OS2TypoAOffset: 0
OS2TypoDescent: -128
OS2TypoDOffset: 0
OS2TypoLinegap: 0
OS2WinAscent: 672
OS2WinAOffset: 0
OS2WinDescent: 128
OS2WinDOffset: 0
HheadAscent: 672
HheadAOffset: 0
HheadDescent: -128
HheadDOffset: 0
OS2SubXSize: 512
OS2SubYSize: 512
OS2SubXOff: 0
OS2SubYOff: -64
OS2SupXSize: 512
OS2SupYSize: 512
OS2SupXOff: 0
OS2SupYOff: 512
OS2StrikeYSize: 51
OS2StrikeYPos: 204
OS2CapHeight: 0
OS2XHeight: 0
OS2Vendor: 'FSTR'
OS2CodePages: 000001fb.00000000
OS2UnicodeRanges: a0000007.4000000a.00000000.00000000
MacStyle: 2
MarkAttachClasses: 1
DEI: 91125
ShortTable: maxp 16
  1
  0
  215
  60
  5
  0
  0
  2
  0
  0
  0
  0
  0
  0
  0
  0
EndShort
LangName: 1033 "" "" "Regular" "" "" "Version 1.0" "" "FontStruct is a trademark of FSI FontShop International GmbH" "http://fontstruct.com" "csyde" "+IBoAxAD6-Lexington Gothic+IBoAxAD5 was built with FontStruct+AAoA" "http://www.fontshop.com" "http://fontstruct.com/fontstructions/show/1134409" "Creative Commons Attribution Share Alike" "http://creativecommons.org/licenses/by-sa/3.0/" "" "" "" "" "Five big quacking zephyrs jolt my wax bed"
Encoding: UnicodeBmp
UnicodeInterp: none
NameList: AGL For New Fonts
DisplaySize: -48
AntiAlias: 1
FitToEm: 1
WinInfo: 80 16 4
BeginPrivate: 0
EndPrivate
BeginChars: 65539 215

StartChar: .notdef
Encoding: 65536 -1 0
Width: 76
Flags: W
LayerCount: 2
Back
Fore
SplineSet
272.622070312 72 m 1,0,-1
 291.553710938 154 l 1,1,-1
 209.553710938 154 l 1,2,-1
 190.622070312 72 l 1,3,-1
 272.622070312 72 l 1,0,-1
375.5546875 167 m 1,4,-1
 394.486328125 249 l 1,5,-1
 231.486328125 249 l 1,6,-1
 212.5546875 167 l 1,7,-1
 375.5546875 167 l 1,4,-1
316.487304688 262 m 1,8,-1
 335.418945312 344 l 1,9,-1
 253.418945312 344 l 1,10,-1
 234.487304688 262 l 1,11,-1
 316.487304688 262 l 1,8,-1
419.419921875 357 m 1,12,-1
 438.120117188 438 l 1,13,-1
 357.120117188 438 l 2,14,15
 323.120117188 438 323.120117188 438 293.810546875 415 c 0,16,17
 264.26953125 391 264.26953125 391 256.419921875 357 c 1,18,-1
 419.419921875 357 l 1,12,-1
0 0 m 1,19,-1
 118.204101562 512 l 1,20,-1
 630.204101562 512 l 1,21,-1
 512 0 l 1,22,-1
 0 0 l 1,19,-1
EndSplineSet
Validated: 1
EndChar

StartChar: exclam
Encoding: 33 33 4
Width: 140
Flags: W
LayerCount: 2
Back
Fore
SplineSet
16 0 m 2,0,1
 9 0 9 0 4.923828125 4 c 0,2,3
 2.078125 9 2.078125 9 3.6943359375 16 c 2,4,-1
 10.8505859375 47 l 2,5,6
 12.466796875 54 12.466796875 54 17.62109375 59 c 0,7,8
 23.775390625 64 23.775390625 64 30.775390625 64 c 2,9,-1
 62.775390625 64 l 2,10,11
 68.775390625 64 68.775390625 64 72.62109375 59 c 256,12,13
 76.466796875 54 76.466796875 54 75.08203125 48 c 2,14,-1
 67.6943359375 16 l 2,15,16
 66.078125 9 66.078125 9 59.923828125 4 c 0,17,18
 54 0 54 0 48 0 c 2,19,-1
 16 0 l 2,0,1
22.1630859375 96 m 1,20,-1
 118.204101562 512 l 1,21,-1
 182.204101562 512 l 1,22,-1
 86.1630859375 96 l 1,23,-1
 22.1630859375 96 l 1,20,-1
EndSplineSet
Validated: 1
EndChar

StartChar: quotedbl
Encoding: 34 34 5
Width: 236
Flags: W
LayerCount: 2
Back
Fore
SplineSet
104.653320312 384 m 1,0,-1
 112.041015625 416 l 1,1,-1
 103.428710938 448 l 1,2,-1
 114.510742188 496 l 2,3,4
 115.895507812 502 115.895507812 502 121.049804688 507 c 0,5,6
 127.204101562 512 127.204101562 512 134.204101562 512 c 2,7,-1
 166.204101562 512 l 2,8,9
 172.204101562 512 172.204101562 512 176.049804688 507 c 256,10,11
 179.895507812 502 179.895507812 502 178.279296875 495 c 2,12,-1
 167.428710938 448 l 1,13,-1
 144.041015625 416 l 1,14,-1
 136.653320312 384 l 1,15,-1
 104.653320312 384 l 1,0,-1
200.653320312 384 m 1,16,-1
 208.041015625 416 l 1,17,-1
 199.428710938 448 l 1,18,-1
 210.510742188 496 l 2,19,20
 211.895507812 502 211.895507812 502 217.049804688 507 c 0,21,22
 223.204101562 512 223.204101562 512 230.204101562 512 c 2,23,-1
 262.204101562 512 l 2,24,25
 268.204101562 512 268.204101562 512 272.049804688 507 c 256,26,27
 275.895507812 502 275.895507812 502 274.279296875 495 c 2,28,-1
 263.428710938 448 l 1,29,-1
 240.041015625 416 l 1,30,-1
 232.653320312 384 l 1,31,-1
 200.653320312 384 l 1,16,-1
EndSplineSet
Validated: 1
EndChar

StartChar: numbersign
Encoding: 35 35 6
Width: 460
Flags: W
LayerCount: 2
Back
Fore
SplineSet
278.163085938 96 m 1,0,-1
 329.877929688 320 l 1,1,-1
 201.877929688 320 l 1,2,-1
 150.163085938 96 l 1,3,-1
 278.163085938 96 l 1,0,-1
64 0 m 1,4,-1
 78.775390625 64 l 1,5,-1
 14.775390625 64 l 1,6,-1
 22.1630859375 96 l 1,7,-1
 86.1630859375 96 l 1,8,-1
 137.877929688 320 l 1,9,-1
 73.8779296875 320 l 1,10,-1
 81.265625 352 l 1,11,-1
 145.265625 352 l 1,12,-1
 160.041015625 416 l 1,13,-1
 224.041015625 416 l 1,14,-1
 209.265625 352 l 1,15,-1
 337.265625 352 l 1,16,-1
 352.041015625 416 l 1,17,-1
 416.041015625 416 l 1,18,-1
 401.265625 352 l 1,19,-1
 465.265625 352 l 1,20,-1
 457.877929688 320 l 1,21,-1
 393.877929688 320 l 1,22,-1
 342.163085938 96 l 1,23,-1
 406.163085938 96 l 1,24,-1
 398.775390625 64 l 1,25,-1
 334.775390625 64 l 1,26,-1
 320 0 l 1,27,-1
 256 0 l 1,28,-1
 270.775390625 64 l 1,29,-1
 142.775390625 64 l 1,30,-1
 128 0 l 1,31,-1
 64 0 l 1,4,-1
EndSplineSet
Validated: 1
EndChar

StartChar: dollar
Encoding: 36 36 7
Width: 396
Flags: W
CounterMasks: 1 0e
LayerCount: 2
Back
Fore
SplineSet
238.775390625 64 m 1,0,-1
 278.163085938 96 l 1,1,-1
 285.55078125 128 l 1,2,-1
 236.327148438 192 l 1,3,-1
 206.775390625 64 l 1,4,-1
 238.775390625 64 l 1,0,-1
205.571289062 336 m 1,5,-1
 231.428710938 448 l 1,6,-1
 199.428710938 448 l 1,7,-1
 160.041015625 416 l 1,8,-1
 156.34765625 400 l 1,9,-1
 205.571289062 336 l 1,10,-1
 205.571289062 336 l 1,5,-1
128 0 m 1,11,-1
 135.387695312 32 l 1,12,-1
 71.3876953125 32 l 1,13,-1
 22.1630859375 96 l 1,14,-1
 29.55078125 128 l 1,15,-1
 93.55078125 128 l 1,16,-1
 86.1630859375 96 l 1,17,-1
 110.775390625 64 l 1,18,-1
 142.775390625 64 l 1,19,-1
 187.102539062 256 l 1,20,-1
 88.6533203125 384 l 1,21,-1
 96.041015625 416 l 1,22,-1
 174.81640625 480 l 1,23,-1
 238.81640625 480 l 1,24,-1
 246.204101562 512 l 1,25,-1
 310.204101562 512 l 1,26,-1
 302.81640625 480 l 1,27,-1
 366.81640625 480 l 1,28,-1
 416.041015625 416 l 1,29,-1
 408.653320312 384 l 1,30,-1
 344.653320312 384 l 1,31,-1
 352.041015625 416 l 1,32,-1
 327.428710938 448 l 1,33,-1
 295.428710938 448 l 1,34,-1
 254.795898438 272 l 1,35,-1
 353.245117188 144 l 1,36,-1
 342.163085938 96 l 1,37,-1
 263.387695312 32 l 1,38,-1
 199.387695312 32 l 1,39,-1
 192 0 l 1,40,-1
 128 0 l 1,11,-1
EndSplineSet
Validated: 5
EndChar

StartChar: percent
Encoding: 37 37 8
Width: 396
Flags: W
LayerCount: 2
Back
Fore
SplineSet
263.387695312 32 m 1,0,-1
 302.775390625 64 l 1,1,-1
 310.163085938 96 l 1,2,-1
 285.55078125 128 l 1,3,-1
 253.55078125 128 l 1,4,-1
 214.163085938 96 l 1,5,-1
 206.775390625 64 l 1,6,-1
 231.387695312 32 l 1,7,-1
 263.387695312 32 l 1,0,-1
192 0 m 1,8,-1
 167.387695312 32 l 1,9,-1
 189.55078125 128 l 1,10,-1
 228.938476562 160 l 1,11,-1
 324.938476562 160 l 1,12,-1
 349.55078125 128 l 1,13,-1
 327.387695312 32 l 1,14,-1
 288 0 l 1,15,-1
 192 0 l 1,8,-1
184.653320312 384 m 1,16,-1
 224.041015625 416 l 1,17,-1
 231.428710938 448 l 1,18,-1
 206.81640625 480 l 1,19,-1
 174.81640625 480 l 1,20,-1
 135.428710938 448 l 1,21,-1
 128.041015625 416 l 1,22,-1
 152.653320312 384 l 1,23,-1
 184.653320312 384 l 1,16,-1
113.265625 352 m 1,24,-1
 88.6533203125 384 l 1,25,-1
 110.81640625 480 l 1,26,-1
 150.204101562 512 l 1,27,-1
 246.204101562 512 l 1,28,-1
 270.81640625 480 l 1,29,-1
 248.653320312 384 l 1,30,-1
 209.265625 352 l 1,31,-1
 113.265625 352 l 1,24,-1
0 0 m 1,32,-1
 374.204101562 512 l 1,33,-1
 438.204101562 512 l 1,34,-1
 64 0 l 1,35,-1
 0 0 l 1,32,-1
EndSplineSet
Validated: 1
EndChar

StartChar: ampersand
Encoding: 38 38 9
Width: 332
Flags: W
LayerCount: 2
Back
Fore
SplineSet
64 0 m 1,0,-1
 14.775390625 64 l 1,1,-1
 51.71484375 224 l 1,2,-1
 91.1025390625 256 l 1,3,-1
 91.1025390625 256 l 1,4,-1
 110.795898438 272 l 1,5,-1
 73.8779296875 320 l 1,6,-1
 88.6533203125 384 l 1,7,-1
 167.428710938 448 l 1,8,-1
 327.428710938 448 l 1,9,-1
 320.041015625 416 l 1,10,-1
 192.041015625 416 l 1,11,-1
 152.653320312 384 l 1,12,-1
 137.877929688 320 l 1,13,-1
 162.490234375 288 l 1,14,-1
 226.490234375 288 l 1,15,-1
 241.265625 352 l 1,16,-1
 305.265625 352 l 1,17,-1
 290.490234375 288 l 1,18,-1
 322.490234375 288 l 1,19,-1
 315.102539062 256 l 1,20,-1
 283.102539062 256 l 1,21,-1
 238.775390625 64 l 1,22,-1
 263.387695312 32 l 1,23,-1
 256 0 l 1,24,-1
 224 0 l 1,25,-1
 174.775390625 64 l 1,26,-1
 219.102539062 256 l 1,27,-1
 155.102539062 256 l 1,28,-1
 115.71484375 224 l 1,29,-1
 78.775390625 64 l 1,30,-1
 103.387695312 32 l 1,31,-1
 167.387695312 32 l 1,32,-1
 160 0 l 1,33,-1
 64 0 l 1,0,-1
EndSplineSet
Validated: 5
EndChar

StartChar: quotesingle
Encoding: 39 39 10
Width: 140
Flags: W
LayerCount: 2
Back
Fore
SplineSet
104.653320312 384 m 1,0,-1
 112.041015625 416 l 1,1,-1
 103.428710938 448 l 1,2,-1
 114.510742188 496 l 2,3,4
 115.895507812 502 115.895507812 502 121.049804688 507 c 0,5,6
 127.204101562 512 127.204101562 512 134.204101562 512 c 2,7,-1
 166.204101562 512 l 2,8,9
 172.204101562 512 172.204101562 512 176.049804688 507 c 256,10,11
 179.895507812 502 179.895507812 502 178.279296875 495 c 2,12,-1
 167.428710938 448 l 1,13,-1
 144.041015625 416 l 1,14,-1
 136.653320312 384 l 1,15,-1
 104.653320312 384 l 1,0,-1
EndSplineSet
Validated: 1
EndChar

StartChar: parenleft
Encoding: 40 40 11
Width: 204
Flags: W
LayerCount: 2
Back
Fore
SplineSet
56.6123046875 -32 m 1,0,-1
 7.3876953125 32 l 1,1,-1
 110.81640625 480 l 1,2,-1
 189.592773438 544 l 1,3,-1
 253.592773438 544 l 1,4,-1
 246.204101562 512 l 1,5,-1
 214.204101562 512 l 1,6,-1
 174.81640625 480 l 1,7,-1
 71.3876953125 32 l 1,8,-1
 96 0 l 1,9,-1
 128 0 l 1,10,-1
 120.612304688 -32 l 1,11,-1
 56.6123046875 -32 l 1,0,-1
EndSplineSet
Validated: 1
EndChar

StartChar: parenright
Encoding: 41 41 12
Width: 204
Flags: W
LayerCount: 2
Back
Fore
SplineSet
-7.3876953125 -32 m 1,0,-1
 0 0 l 1,1,-1
 32 0 l 1,2,-1
 71.3876953125 32 l 1,3,-1
 174.81640625 480 l 1,4,-1
 150.204101562 512 l 1,5,-1
 118.204101562 512 l 1,6,-1
 125.592773438 544 l 1,7,-1
 189.592773438 544 l 1,8,-1
 238.81640625 480 l 1,9,-1
 135.387695312 32 l 1,10,-1
 56.6123046875 -32 l 1,11,-1
 -7.3876953125 -32 l 1,0,-1
EndSplineSet
Validated: 1
EndChar

StartChar: asterisk
Encoding: 42 42 13
Width: 300
Flags: W
LayerCount: 2
Back
Fore
SplineSet
147.71484375 224 m 1,0,-1
 169.877929688 320 l 1,1,-1
 71.408203125 240 l 1,2,-1
 59.1025390625 256 l 1,3,-1
 157.571289062 336 l 1,4,-1
 145.265625 352 l 1,5,-1
 145.265625 352 l 1,6,-1
 96.041015625 416 l 1,7,-1
 115.735351562 432 l 1,8,-1
 177.265625 352 l 1,9,-1
 199.428710938 448 l 1,10,-1
 231.428710938 448 l 1,11,-1
 209.265625 352 l 1,12,-1
 307.735351562 432 l 1,13,-1
 320.041015625 416 l 1,14,-1
 241.265625 352 l 1,15,-1
 240.265625 352 l 1,16,-1
 221.571289062 336 l 1,17,-1
 283.102539062 256 l 1,18,-1
 263.408203125 240 l 1,19,-1
 201.877929688 320 l 1,20,-1
 179.71484375 224 l 1,21,-1
 147.71484375 224 l 1,0,-1
EndSplineSet
Validated: 5
EndChar

StartChar: plus
Encoding: 43 43 14
Width: 332
Flags: W
LayerCount: 2
Back
Fore
SplineSet
129.245117188 144 m 1,0,-1
 155.102539062 256 l 1,1,-1
 59.1025390625 256 l 1,2,-1
 66.490234375 288 l 1,3,-1
 162.490234375 288 l 1,4,-1
 188.34765625 400 l 1,5,-1
 252.34765625 400 l 1,6,-1
 226.490234375 288 l 1,7,-1
 322.490234375 288 l 1,8,-1
 315.102539062 256 l 1,9,-1
 219.102539062 256 l 1,10,-1
 193.245117188 144 l 1,11,-1
 129.245117188 144 l 1,0,-1
EndSplineSet
Validated: 1
EndChar

StartChar: comma
Encoding: 44 44 15
Width: 140
Flags: W
LayerCount: 2
Back
Fore
SplineSet
-14.775390625 -64 m 1,0,-1
 24.6123046875 -32 l 1,1,-1
 32 0 l 1,2,-1
 16 0 l 2,3,4
 9 0 9 0 4.923828125 4 c 0,5,6
 2.078125 9 2.078125 9 3.6943359375 16 c 2,7,-1
 10.8505859375 47 l 2,8,9
 12.466796875 54 12.466796875 54 17.62109375 59 c 0,10,11
 23.775390625 64 23.775390625 64 30.775390625 64 c 2,12,-1
 62.775390625 64 l 2,13,14
 68.775390625 64 68.775390625 64 72.62109375 59 c 256,15,16
 76.466796875 54 76.466796875 54 75.08203125 48 c 2,17,-1
 56.6123046875 -32 l 1,18,-1
 17.224609375 -64 l 1,19,-1
 -14.775390625 -64 l 1,0,-1
EndSplineSet
Validated: 1
EndChar

StartChar: hyphen
Encoding: 45 45 16
Width: 332
Flags: W
LayerCount: 2
Back
Fore
SplineSet
59.1025390625 256 m 1,0,-1
 66.490234375 288 l 1,1,-1
 322.490234375 288 l 1,2,-1
 315.102539062 256 l 1,3,-1
 59.1025390625 256 l 1,0,-1
EndSplineSet
Validated: 1
EndChar

StartChar: period
Encoding: 46 46 17
Width: 140
Flags: W
LayerCount: 2
Back
Fore
SplineSet
0 0 m 1,0,-1
 14.775390625 64 l 1,1,-1
 78.775390625 64 l 1,2,-1
 64 0 l 1,3,-1
 0 0 l 1,0,-1
EndSplineSet
Validated: 1
EndChar

StartChar: slash
Encoding: 47 47 18
Width: 396
Flags: W
LayerCount: 2
Back
Fore
SplineSet
0 0 m 1,0,-1
 374.204101562 512 l 1,1,-1
 438.204101562 512 l 1,2,-1
 64 0 l 1,3,-1
 0 0 l 1,0,-1
EndSplineSet
Validated: 1
EndChar

StartChar: zero
Encoding: 48 48 19
Width: 396
Flags: W
LayerCount: 2
Back
Fore
SplineSet
199.387695312 32 m 1,0,-1
 278.163085938 96 l 1,1,-1
 329.877929688 320 l 1,2,-1
 93.55078125 128 l 1,3,-1
 86.1630859375 96 l 1,4,-1
 135.387695312 32 l 1,5,-1
 199.387695312 32 l 1,0,-1
108.327148438 192 m 1,6,-1
 344.653320312 384 l 1,7,-1
 352.041015625 416 l 1,8,-1
 302.81640625 480 l 1,9,-1
 238.81640625 480 l 1,10,-1
 160.041015625 416 l 1,11,-1
 108.327148438 192 l 1,12,-1
 108.327148438 192 l 1,6,-1
96 0 m 1,13,-1
 22.1630859375 96 l 1,14,-1
 96.041015625 416 l 1,15,-1
 214.204101562 512 l 1,16,-1
 342.204101562 512 l 1,17,-1
 416.041015625 416 l 1,18,-1
 342.163085938 96 l 1,19,-1
 224 0 l 1,20,-1
 96 0 l 1,13,-1
EndSplineSet
Validated: 5
EndChar

StartChar: one
Encoding: 49 49 20
Width: 204
Flags: W
LayerCount: 2
Back
Fore
SplineSet
64 0 m 1,0,-1
 160.041015625 416 l 1,1,-1
 96.041015625 416 l 1,2,-1
 214.204101562 512 l 1,3,-1
 246.204101562 512 l 1,4,-1
 128 0 l 1,5,-1
 64 0 l 1,0,-1
EndSplineSet
Validated: 1
EndChar

StartChar: two
Encoding: 50 50 21
Width: 396
Flags: W
LayerCount: 2
Back
Fore
SplineSet
0 0 m 1,0,-1
 33.2451171875 144 l 1,1,-1
 348.34765625 400 l 1,2,-1
 359.428710938 448 l 1,3,-1
 334.81640625 480 l 1,4,-1
 206.81640625 480 l 1,5,-1
 167.428710938 448 l 1,6,-1
 160.041015625 416 l 1,7,-1
 96.041015625 416 l 1,8,-1
 103.428710938 448 l 1,9,-1
 182.204101562 512 l 1,10,-1
 374.204101562 512 l 1,11,-1
 423.428710938 448 l 1,12,-1
 408.653320312 384 l 1,13,-1
 93.55078125 128 l 1,14,-1
 71.3876953125 32 l 1,15,-1
 327.387695312 32 l 1,16,-1
 320 0 l 1,17,-1
 0 0 l 1,0,-1
EndSplineSet
Validated: 1
EndChar

StartChar: three
Encoding: 51 51 22
Width: 396
Flags: W
CounterMasks: 1 e0
LayerCount: 2
Back
Fore
SplineSet
64 0 m 1,0,-1
 14.775390625 64 l 1,1,-1
 78.775390625 64 l 1,2,-1
 103.387695312 32 l 1,3,-1
 231.387695312 32 l 1,4,-1
 270.775390625 64 l 1,5,-1
 300.327148438 192 l 1,6,-1
 263.408203125 240 l 1,7,-1
 183.408203125 240 l 1,8,-1
 190.795898438 272 l 1,9,-1
 270.795898438 272 l 1,10,-1
 329.877929688 320 l 1,11,-1
 359.428710938 448 l 1,12,-1
 334.81640625 480 l 1,13,-1
 206.81640625 480 l 1,14,-1
 167.428710938 448 l 1,15,-1
 160.041015625 416 l 1,16,-1
 96.041015625 416 l 1,17,-1
 103.428710938 448 l 1,18,-1
 182.204101562 512 l 1,19,-1
 374.204101562 512 l 1,20,-1
 423.428710938 448 l 1,21,-1
 393.877929688 320 l 1,22,-1
 315.102539062 256 l 1,23,-1
 364.327148438 192 l 1,24,-1
 334.775390625 64 l 1,25,-1
 256 0 l 1,26,-1
 64 0 l 1,0,-1
EndSplineSet
Validated: 1
EndChar

StartChar: four
Encoding: 52 52 23
Width: 396
Flags: W
LayerCount: 2
Back
Fore
SplineSet
307.71484375 224 m 1,0,-1
 355.735351562 432 l 1,1,-1
 99.71484375 224 l 1,2,-1
 307.71484375 224 l 1,0,-1
256 0 m 1,3,-1
 300.327148438 192 l 1,4,-1
 44.3271484375 192 l 1,5,-1
 51.71484375 224 l 1,6,-1
 406.204101562 512 l 1,7,-1
 438.204101562 512 l 1,8,-1
 320 0 l 1,9,-1
 256 0 l 1,3,-1
EndSplineSet
Validated: 1
EndChar

StartChar: five
Encoding: 53 53 24
Width: 396
Flags: W
LayerCount: 2
Back
Fore
SplineSet
64 0 m 1,0,-1
 14.775390625 64 l 1,1,-1
 78.775390625 64 l 1,2,-1
 103.387695312 32 l 1,3,-1
 231.387695312 32 l 1,4,-1
 270.775390625 64 l 1,5,-1
 307.71484375 224 l 1,6,-1
 270.795898438 272 l 1,7,-1
 174.795898438 272 l 1,8,-1
 76.3271484375 192 l 1,9,-1
 44.3271484375 192 l 1,10,-1
 118.204101562 512 l 1,11,-1
 438.204101562 512 l 1,12,-1
 430.81640625 480 l 1,13,-1
 174.81640625 480 l 1,14,-1
 134.18359375 304 l 1,15,-1
 294.18359375 304 l 1,16,-1
 322.490234375 288 l 1,17,-1
 371.71484375 224 l 1,18,-1
 334.775390625 64 l 1,19,-1
 256 0 l 1,20,-1
 64 0 l 1,0,-1
EndSplineSet
Validated: 1
EndChar

StartChar: six
Encoding: 54 54 25
Width: 396
Flags: W
LayerCount: 2
Back
Fore
SplineSet
231.387695312 32 m 1,0,-1
 270.775390625 64 l 1,1,-1
 307.71484375 224 l 1,2,-1
 270.795898438 272 l 1,3,-1
 174.795898438 272 l 1,4,-1
 115.71484375 224 l 1,5,-1
 78.775390625 64 l 1,6,-1
 103.387695312 32 l 1,7,-1
 231.387695312 32 l 1,0,-1
64 0 m 1,8,-1
 14.775390625 64 l 1,9,-1
 103.428710938 448 l 1,10,-1
 182.204101562 512 l 1,11,-1
 374.204101562 512 l 1,12,-1
 423.428710938 448 l 1,13,-1
 416.041015625 416 l 1,14,-1
 352.041015625 416 l 1,15,-1
 359.428710938 448 l 1,16,-1
 334.81640625 480 l 1,17,-1
 206.81640625 480 l 1,18,-1
 167.428710938 448 l 1,19,-1
 134.18359375 304 l 1,20,-1
 294.18359375 304 l 1,21,-1
 322.490234375 288 l 1,22,-1
 371.71484375 224 l 1,23,-1
 334.775390625 64 l 1,24,-1
 256 0 l 1,25,-1
 64 0 l 1,8,-1
EndSplineSet
Validated: 1
EndChar

StartChar: seven
Encoding: 55 55 26
Width: 396
Flags: W
LayerCount: 2
Back
Fore
SplineSet
0 0 m 1,0,-1
 350.81640625 480 l 1,1,-1
 110.81640625 480 l 1,2,-1
 118.204101562 512 l 1,3,-1
 438.204101562 512 l 1,4,-1
 430.81640625 480 l 1,5,-1
 80 0 l 1,6,-1
 0 0 l 1,0,-1
EndSplineSet
Validated: 1
EndChar

StartChar: eight
Encoding: 56 56 27
Width: 396
Flags: W
CounterMasks: 1 e0
LayerCount: 2
Back
Fore
SplineSet
231.387695312 32 m 1,0,-1
 270.775390625 64 l 1,1,-1
 300.327148438 192 l 1,2,-1
 263.408203125 240 l 1,3,-1
 167.408203125 240 l 1,4,-1
 108.327148438 192 l 1,5,-1
 78.775390625 64 l 1,6,-1
 103.387695312 32 l 1,7,-1
 231.387695312 32 l 1,0,-1
270.795898438 272 m 1,8,-1
 329.877929688 320 l 1,9,-1
 359.428710938 448 l 1,10,-1
 334.81640625 480 l 1,11,-1
 206.81640625 480 l 1,12,-1
 167.428710938 448 l 1,13,-1
 137.877929688 320 l 1,14,-1
 174.795898438 272 l 1,15,-1
 270.795898438 272 l 1,8,-1
64 0 m 1,16,-1
 14.775390625 64 l 1,17,-1
 44.3271484375 192 l 1,18,-1
 123.102539062 256 l 1,19,-1
 73.8779296875 320 l 1,20,-1
 103.428710938 448 l 1,21,-1
 182.204101562 512 l 1,22,-1
 374.204101562 512 l 1,23,-1
 423.428710938 448 l 1,24,-1
 393.877929688 320 l 1,25,-1
 315.102539062 256 l 1,26,-1
 364.327148438 192 l 1,27,-1
 334.775390625 64 l 1,28,-1
 256 0 l 1,29,-1
 64 0 l 1,16,-1
EndSplineSet
Validated: 1
EndChar

StartChar: nine
Encoding: 57 57 28
Width: 396
Flags: W
CounterMasks: 1 e0
LayerCount: 2
Back
Fore
SplineSet
270.795898438 272 m 1,0,-1
 329.877929688 320 l 1,1,-1
 359.428710938 448 l 1,2,-1
 334.81640625 480 l 1,3,-1
 206.81640625 480 l 1,4,-1
 167.428710938 448 l 1,5,-1
 137.877929688 320 l 1,6,-1
 174.795898438 272 l 1,7,-1
 270.795898438 272 l 1,0,-1
64 0 m 1,8,-1
 14.775390625 64 l 1,9,-1
 78.775390625 64 l 1,10,-1
 103.387695312 32 l 1,11,-1
 231.387695312 32 l 1,12,-1
 270.775390625 64 l 1,13,-1
 311.408203125 240 l 1,14,-1
 151.408203125 240 l 1,15,-1
 123.102539062 256 l 1,16,-1
 73.8779296875 320 l 1,17,-1
 103.428710938 448 l 1,18,-1
 182.204101562 512 l 1,19,-1
 374.204101562 512 l 1,20,-1
 423.428710938 448 l 1,21,-1
 334.775390625 64 l 1,22,-1
 256 0 l 1,23,-1
 64 0 l 1,8,-1
EndSplineSet
Validated: 1
EndChar

StartChar: colon
Encoding: 58 58 29
Width: 140
Flags: W
LayerCount: 2
Back
Fore
SplineSet
30.775390625 64 m 2,0,1
 23.775390625 64 23.775390625 64 19.69921875 68 c 0,2,3
 16.853515625 73 16.853515625 73 18.4697265625 80 c 2,4,-1
 25.6259765625 111 l 2,5,6
 27.2421875 118 27.2421875 118 32.396484375 123 c 0,7,8
 38.55078125 128 38.55078125 128 45.55078125 128 c 2,9,-1
 77.55078125 128 l 2,10,11
 83.55078125 128 83.55078125 128 87.396484375 123 c 256,12,13
 91.2421875 118 91.2421875 118 89.857421875 112 c 2,14,-1
 82.4697265625 80 l 2,15,16
 80.853515625 73 80.853515625 73 74.69921875 68 c 0,17,18
 68.775390625 64 68.775390625 64 62.775390625 64 c 2,19,-1
 30.775390625 64 l 2,0,1
89.8779296875 320 m 2,20,21
 82.8779296875 320 82.8779296875 320 78.8017578125 324 c 0,22,23
 75.9560546875 329 75.9560546875 329 77.5712890625 336 c 2,24,-1
 84.728515625 367 l 2,25,26
 86.3447265625 374 86.3447265625 374 91.4990234375 379 c 0,27,28
 97.6533203125 384 97.6533203125 384 104.653320312 384 c 2,29,-1
 136.653320312 384 l 2,30,31
 142.653320312 384 142.653320312 384 146.499023438 379 c 256,32,33
 150.344726562 374 150.344726562 374 148.959960938 368 c 2,34,-1
 141.571289062 336 l 2,35,36
 139.956054688 329 139.956054688 329 133.801757812 324 c 0,37,38
 127.877929688 320 127.877929688 320 121.877929688 320 c 2,39,-1
 89.8779296875 320 l 2,20,21
EndSplineSet
Validated: 1
EndChar

StartChar: semicolon
Encoding: 59 59 30
Width: 140
Flags: W
LayerCount: 2
Back
Fore
SplineSet
0 0 m 1,0,-1
 39.3876953125 32 l 1,1,-1
 46.775390625 64 l 1,2,-1
 30.775390625 64 l 2,3,4
 23.775390625 64 23.775390625 64 19.69921875 68 c 0,5,6
 16.853515625 73 16.853515625 73 18.4697265625 80 c 2,7,-1
 25.6259765625 111 l 2,8,9
 27.2421875 118 27.2421875 118 32.396484375 123 c 0,10,11
 38.55078125 128 38.55078125 128 45.55078125 128 c 2,12,-1
 77.55078125 128 l 2,13,14
 83.55078125 128 83.55078125 128 87.396484375 123 c 256,15,16
 91.2421875 118 91.2421875 118 89.857421875 112 c 2,17,-1
 71.3876953125 32 l 1,18,-1
 32 0 l 1,19,-1
 0 0 l 1,0,-1
89.8779296875 320 m 2,20,21
 82.8779296875 320 82.8779296875 320 78.8017578125 324 c 0,22,23
 75.9560546875 329 75.9560546875 329 77.5712890625 336 c 2,24,-1
 84.728515625 367 l 2,25,26
 86.3447265625 374 86.3447265625 374 91.4990234375 379 c 0,27,28
 97.6533203125 384 97.6533203125 384 104.653320312 384 c 2,29,-1
 136.653320312 384 l 2,30,31
 142.653320312 384 142.653320312 384 146.499023438 379 c 256,32,33
 150.344726562 374 150.344726562 374 148.959960938 368 c 2,34,-1
 141.571289062 336 l 2,35,36
 139.956054688 329 139.956054688 329 133.801757812 324 c 0,37,38
 127.877929688 320 127.877929688 320 121.877929688 320 c 2,39,-1
 89.8779296875 320 l 2,20,21
EndSplineSet
Validated: 1
EndChar

StartChar: less
Encoding: 60 60 31
Width: 300
Flags: W
LayerCount: 2
Back
Fore
SplineSet
206.775390625 64 m 1,0,-1
 59.1025390625 256 l 1,1,-1
 295.428710938 448 l 1,2,-1
 327.428710938 448 l 1,3,-1
 316.34765625 400 l 1,4,-1
 119.408203125 240 l 1,5,-1
 242.469726562 80 l 1,6,-1
 238.775390625 64 l 1,7,-1
 206.775390625 64 l 1,0,-1
EndSplineSet
Validated: 1
EndChar

StartChar: equal
Encoding: 61 61 32
Width: 332
Flags: W
LayerCount: 2
Back
Fore
SplineSet
36.9384765625 160 m 1,0,-1
 44.3271484375 192 l 1,1,-1
 300.327148438 192 l 1,2,-1
 292.938476562 160 l 1,3,-1
 36.9384765625 160 l 1,0,-1
59.1025390625 256 m 1,4,-1
 66.490234375 288 l 1,5,-1
 322.490234375 288 l 1,6,-1
 315.102539062 256 l 1,7,-1
 59.1025390625 256 l 1,4,-1
EndSplineSet
Validated: 1
EndChar

StartChar: greater
Encoding: 62 62 33
Width: 300
Flags: W
LayerCount: 2
Back
Fore
SplineSet
14.775390625 64 m 1,0,-1
 25.857421875 112 l 1,1,-1
 222.795898438 272 l 1,2,-1
 99.7353515625 432 l 1,3,-1
 103.428710938 448 l 1,4,-1
 135.428710938 448 l 1,5,-1
 283.102539062 256 l 1,6,-1
 46.775390625 64 l 1,7,-1
 14.775390625 64 l 1,0,-1
EndSplineSet
Validated: 1
EndChar

StartChar: question
Encoding: 63 63 34
Width: 396
Flags: W
CounterMasks: 1 38
LayerCount: 2
Back
Fore
SplineSet
144 0 m 2,0,1
 137 0 137 0 132.923828125 4 c 0,2,3
 130.078125 9 130.078125 9 131.694335938 16 c 2,4,-1
 138.850585938 47 l 2,5,6
 140.466796875 54 140.466796875 54 145.62109375 59 c 0,7,8
 151.775390625 64 151.775390625 64 158.775390625 64 c 2,9,-1
 190.775390625 64 l 2,10,11
 196.775390625 64 196.775390625 64 200.62109375 59 c 256,12,13
 204.466796875 54 204.466796875 54 203.08203125 48 c 2,14,-1
 195.694335938 16 l 2,15,16
 194.078125 9 194.078125 9 187.923828125 4 c 0,17,18
 182 0 182 0 176 0 c 2,19,-1
 144 0 l 2,0,1
150.163085938 96 m 1,20,-1
 183.408203125 240 l 1,21,-1
 340.959960938 368 l 1,22,-1
 359.428710938 448 l 1,23,-1
 334.81640625 480 l 1,24,-1
 206.81640625 480 l 1,25,-1
 167.428710938 448 l 1,26,-1
 160.041015625 416 l 1,27,-1
 96.041015625 416 l 1,28,-1
 103.428710938 448 l 1,29,-1
 182.204101562 512 l 1,30,-1
 374.204101562 512 l 1,31,-1
 423.428710938 448 l 1,32,-1
 401.265625 352 l 1,33,-1
 243.71484375 224 l 1,34,-1
 214.163085938 96 l 1,35,-1
 150.163085938 96 l 1,20,-1
EndSplineSet
Validated: 1
EndChar

StartChar: at
Encoding: 64 64 35
Width: 396
Flags: W
LayerCount: 2
Back
Fore
SplineSet
228.938476562 160 m 1,0,-1
 273.265625 352 l 1,1,-1
 241.265625 352 l 1,2,-1
 201.877929688 320 l 1,3,-1
 172.327148438 192 l 1,4,-1
 196.938476562 160 l 1,5,-1
 228.938476562 160 l 1,0,-1
71.3876953125 32 m 1,6,-1
 22.1630859375 96 l 1,7,-1
 96.041015625 416 l 1,8,-1
 174.81640625 480 l 1,9,-1
 366.81640625 480 l 1,10,-1
 416.041015625 416 l 1,11,-1
 356.938476562 160 l 1,12,-1
 317.55078125 128 l 1,13,-1
 157.55078125 128 l 1,14,-1
 132.938476562 160 l 1,15,-1
 177.265625 352 l 1,16,-1
 216.653320312 384 l 1,17,-1
 280.653320312 384 l 1,18,-1
 305.265625 352 l 1,19,-1
 260.938476562 160 l 1,20,-1
 292.938476562 160 l 1,21,-1
 352.041015625 416 l 1,22,-1
 327.428710938 448 l 1,23,-1
 199.428710938 448 l 1,24,-1
 160.041015625 416 l 1,25,-1
 86.1630859375 96 l 1,26,-1
 110.775390625 64 l 1,27,-1
 238.775390625 64 l 1,28,-1
 278.163085938 96 l 1,29,-1
 342.163085938 96 l 1,30,-1
 263.387695312 32 l 1,31,-1
 71.3876953125 32 l 1,6,-1
EndSplineSet
Validated: 1
EndChar

StartChar: A
Encoding: 65 65 36
Width: 396
Flags: W
LayerCount: 2
Back
Fore
SplineSet
322.490234375 288 m 1,0,-1
 359.428710938 448 l 1,1,-1
 334.81640625 480 l 1,2,-1
 206.81640625 480 l 1,3,-1
 167.428710938 448 l 1,4,-1
 130.490234375 288 l 1,5,-1
 322.490234375 288 l 1,0,-1
0 0 m 1,6,-1
 103.428710938 448 l 1,7,-1
 182.204101562 512 l 1,8,-1
 374.204101562 512 l 1,9,-1
 423.428710938 448 l 1,10,-1
 320 0 l 1,11,-1
 256 0 l 1,12,-1
 315.102539062 256 l 1,13,-1
 123.102539062 256 l 1,14,-1
 64 0 l 1,15,-1
 0 0 l 1,6,-1
EndSplineSet
Validated: 1
EndChar

StartChar: B
Encoding: 66 66 37
Width: 396
Flags: W
LayerCount: 2
Back
Fore
SplineSet
231.387695312 32 m 1,0,-1
 270.775390625 64 l 1,1,-1
 307.71484375 224 l 1,2,-1
 283.102539062 256 l 1,3,-1
 123.102539062 256 l 1,4,-1
 71.3876953125 32 l 1,5,-1
 231.387695312 32 l 1,0,-1
290.490234375 288 m 1,6,-1
 329.877929688 320 l 1,7,-1
 359.428710938 448 l 1,8,-1
 334.81640625 480 l 1,9,-1
 174.81640625 480 l 1,10,-1
 130.490234375 288 l 1,11,-1
 290.490234375 288 l 1,6,-1
0 0 m 1,12,-1
 118.204101562 512 l 1,13,-1
 374.204101562 512 l 1,14,-1
 423.428710938 448 l 1,15,-1
 393.877929688 320 l 1,16,-1
 354.490234375 288 l 1,17,-1
 353.490234375 288 l 1,18,-1
 334.795898438 272 l 1,19,-1
 371.71484375 224 l 1,20,-1
 334.775390625 64 l 1,21,-1
 256 0 l 1,22,-1
 0 0 l 1,12,-1
EndSplineSet
Validated: 1
EndChar

StartChar: C
Encoding: 67 67 38
Width: 396
Flags: W
LayerCount: 2
Back
Fore
SplineSet
64 0 m 1,0,-1
 14.775390625 64 l 1,1,-1
 103.428710938 448 l 1,2,-1
 182.204101562 512 l 1,3,-1
 374.204101562 512 l 1,4,-1
 423.428710938 448 l 1,5,-1
 416.041015625 416 l 1,6,-1
 352.041015625 416 l 1,7,-1
 359.428710938 448 l 1,8,-1
 334.81640625 480 l 1,9,-1
 206.81640625 480 l 1,10,-1
 167.428710938 448 l 1,11,-1
 78.775390625 64 l 1,12,-1
 103.387695312 32 l 1,13,-1
 231.387695312 32 l 1,14,-1
 270.775390625 64 l 1,15,-1
 278.163085938 96 l 1,16,-1
 342.163085938 96 l 1,17,-1
 334.775390625 64 l 1,18,-1
 256 0 l 1,19,-1
 64 0 l 1,0,-1
EndSplineSet
Validated: 1
EndChar

StartChar: D
Encoding: 68 68 39
Width: 396
Flags: W
LayerCount: 2
Back
Fore
SplineSet
231.387695312 32 m 1,0,-1
 270.775390625 64 l 1,1,-1
 359.428710938 448 l 1,2,-1
 334.81640625 480 l 1,3,-1
 174.81640625 480 l 1,4,-1
 71.3876953125 32 l 1,5,-1
 231.387695312 32 l 1,0,-1
0 0 m 1,6,-1
 118.204101562 512 l 1,7,-1
 374.204101562 512 l 1,8,-1
 423.428710938 448 l 1,9,-1
 334.775390625 64 l 1,10,-1
 256 0 l 1,11,-1
 0 0 l 1,6,-1
EndSplineSet
Validated: 1
EndChar

StartChar: E
Encoding: 69 69 40
Width: 396
Flags: W
LayerCount: 2
Back
Fore
SplineSet
0 0 m 1,0,-1
 118.204101562 512 l 1,1,-1
 438.204101562 512 l 1,2,-1
 430.81640625 480 l 1,3,-1
 174.81640625 480 l 1,4,-1
 130.490234375 288 l 1,5,-1
 322.490234375 288 l 1,6,-1
 315.102539062 256 l 1,7,-1
 123.102539062 256 l 1,8,-1
 71.3876953125 32 l 1,9,-1
 327.387695312 32 l 1,10,-1
 320 0 l 1,11,-1
 0 0 l 1,0,-1
EndSplineSet
Validated: 1
EndChar

StartChar: F
Encoding: 70 70 41
Width: 396
Flags: W
LayerCount: 2
Back
Fore
SplineSet
0 0 m 1,0,-1
 118.204101562 512 l 1,1,-1
 438.204101562 512 l 1,2,-1
 430.81640625 480 l 1,3,-1
 174.81640625 480 l 1,4,-1
 130.490234375 288 l 1,5,-1
 322.490234375 288 l 1,6,-1
 315.102539062 256 l 1,7,-1
 123.102539062 256 l 1,8,-1
 64 0 l 1,9,-1
 0 0 l 1,0,-1
EndSplineSet
Validated: 1
EndChar

StartChar: G
Encoding: 71 71 42
Width: 396
Flags: W
LayerCount: 2
Back
Fore
SplineSet
64 0 m 1,0,-1
 14.775390625 64 l 1,1,-1
 103.428710938 448 l 1,2,-1
 182.204101562 512 l 1,3,-1
 374.204101562 512 l 1,4,-1
 423.428710938 448 l 1,5,-1
 416.041015625 416 l 1,6,-1
 352.041015625 416 l 1,7,-1
 359.428710938 448 l 1,8,-1
 334.81640625 480 l 1,9,-1
 206.81640625 480 l 1,10,-1
 167.428710938 448 l 1,11,-1
 78.775390625 64 l 1,12,-1
 103.387695312 32 l 1,13,-1
 231.387695312 32 l 1,14,-1
 270.775390625 64 l 1,15,-1
 307.71484375 224 l 1,16,-1
 211.71484375 224 l 1,17,-1
 219.102539062 256 l 1,18,-1
 379.102539062 256 l 1,19,-1
 334.775390625 64 l 1,20,-1
 256 0 l 1,21,-1
 64 0 l 1,0,-1
EndSplineSet
Validated: 1
EndChar

StartChar: H
Encoding: 72 72 43
Width: 396
Flags: W
LayerCount: 2
Back
Fore
SplineSet
0 0 m 1,0,-1
 118.204101562 512 l 1,1,-1
 182.204101562 512 l 1,2,-1
 130.490234375 288 l 1,3,-1
 322.490234375 288 l 1,4,-1
 374.204101562 512 l 1,5,-1
 438.204101562 512 l 1,6,-1
 320 0 l 1,7,-1
 256 0 l 1,8,-1
 315.102539062 256 l 1,9,-1
 123.102539062 256 l 1,10,-1
 64 0 l 1,11,-1
 0 0 l 1,0,-1
EndSplineSet
Validated: 1
EndChar

StartChar: I
Encoding: 73 73 44
Width: 140
Flags: W
LayerCount: 2
Back
Fore
SplineSet
0 0 m 1,0,-1
 118.204101562 512 l 1,1,-1
 182.204101562 512 l 1,2,-1
 64 0 l 1,3,-1
 0 0 l 1,0,-1
EndSplineSet
Validated: 1
EndChar

StartChar: J
Encoding: 74 74 45
Width: 396
Flags: W
LayerCount: 2
Back
Fore
SplineSet
64 0 m 1,0,-1
 14.775390625 64 l 1,1,-1
 22.1630859375 96 l 1,2,-1
 86.1630859375 96 l 1,3,-1
 78.775390625 64 l 1,4,-1
 103.387695312 32 l 1,5,-1
 231.387695312 32 l 1,6,-1
 270.775390625 64 l 1,7,-1
 374.204101562 512 l 1,8,-1
 438.204101562 512 l 1,9,-1
 334.775390625 64 l 1,10,-1
 256 0 l 1,11,-1
 64 0 l 1,0,-1
EndSplineSet
Validated: 1
EndChar

StartChar: K
Encoding: 75 75 46
Width: 396
Flags: W
LayerCount: 2
Back
Fore
SplineSet
0 0 m 1,0,-1
 118.204101562 512 l 1,1,-1
 182.204101562 512 l 1,2,-1
 130.490234375 288 l 1,3,-1
 406.204101562 512 l 1,4,-1
 438.204101562 512 l 1,5,-1
 434.510742188 496 l 1,6,-1
 158.795898438 272 l 1,7,-1
 155.102539062 256 l 1,8,-1
 327.387695312 32 l 1,9,-1
 320 0 l 1,10,-1
 288 0 l 1,11,-1
 115.71484375 224 l 1,12,-1
 64 0 l 1,13,-1
 0 0 l 1,0,-1
EndSplineSet
Validated: 1
EndChar

StartChar: L
Encoding: 76 76 47
Width: 396
Flags: W
LayerCount: 2
Back
Fore
SplineSet
0 0 m 1,0,-1
 118.204101562 512 l 1,1,-1
 182.204101562 512 l 1,2,-1
 71.3876953125 32 l 1,3,-1
 327.387695312 32 l 1,4,-1
 320 0 l 1,5,-1
 0 0 l 1,0,-1
EndSplineSet
Validated: 1
EndChar

StartChar: M
Encoding: 77 77 48
Width: 460
Flags: W
LayerCount: 2
Back
Fore
SplineSet
0 0 m 1,0,-1
 118.204101562 512 l 1,1,-1
 166.204101562 512 l 1,2,-1
 243.71484375 224 l 1,3,-1
 454.204101562 512 l 1,4,-1
 502.204101562 512 l 1,5,-1
 384 0 l 1,6,-1
 320 0 l 1,7,-1
 416.041015625 416 l 1,8,-1
 228.938476562 160 l 1,9,-1
 160.041015625 416 l 1,10,-1
 64 0 l 1,11,-1
 0 0 l 1,0,-1
EndSplineSet
Validated: 1
EndChar

StartChar: N
Encoding: 78 78 49
Width: 396
Flags: W
LayerCount: 2
Back
Fore
SplineSet
0 0 m 1,0,-1
 118.204101562 512 l 1,1,-1
 166.204101562 512 l 1,2,-1
 278.163085938 96 l 1,3,-1
 374.204101562 512 l 1,4,-1
 438.204101562 512 l 1,5,-1
 320 0 l 1,6,-1
 272 0 l 1,7,-1
 160.041015625 416 l 1,8,-1
 64 0 l 1,9,-1
 0 0 l 1,0,-1
EndSplineSet
Validated: 1
EndChar

StartChar: O
Encoding: 79 79 50
Width: 396
Flags: W
LayerCount: 2
Back
Fore
SplineSet
231.387695312 32 m 1,0,-1
 270.775390625 64 l 1,1,-1
 359.428710938 448 l 1,2,-1
 334.81640625 480 l 1,3,-1
 206.81640625 480 l 1,4,-1
 167.428710938 448 l 1,5,-1
 78.775390625 64 l 1,6,-1
 103.387695312 32 l 1,7,-1
 231.387695312 32 l 1,0,-1
64 0 m 1,8,-1
 14.775390625 64 l 1,9,-1
 103.428710938 448 l 1,10,-1
 182.204101562 512 l 1,11,-1
 374.204101562 512 l 1,12,-1
 423.428710938 448 l 1,13,-1
 334.775390625 64 l 1,14,-1
 256 0 l 1,15,-1
 64 0 l 1,8,-1
EndSplineSet
Validated: 1
EndChar

StartChar: P
Encoding: 80 80 51
Width: 396
Flags: W
LayerCount: 2
Back
Fore
SplineSet
290.490234375 288 m 1,0,-1
 329.877929688 320 l 1,1,-1
 359.428710938 448 l 1,2,-1
 334.81640625 480 l 1,3,-1
 174.81640625 480 l 1,4,-1
 130.490234375 288 l 1,5,-1
 290.490234375 288 l 1,0,-1
0 0 m 1,6,-1
 118.204101562 512 l 1,7,-1
 374.204101562 512 l 1,8,-1
 423.428710938 448 l 1,9,-1
 393.877929688 320 l 1,10,-1
 315.102539062 256 l 1,11,-1
 123.102539062 256 l 1,12,-1
 64 0 l 1,13,-1
 0 0 l 1,6,-1
EndSplineSet
Validated: 1
EndChar

StartChar: Q
Encoding: 81 81 52
Width: 396
Flags: W
LayerCount: 2
Back
Fore
SplineSet
231.387695312 32 m 1,0,-1
 270.775390625 64 l 1,1,-1
 359.428710938 448 l 1,2,-1
 334.81640625 480 l 1,3,-1
 206.81640625 480 l 1,4,-1
 167.428710938 448 l 1,5,-1
 78.775390625 64 l 1,6,-1
 103.387695312 32 l 1,7,-1
 231.387695312 32 l 1,0,-1
273.224609375 -64 m 1,8,-1
 224 0 l 1,9,-1
 64 0 l 1,10,-1
 14.775390625 64 l 1,11,-1
 103.428710938 448 l 1,12,-1
 182.204101562 512 l 1,13,-1
 374.204101562 512 l 1,14,-1
 423.428710938 448 l 1,15,-1
 334.775390625 64 l 1,16,-1
 256 0 l 1,17,-1
 305.224609375 -64 l 1,18,-1
 273.224609375 -64 l 1,8,-1
EndSplineSet
Validated: 1
EndChar

StartChar: R
Encoding: 82 82 53
Width: 396
Flags: W
LayerCount: 2
Back
Fore
SplineSet
290.490234375 288 m 1,0,-1
 329.877929688 320 l 1,1,-1
 359.428710938 448 l 1,2,-1
 334.81640625 480 l 1,3,-1
 174.81640625 480 l 1,4,-1
 130.490234375 288 l 1,5,-1
 290.490234375 288 l 1,0,-1
0 0 m 1,6,-1
 118.204101562 512 l 1,7,-1
 374.204101562 512 l 1,8,-1
 423.428710938 448 l 1,9,-1
 393.877929688 320 l 1,10,-1
 354.490234375 288 l 1,11,-1
 353.490234375 288 l 1,12,-1
 334.795898438 272 l 1,13,-1
 371.71484375 224 l 1,14,-1
 320 0 l 1,15,-1
 256 0 l 1,16,-1
 307.71484375 224 l 1,17,-1
 283.102539062 256 l 1,18,-1
 123.102539062 256 l 1,19,-1
 64 0 l 1,20,-1
 0 0 l 1,6,-1
EndSplineSet
Validated: 1
EndChar

StartChar: S
Encoding: 83 83 54
Width: 396
Flags: W
LayerCount: 2
Back
Fore
SplineSet
64 0 m 1,0,-1
 14.775390625 64 l 1,1,-1
 22.1630859375 96 l 1,2,-1
 86.1630859375 96 l 1,3,-1
 78.775390625 64 l 1,4,-1
 103.387695312 32 l 1,5,-1
 231.387695312 32 l 1,6,-1
 270.775390625 64 l 1,7,-1
 285.55078125 128 l 1,8,-1
 88.6533203125 384 l 1,9,-1
 103.428710938 448 l 1,10,-1
 182.204101562 512 l 1,11,-1
 374.204101562 512 l 1,12,-1
 423.428710938 448 l 1,13,-1
 416.041015625 416 l 1,14,-1
 352.041015625 416 l 1,15,-1
 359.428710938 448 l 1,16,-1
 334.81640625 480 l 1,17,-1
 206.81640625 480 l 1,18,-1
 167.428710938 448 l 1,19,-1
 156.34765625 400 l 1,20,-1
 353.245117188 144 l 1,21,-1
 334.775390625 64 l 1,22,-1
 256 0 l 1,23,-1
 64 0 l 1,0,-1
EndSplineSet
Validated: 1
EndChar

StartChar: T
Encoding: 84 84 55
Width: 396
Flags: W
LayerCount: 2
Back
Fore
SplineSet
128 0 m 1,0,-1
 238.81640625 480 l 1,1,-1
 110.81640625 480 l 1,2,-1
 118.204101562 512 l 1,3,-1
 438.204101562 512 l 1,4,-1
 430.81640625 480 l 1,5,-1
 302.81640625 480 l 1,6,-1
 192 0 l 1,7,-1
 128 0 l 1,0,-1
EndSplineSet
Validated: 1
EndChar

StartChar: U
Encoding: 85 85 56
Width: 396
Flags: W
LayerCount: 2
Back
Fore
SplineSet
64 0 m 1,0,-1
 14.775390625 64 l 1,1,-1
 118.204101562 512 l 1,2,-1
 182.204101562 512 l 1,3,-1
 78.775390625 64 l 1,4,-1
 103.387695312 32 l 1,5,-1
 231.387695312 32 l 1,6,-1
 270.775390625 64 l 1,7,-1
 374.204101562 512 l 1,8,-1
 438.204101562 512 l 1,9,-1
 334.775390625 64 l 1,10,-1
 256 0 l 1,11,-1
 64 0 l 1,0,-1
EndSplineSet
Validated: 1
EndChar

StartChar: V
Encoding: 86 86 57
Width: 396
Flags: W
LayerCount: 2
Back
Fore
SplineSet
0 0 m 1,0,-1
 118.204101562 512 l 1,1,-1
 182.204101562 512 l 1,2,-1
 78.775390625 64 l 1,3,-1
 94.775390625 64 l 1,4,-1
 352.041015625 416 l 1,5,-1
 374.204101562 512 l 1,6,-1
 438.204101562 512 l 1,7,-1
 430.81640625 480 l 1,8,-1
 80 0 l 1,9,-1
 0 0 l 1,0,-1
EndSplineSet
Validated: 1
EndChar

StartChar: W
Encoding: 87 87 58
Width: 588
Flags: W
LayerCount: 2
Back
Fore
SplineSet
0 0 m 1,0,-1
 118.204101562 512 l 1,1,-1
 182.204101562 512 l 1,2,-1
 78.775390625 64 l 1,3,-1
 94.775390625 64 l 1,4,-1
 328.653320312 384 l 1,5,-1
 344.653320312 384 l 1,6,-1
 270.775390625 64 l 1,7,-1
 286.775390625 64 l 1,8,-1
 544.041015625 416 l 1,9,-1
 566.204101562 512 l 1,10,-1
 630.204101562 512 l 1,11,-1
 622.81640625 480 l 1,12,-1
 272 0 l 1,13,-1
 192 0 l 1,14,-1
 243.71484375 224 l 1,15,-1
 80 0 l 1,16,-1
 0 0 l 1,0,-1
EndSplineSet
Validated: 1
EndChar

StartChar: X
Encoding: 88 88 59
Width: 396
Flags: W
LayerCount: 2
Back
Fore
SplineSet
0 0 m 1,0,-1
 44.3271484375 192 l 1,1,-1
 123.102539062 256 l 1,2,-1
 123.102539062 256 l 1,3,-1
 142.795898438 272 l 1,4,-1
 81.265625 352 l 1,5,-1
 118.204101562 512 l 1,6,-1
 182.204101562 512 l 1,7,-1
 145.265625 352 l 1,8,-1
 194.490234375 288 l 1,9,-1
 258.490234375 288 l 1,10,-1
 337.265625 352 l 1,11,-1
 374.204101562 512 l 1,12,-1
 438.204101562 512 l 1,13,-1
 401.265625 352 l 1,14,-1
 322.490234375 288 l 1,15,-1
 321.490234375 288 l 1,16,-1
 302.795898438 272 l 1,17,-1
 364.327148438 192 l 1,18,-1
 320 0 l 1,19,-1
 256 0 l 1,20,-1
 300.327148438 192 l 1,21,-1
 251.102539062 256 l 1,22,-1
 187.102539062 256 l 1,23,-1
 108.327148438 192 l 1,24,-1
 64 0 l 1,25,-1
 0 0 l 1,0,-1
EndSplineSet
Validated: 5
EndChar

StartChar: Y
Encoding: 89 89 60
Width: 396
Flags: W
LayerCount: 2
Back
Fore
SplineSet
96 0 m 1,0,-1
 103.387695312 32 l 1,1,-1
 199.387695312 32 l 1,2,-1
 278.163085938 96 l 1,3,-1
 300.327148438 192 l 1,4,-1
 204.327148438 192 l 1,5,-1
 118.204101562 512 l 1,6,-1
 182.204101562 512 l 1,7,-1
 259.71484375 224 l 1,8,-1
 307.71484375 224 l 1,9,-1
 374.204101562 512 l 1,10,-1
 438.204101562 512 l 1,11,-1
 342.163085938 96 l 1,12,-1
 224 0 l 1,13,-1
 96 0 l 1,0,-1
EndSplineSet
Validated: 1
EndChar

StartChar: Z
Encoding: 90 90 61
Width: 396
Flags: W
LayerCount: 2
Back
Fore
SplineSet
0 0 m 1,0,-1
 350.81640625 480 l 1,1,-1
 110.81640625 480 l 1,2,-1
 118.204101562 512 l 1,3,-1
 438.204101562 512 l 1,4,-1
 430.81640625 480 l 1,5,-1
 103.387695312 32 l 1,6,-1
 327.387695312 32 l 1,7,-1
 320 0 l 1,8,-1
 0 0 l 1,0,-1
EndSplineSet
Validated: 1
EndChar

StartChar: bracketleft
Encoding: 91 91 62
Width: 204
Flags: W
LayerCount: 2
Back
Fore
SplineSet
-7.3876953125 -32 m 1,0,-1
 125.592773438 544 l 1,1,-1
 253.592773438 544 l 1,2,-1
 246.204101562 512 l 1,3,-1
 182.204101562 512 l 1,4,-1
 64 0 l 1,5,-1
 128 0 l 1,6,-1
 120.612304688 -32 l 1,7,-1
 -7.3876953125 -32 l 1,0,-1
EndSplineSet
Validated: 1
EndChar

StartChar: backslash
Encoding: 92 92 63
Width: 396
Flags: W
LayerCount: 2
Back
Fore
SplineSet
256 0 m 1,0,-1
 118.204101562 512 l 1,1,-1
 182.204101562 512 l 1,2,-1
 320 0 l 1,3,-1
 256 0 l 1,0,-1
EndSplineSet
Validated: 1
EndChar

StartChar: bracketright
Encoding: 93 93 64
Width: 204
Flags: W
LayerCount: 2
Back
Fore
SplineSet
-7.3876953125 -32 m 1,0,-1
 0 0 l 1,1,-1
 64 0 l 1,2,-1
 182.204101562 512 l 1,3,-1
 118.204101562 512 l 1,4,-1
 125.592773438 544 l 1,5,-1
 253.592773438 544 l 1,6,-1
 120.612304688 -32 l 1,7,-1
 -7.3876953125 -32 l 1,0,-1
EndSplineSet
Validated: 1
EndChar

StartChar: asciicircum
Encoding: 94 94 65
Width: 332
Flags: W
LayerCount: 2
Back
Fore
SplineSet
73.8779296875 320 m 1,0,-1
 81.265625 352 l 1,1,-1
 224.041015625 416 l 1,2,-1
 337.265625 352 l 1,3,-1
 329.877929688 320 l 1,4,-1
 297.877929688 320 l 1,5,-1
 198.806640625 376 l 1,6,-1
 73.8779296875 320 l 1,7,-1
 73.8779296875 320 l 1,0,-1
EndSplineSet
Validated: 5
EndChar

StartChar: underscore
Encoding: 95 95 66
Width: 460
Flags: W
LayerCount: 2
Back
Fore
SplineSet
-14.775390625 -64 m 1,0,-1
 -7.3876953125 -32 l 1,1,-1
 376.612304688 -32 l 1,2,-1
 369.224609375 -64 l 1,3,-1
 -14.775390625 -64 l 1,0,-1
EndSplineSet
Validated: 1
EndChar

StartChar: grave
Encoding: 96 96 67
Width: 268
Flags: W
LayerCount: 2
Back
Fore
SplineSet
233.877929688 320 m 1,0,-1
 92.34765625 400 l 1,1,-1
 99.7353515625 432 l 1,2,-1
 131.735351562 432 l 1,3,-1
 273.265625 352 l 1,4,-1
 265.877929688 320 l 1,5,-1
 233.877929688 320 l 1,0,-1
EndSplineSet
Validated: 1
EndChar

StartChar: a
Encoding: 97 97 68
Width: 396
Flags: W
CounterMasks: 1 e0
LayerCount: 2
Back
Fore
SplineSet
263.387695312 32 m 1,0,-1
 285.55078125 128 l 1,1,-1
 125.55078125 128 l 1,2,-1
 86.1630859375 96 l 1,3,-1
 78.775390625 64 l 1,4,-1
 103.387695312 32 l 1,5,-1
 263.387695312 32 l 1,0,-1
64 0 m 1,6,-1
 14.775390625 64 l 1,7,-1
 22.1630859375 96 l 1,8,-1
 100.938476562 160 l 1,9,-1
 292.938476562 160 l 1,10,-1
 307.71484375 224 l 1,11,-1
 283.102539062 256 l 1,12,-1
 155.102539062 256 l 1,13,-1
 115.71484375 224 l 1,14,-1
 51.71484375 224 l 1,15,-1
 130.490234375 288 l 1,16,-1
 322.490234375 288 l 1,17,-1
 371.71484375 224 l 1,18,-1
 320 0 l 1,19,-1
 64 0 l 1,6,-1
EndSplineSet
Validated: 1
EndChar

StartChar: b
Encoding: 98 98 69
Width: 396
Flags: W
LayerCount: 2
Back
Fore
SplineSet
231.387695312 32 m 1,0,-1
 270.775390625 64 l 1,1,-1
 307.71484375 224 l 1,2,-1
 283.102539062 256 l 1,3,-1
 123.102539062 256 l 1,4,-1
 71.3876953125 32 l 1,5,-1
 231.387695312 32 l 1,0,-1
0 0 m 1,6,-1
 118.204101562 512 l 1,7,-1
 182.204101562 512 l 1,8,-1
 130.490234375 288 l 1,9,-1
 322.490234375 288 l 1,10,-1
 371.71484375 224 l 1,11,-1
 334.775390625 64 l 1,12,-1
 256 0 l 1,13,-1
 0 0 l 1,6,-1
EndSplineSet
Validated: 1
EndChar

StartChar: c
Encoding: 99 99 70
Width: 396
Flags: W
LayerCount: 2
Back
Fore
SplineSet
64 0 m 1,0,-1
 14.775390625 64 l 1,1,-1
 51.71484375 224 l 1,2,-1
 130.490234375 288 l 1,3,-1
 322.490234375 288 l 1,4,-1
 371.71484375 224 l 1,5,-1
 307.71484375 224 l 1,6,-1
 283.102539062 256 l 1,7,-1
 155.102539062 256 l 1,8,-1
 115.71484375 224 l 1,9,-1
 78.775390625 64 l 1,10,-1
 103.387695312 32 l 1,11,-1
 231.387695312 32 l 1,12,-1
 270.775390625 64 l 1,13,-1
 334.775390625 64 l 1,14,-1
 256 0 l 1,15,-1
 64 0 l 1,0,-1
EndSplineSet
Validated: 1
EndChar

StartChar: d
Encoding: 100 100 71
Width: 396
Flags: W
LayerCount: 2
Back
Fore
SplineSet
263.387695312 32 m 1,0,-1
 315.102539062 256 l 1,1,-1
 155.102539062 256 l 1,2,-1
 115.71484375 224 l 1,3,-1
 78.775390625 64 l 1,4,-1
 103.387695312 32 l 1,5,-1
 263.387695312 32 l 1,0,-1
64 0 m 1,6,-1
 14.775390625 64 l 1,7,-1
 51.71484375 224 l 1,8,-1
 130.490234375 288 l 1,9,-1
 322.490234375 288 l 1,10,-1
 374.204101562 512 l 1,11,-1
 438.204101562 512 l 1,12,-1
 320 0 l 1,13,-1
 64 0 l 1,6,-1
EndSplineSet
Validated: 1
EndChar

StartChar: e
Encoding: 101 101 72
Width: 396
Flags: W
CounterMasks: 1 e0
LayerCount: 2
Back
Fore
SplineSet
292.938476562 160 m 1,0,-1
 307.71484375 224 l 1,1,-1
 283.102539062 256 l 1,2,-1
 155.102539062 256 l 1,3,-1
 115.71484375 224 l 1,4,-1
 100.938476562 160 l 1,5,-1
 292.938476562 160 l 1,0,-1
64 0 m 1,6,-1
 14.775390625 64 l 1,7,-1
 51.71484375 224 l 1,8,-1
 130.490234375 288 l 1,9,-1
 322.490234375 288 l 1,10,-1
 371.71484375 224 l 1,11,-1
 349.55078125 128 l 1,12,-1
 93.55078125 128 l 1,13,-1
 78.775390625 64 l 1,14,-1
 103.387695312 32 l 1,15,-1
 231.387695312 32 l 1,16,-1
 270.775390625 64 l 1,17,-1
 334.775390625 64 l 1,18,-1
 256 0 l 1,19,-1
 64 0 l 1,6,-1
EndSplineSet
Validated: 1
EndChar

StartChar: f
Encoding: 102 102 73
Width: 237
Flags: W
LayerCount: 2
Back
Fore
SplineSet
-30 -128 m 1,0,-1
 195 446 l 1,1,-1
 280 512 l 1,2,-1
 394 512 l 1,3,-1
 380 480 l 1,4,-1
 295 480 l 1,5,-1
 252 446 l 1,6,-1
 179 274 l 1,7,-1
 293 274 l 1,8,-1
 279 242 l 1,9,-1
 165 242 l 1,10,-1
 27 -128 l 1,11,-1
 -30 -128 l 1,0,-1
EndSplineSet
EndChar

StartChar: g
Encoding: 103 103 74
Width: 396
Flags: W
LayerCount: 2
Back
Fore
SplineSet
263.387695312 32 m 1,0,-1
 315.102539062 256 l 1,1,-1
 155.102539062 256 l 1,2,-1
 115.71484375 224 l 1,3,-1
 78.775390625 64 l 1,4,-1
 103.387695312 32 l 1,5,-1
 263.387695312 32 l 1,0,-1
34.44921875 -128 m 1,6,-1
 41.8369140625 -96 l 1,7,-1
 201.836914062 -96 l 1,8,-1
 241.224609375 -64 l 1,9,-1
 256 0 l 1,10,-1
 64 0 l 1,11,-1
 14.775390625 64 l 1,12,-1
 51.71484375 224 l 1,13,-1
 130.490234375 288 l 1,14,-1
 386.490234375 288 l 1,15,-1
 305.224609375 -64 l 1,16,-1
 226.44921875 -128 l 1,17,-1
 34.44921875 -128 l 1,6,-1
EndSplineSet
Validated: 1
EndChar

StartChar: h
Encoding: 104 104 75
Width: 396
Flags: W
LayerCount: 2
Back
Fore
SplineSet
0 0 m 1,0,-1
 118.204101562 512 l 1,1,-1
 182.204101562 512 l 1,2,-1
 130.490234375 288 l 1,3,-1
 322.490234375 288 l 1,4,-1
 371.71484375 224 l 1,5,-1
 320 0 l 1,6,-1
 256 0 l 1,7,-1
 307.71484375 224 l 1,8,-1
 283.102539062 256 l 1,9,-1
 123.102539062 256 l 1,10,-1
 64 0 l 1,11,-1
 0 0 l 1,0,-1
EndSplineSet
Validated: 1
EndChar

StartChar: i
Encoding: 105 105 76
Width: 140
Flags: W
HStem: 0 21G<0 64> 268 20G<0 64> 320 64<4.15674 58.8435>
VStem: 0 64<0 288 324.157 378.843>
LayerCount: 2
Back
Fore
SplineSet
0 0 m 1,0,-1
 66.490234375 288 l 1,1,-1
 130.490234375 288 l 1,2,-1
 64 0 l 1,3,-1
 0 0 l 1,0,-1
89.8779296875 320 m 2,4,5
 82.8779296875 320 82.8779296875 320 78.8017578125 324 c 0,6,7
 75.9560546875 329 75.9560546875 329 77.5712890625 336 c 2,8,-1
 84.728515625 367 l 2,9,10
 86.3447265625 374 86.3447265625 374 91.4990234375 379 c 0,11,12
 97.6533203125 384 97.6533203125 384 104.653320312 384 c 2,13,-1
 136.653320312 384 l 2,14,15
 142.653320312 384 142.653320312 384 146.499023438 379 c 256,16,17
 150.344726562 374 150.344726562 374 148.959960938 368 c 2,18,-1
 141.571289062 336 l 2,19,20
 139.956054688 329 139.956054688 329 133.801757812 324 c 0,21,22
 127.877929688 320 127.877929688 320 121.877929688 320 c 2,23,-1
 89.8779296875 320 l 2,4,5
EndSplineSet
Validated: 1
EndChar

StartChar: j
Encoding: 106 106 77
Width: 204
Flags: W
LayerCount: 2
Back
Fore
SplineSet
-61.55078125 -128 m 1,0,-1
 -54.1630859375 -96 l 1,1,-1
 9.8369140625 -96 l 1,2,-1
 49.224609375 -64 l 1,3,-1
 130.490234375 288 l 1,4,-1
 194.490234375 288 l 1,5,-1
 113.224609375 -64 l 1,6,-1
 34.44921875 -128 l 1,7,-1
 -61.55078125 -128 l 1,0,-1
153.877929688 320 m 2,8,9
 146.877929688 320 146.877929688 320 142.801757812 324 c 0,10,11
 139.956054688 329 139.956054688 329 141.571289062 336 c 2,12,-1
 148.728515625 367 l 2,13,14
 150.344726562 374 150.344726562 374 155.499023438 379 c 0,15,16
 161.653320312 384 161.653320312 384 168.653320312 384 c 2,17,-1
 200.653320312 384 l 2,18,19
 206.653320312 384 206.653320312 384 210.499023438 379 c 256,20,21
 214.344726562 374 214.344726562 374 212.959960938 368 c 2,22,-1
 205.571289062 336 l 2,23,24
 203.956054688 329 203.956054688 329 197.801757812 324 c 0,25,26
 191.877929688 320 191.877929688 320 185.877929688 320 c 2,27,-1
 153.877929688 320 l 2,8,9
EndSplineSet
Validated: 1
EndChar

StartChar: k
Encoding: 107 107 78
Width: 396
Flags: W
HStem: 0 21G<0 64 252 320> 268 20G<216 320> 492 20G<0 64>
VStem: 0 64<0 144 192 512>
DStem2: 64 192 96 160 0.894427 0.447214<0 14.3108 61.2683 214.663> 138 181 112 160 0.709052 -0.705156<0 222.646>
LayerCount: 2
Back
Fore
SplineSet
0 0 m 1,0,-1
 118.204101562 512 l 1,1,-1
 182.204101562 512 l 1,2,-1
 108.327148438 192 l 1,3,-1
 322.490234375 288 l 1,4,-1
 386.490234375 288 l 1,5,-1
 382.795898438 272 l 1,6,-1
 179.787109375 181 l 1,7,-1
 320 0 l 1,8,-1
 272 0 l 1,9,-1
 148.938476562 160 l 1,10,-1
 132.938476562 160 l 1,11,-1
 97.2451171875 144 l 1,12,-1
 64 0 l 1,13,-1
 0 0 l 1,0,-1
EndSplineSet
Validated: 1
EndChar

StartChar: l
Encoding: 108 108 79
Width: 204
Flags: W
HStem: 0 32<96 128> 492 20G<0 64>
VStem: 0 64<64 512>
LayerCount: 2
Back
Fore
SplineSet
64 0 m 1,0,-1
 14.775390625 64 l 1,1,-1
 118.204101562 512 l 1,2,-1
 182.204101562 512 l 1,3,-1
 78.775390625 64 l 1,4,-1
 103.387695312 32 l 1,5,-1
 135.387695312 32 l 1,6,-1
 128 0 l 1,7,-1
 64 0 l 1,0,-1
EndSplineSet
Validated: 1
EndChar

StartChar: m
Encoding: 109 109 80
Width: 460
Flags: W
HStem: 0 21G<0 64 160 224 320 384> 256 32<64 128 256 288>
VStem: 0 64<0 256> 160 64<0 224> 320 64<0 224>
LayerCount: 2
Back
Fore
SplineSet
0 0 m 1,0,-1
 66.490234375 288 l 1,1,-1
 226.490234375 288 l 1,2,-1
 251.102539062 256 l 1,3,-1
 290.490234375 288 l 1,4,-1
 386.490234375 288 l 1,5,-1
 435.71484375 224 l 1,6,-1
 384 0 l 1,7,-1
 320 0 l 1,8,-1
 371.71484375 224 l 1,9,-1
 347.102539062 256 l 1,10,-1
 315.102539062 256 l 1,11,-1
 275.71484375 224 l 1,12,-1
 224 0 l 1,13,-1
 160 0 l 1,14,-1
 211.71484375 224 l 1,15,-1
 187.102539062 256 l 1,16,-1
 123.102539062 256 l 1,17,-1
 64 0 l 1,18,-1
 0 0 l 1,0,-1
EndSplineSet
Validated: 1
EndChar

StartChar: n
Encoding: 110 110 81
Width: 396
Flags: W
LayerCount: 2
Back
Fore
SplineSet
0 0 m 1,0,-1
 66.490234375 288 l 1,1,-1
 322.490234375 288 l 1,2,-1
 371.71484375 224 l 1,3,-1
 320 0 l 1,4,-1
 256 0 l 1,5,-1
 307.71484375 224 l 1,6,-1
 283.102539062 256 l 1,7,-1
 123.102539062 256 l 1,8,-1
 64 0 l 1,9,-1
 0 0 l 1,0,-1
EndSplineSet
Validated: 1
EndChar

StartChar: o
Encoding: 111 111 82
Width: 396
Flags: W
LayerCount: 2
Back
Fore
SplineSet
231.387695312 32 m 1,0,-1
 270.775390625 64 l 1,1,-1
 307.71484375 224 l 1,2,-1
 283.102539062 256 l 1,3,-1
 155.102539062 256 l 1,4,-1
 115.71484375 224 l 1,5,-1
 78.775390625 64 l 1,6,-1
 103.387695312 32 l 1,7,-1
 231.387695312 32 l 1,0,-1
64 0 m 1,8,-1
 14.775390625 64 l 1,9,-1
 51.71484375 224 l 1,10,-1
 130.490234375 288 l 1,11,-1
 322.490234375 288 l 1,12,-1
 371.71484375 224 l 1,13,-1
 334.775390625 64 l 1,14,-1
 256 0 l 1,15,-1
 64 0 l 1,8,-1
EndSplineSet
Validated: 1
EndChar

StartChar: p
Encoding: 112 112 83
Width: 396
Flags: W
LayerCount: 2
Back
Fore
SplineSet
231.387695312 32 m 1,0,-1
 270.775390625 64 l 1,1,-1
 307.71484375 224 l 1,2,-1
 283.102539062 256 l 1,3,-1
 123.102539062 256 l 1,4,-1
 71.3876953125 32 l 1,5,-1
 231.387695312 32 l 1,0,-1
-29.55078125 -128 m 1,6,-1
 66.490234375 288 l 1,7,-1
 322.490234375 288 l 1,8,-1
 371.71484375 224 l 1,9,-1
 334.775390625 64 l 1,10,-1
 256 0 l 1,11,-1
 64 0 l 1,12,-1
 34.44921875 -128 l 1,13,-1
 -29.55078125 -128 l 1,6,-1
EndSplineSet
Validated: 1
EndChar

StartChar: q
Encoding: 113 113 84
Width: 396
Flags: W
LayerCount: 2
Back
Fore
SplineSet
263.387695312 32 m 1,0,-1
 315.102539062 256 l 1,1,-1
 155.102539062 256 l 1,2,-1
 115.71484375 224 l 1,3,-1
 78.775390625 64 l 1,4,-1
 103.387695312 32 l 1,5,-1
 263.387695312 32 l 1,0,-1
226.44921875 -128 m 1,6,-1
 256 0 l 1,7,-1
 64 0 l 1,8,-1
 14.775390625 64 l 1,9,-1
 51.71484375 224 l 1,10,-1
 130.490234375 288 l 1,11,-1
 386.490234375 288 l 1,12,-1
 290.44921875 -128 l 1,13,-1
 226.44921875 -128 l 1,6,-1
EndSplineSet
Validated: 1
EndChar

StartChar: r
Encoding: 114 114 85
Width: 396
Flags: W
LayerCount: 2
Back
Fore
SplineSet
0 0 m 1,0,-1
 66.490234375 288 l 1,1,-1
 322.490234375 288 l 1,2,-1
 371.71484375 224 l 1,3,-1
 307.71484375 224 l 1,4,-1
 283.102539062 256 l 1,5,-1
 123.102539062 256 l 1,6,-1
 64 0 l 1,7,-1
 0 0 l 1,0,-1
EndSplineSet
Validated: 1
EndChar

StartChar: s
Encoding: 115 115 86
Width: 396
Flags: W
CounterMasks: 1 e0
LayerCount: 2
Back
Fore
SplineSet
64 0 m 1,0,-1
 14.775390625 64 l 1,1,-1
 78.775390625 64 l 1,2,-1
 103.387695312 32 l 1,3,-1
 231.387695312 32 l 1,4,-1
 270.775390625 64 l 1,5,-1
 278.163085938 96 l 1,6,-1
 253.55078125 128 l 1,7,-1
 61.55078125 128 l 1,8,-1
 36.9384765625 160 l 1,9,-1
 51.71484375 224 l 1,10,-1
 130.490234375 288 l 1,11,-1
 322.490234375 288 l 1,12,-1
 371.71484375 224 l 1,13,-1
 307.71484375 224 l 1,14,-1
 283.102539062 256 l 1,15,-1
 155.102539062 256 l 1,16,-1
 115.71484375 224 l 1,17,-1
 108.327148438 192 l 1,18,-1
 132.938476562 160 l 1,19,-1
 324.938476562 160 l 1,20,-1
 349.55078125 128 l 1,21,-1
 334.775390625 64 l 1,22,-1
 256 0 l 1,23,-1
 64 0 l 1,0,-1
EndSplineSet
Validated: 1
EndChar

StartChar: t
Encoding: 116 116 87
Width: 236
Flags: W
LayerCount: 2
Back
Fore
SplineSet
64 0 m 1,0,-1
 14.775390625 64 l 1,1,-1
 81.265625 352 l 1,2,-1
 145.265625 352 l 1,3,-1
 130.490234375 288 l 1,4,-1
 226.490234375 288 l 1,5,-1
 219.102539062 256 l 1,6,-1
 123.102539062 256 l 1,7,-1
 78.775390625 64 l 1,8,-1
 103.387695312 32 l 1,9,-1
 167.387695312 32 l 1,10,-1
 160 0 l 1,11,-1
 64 0 l 1,0,-1
EndSplineSet
Validated: 1
EndChar

StartChar: u
Encoding: 117 117 88
Width: 396
Flags: W
LayerCount: 2
Back
Fore
SplineSet
64 0 m 1,0,-1
 14.775390625 64 l 1,1,-1
 66.490234375 288 l 1,2,-1
 130.490234375 288 l 1,3,-1
 78.775390625 64 l 1,4,-1
 103.387695312 32 l 1,5,-1
 263.387695312 32 l 1,6,-1
 322.490234375 288 l 1,7,-1
 386.490234375 288 l 1,8,-1
 320 0 l 1,9,-1
 64 0 l 1,0,-1
EndSplineSet
Validated: 1
EndChar

StartChar: v
Encoding: 118 118 89
Width: 364
Flags: W
LayerCount: 2
Back
Fore
SplineSet
64 0 m 1,0,-1
 14.775390625 64 l 1,1,-1
 66.490234375 288 l 1,2,-1
 130.490234375 288 l 1,3,-1
 78.775390625 64 l 1,4,-1
 103.387695312 32 l 1,5,-1
 135.387695312 32 l 1,6,-1
 322.490234375 288 l 1,7,-1
 354.490234375 288 l 1,8,-1
 144 0 l 1,9,-1
 64 0 l 1,0,-1
EndSplineSet
Validated: 1
EndChar

StartChar: w
Encoding: 119 119 90
Width: 492
Flags: W
LayerCount: 2
Back
Fore
SplineSet
0 0 m 1,0,-1
 66.490234375 288 l 1,1,-1
 130.490234375 288 l 1,2,-1
 71.3876953125 32 l 1,3,-1
 258.490234375 288 l 1,4,-1
 322.490234375 288 l 1,5,-1
 263.387695312 32 l 1,6,-1
 450.490234375 288 l 1,7,-1
 482.490234375 288 l 1,8,-1
 272 0 l 1,9,-1
 192 0 l 1,10,-1
 243.71484375 224 l 1,11,-1
 80 0 l 1,12,-1
 0 0 l 1,0,-1
EndSplineSet
Validated: 1
EndChar

StartChar: x
Encoding: 120 120 91
Width: 396
Flags: W
LayerCount: 2
Back
Fore
SplineSet
0 0 m 1,0,-1
 22.1630859375 96 l 1,1,-1
 100.938476562 160 l 1,2,-1
 51.71484375 224 l 1,3,-1
 66.490234375 288 l 1,4,-1
 130.490234375 288 l 1,5,-1
 115.71484375 224 l 1,6,-1
 152.6328125 176 l 1,7,-1
 248.6328125 176 l 1,8,-1
 307.71484375 224 l 1,9,-1
 322.490234375 288 l 1,10,-1
 386.490234375 288 l 1,11,-1
 371.71484375 224 l 1,12,-1
 292.938476562 160 l 1,13,-1
 342.163085938 96 l 1,14,-1
 320 0 l 1,15,-1
 256 0 l 1,16,-1
 278.163085938 96 l 1,17,-1
 241.245117188 144 l 1,18,-1
 145.245117188 144 l 1,19,-1
 86.1630859375 96 l 1,20,-1
 64 0 l 1,21,-1
 0 0 l 1,0,-1
EndSplineSet
Validated: 1
EndChar

StartChar: y
Encoding: 121 121 92
Width: 396
Flags: W
LayerCount: 2
Back
Fore
SplineSet
34.44921875 -128 m 1,0,-1
 41.8369140625 -96 l 1,1,-1
 201.836914062 -96 l 1,2,-1
 241.224609375 -64 l 1,3,-1
 256 0 l 1,4,-1
 64 0 l 1,5,-1
 14.775390625 64 l 1,6,-1
 66.490234375 288 l 1,7,-1
 130.490234375 288 l 1,8,-1
 78.775390625 64 l 1,9,-1
 103.387695312 32 l 1,10,-1
 263.387695312 32 l 1,11,-1
 322.490234375 288 l 1,12,-1
 386.490234375 288 l 1,13,-1
 305.224609375 -64 l 1,14,-1
 226.44921875 -128 l 1,15,-1
 34.44921875 -128 l 1,0,-1
EndSplineSet
Validated: 1
EndChar

StartChar: z
Encoding: 122 122 93
Width: 396
Flags: W
LayerCount: 2
Back
Fore
SplineSet
0 0 m 1,0,-1
 3.6943359375 16 l 1,1,-1
 299.102539062 256 l 1,2,-1
 59.1025390625 256 l 1,3,-1
 66.490234375 288 l 1,4,-1
 386.490234375 288 l 1,5,-1
 379.102539062 256 l 1,6,-1
 103.387695312 32 l 1,7,-1
 327.387695312 32 l 1,8,-1
 320 0 l 1,9,-1
 0 0 l 1,0,-1
EndSplineSet
Validated: 1
EndChar

StartChar: braceleft
Encoding: 123 123 94
Width: 268
Flags: W
LayerCount: 2
Back
Fore
SplineSet
120.612304688 -32 m 1,0,-1
 71.3876953125 32 l 1,1,-1
 108.327148438 192 l 1,2,-1
 59.1025390625 256 l 1,3,-1
 137.877929688 320 l 1,4,-1
 174.81640625 480 l 1,5,-1
 253.592773438 544 l 1,6,-1
 317.592773438 544 l 1,7,-1
 310.204101562 512 l 1,8,-1
 278.204101562 512 l 1,9,-1
 238.81640625 480 l 1,10,-1
 201.877929688 320 l 1,11,-1
 123.102539062 256 l 1,12,-1
 172.327148438 192 l 1,13,-1
 135.387695312 32 l 1,14,-1
 160 0 l 1,15,-1
 192 0 l 1,16,-1
 184.612304688 -32 l 1,17,-1
 120.612304688 -32 l 1,0,-1
EndSplineSet
Validated: 1
EndChar

StartChar: bar
Encoding: 124 124 95
Width: 140
Flags: W
LayerCount: 2
Back
Fore
SplineSet
-7.3876953125 -32 m 1,0,-1
 125.592773438 544 l 1,1,-1
 189.592773438 544 l 1,2,-1
 56.6123046875 -32 l 1,3,-1
 -7.3876953125 -32 l 1,0,-1
EndSplineSet
Validated: 1
EndChar

StartChar: braceright
Encoding: 125 125 96
Width: 268
Flags: W
LayerCount: 2
Back
Fore
SplineSet
-7.3876953125 -32 m 1,0,-1
 0 0 l 1,1,-1
 32 0 l 1,2,-1
 71.3876953125 32 l 1,3,-1
 108.327148438 192 l 1,4,-1
 187.102539062 256 l 1,5,-1
 137.877929688 320 l 1,6,-1
 174.81640625 480 l 1,7,-1
 150.204101562 512 l 1,8,-1
 118.204101562 512 l 1,9,-1
 125.592773438 544 l 1,10,-1
 189.592773438 544 l 1,11,-1
 238.81640625 480 l 1,12,-1
 201.877929688 320 l 1,13,-1
 251.102539062 256 l 1,14,-1
 172.327148438 192 l 1,15,-1
 135.387695312 32 l 1,16,-1
 56.6123046875 -32 l 1,17,-1
 -7.3876953125 -32 l 1,0,-1
EndSplineSet
Validated: 1
EndChar

StartChar: asciitilde
Encoding: 126 126 97
Width: 364
Flags: W
LayerCount: 2
Back
Fore
SplineSet
265.877929688 320 m 1,0,-1
 166.806640625 376 l 1,1,-1
 77.5712890625 336 l 1,2,-1
 84.9599609375 368 l 1,3,-1
 192.041015625 416 l 1,4,-1
 291.112304688 360 l 1,5,-1
 380.34765625 400 l 1,6,-1
 372.959960938 368 l 1,7,-1
 265.877929688 320 l 1,8,-1
 265.877929688 320 l 1,0,-1
EndSplineSet
Validated: 5
EndChar

StartChar: exclamdown
Encoding: 161 161 98
Width: 140
Flags: W
LayerCount: 2
Back
Fore
SplineSet
0 0 m 1,0,-1
 96.041015625 416 l 1,1,-1
 160.041015625 416 l 1,2,-1
 64 0 l 1,3,-1
 0 0 l 1,0,-1
119.428710938 448 m 2,4,5
 112.428710938 448 112.428710938 448 108.352539062 452 c 0,6,7
 105.506835938 457 105.506835938 457 107.123046875 464 c 2,8,-1
 114.279296875 495 l 2,9,10
 115.895507812 502 115.895507812 502 121.049804688 507 c 0,11,12
 127.204101562 512 127.204101562 512 134.204101562 512 c 2,13,-1
 166.204101562 512 l 2,14,15
 172.204101562 512 172.204101562 512 176.049804688 507 c 256,16,17
 179.895507812 502 179.895507812 502 178.510742188 496 c 2,18,-1
 171.123046875 464 l 2,19,20
 169.506835938 457 169.506835938 457 163.352539062 452 c 0,21,22
 157.428710938 448 157.428710938 448 151.428710938 448 c 2,23,-1
 119.428710938 448 l 2,4,5
EndSplineSet
Validated: 1
EndChar

StartChar: cent
Encoding: 162 162 99
Width: 396
Flags: W
CounterMasks: 1 0e
LayerCount: 2
Back
Fore
SplineSet
128 0 m 1,0,-1
 142.775390625 64 l 1,1,-1
 78.775390625 64 l 1,2,-1
 29.55078125 128 l 1,3,-1
 66.490234375 288 l 1,4,-1
 145.265625 352 l 1,5,-1
 209.265625 352 l 1,6,-1
 224.041015625 416 l 1,7,-1
 288.041015625 416 l 1,8,-1
 273.265625 352 l 1,9,-1
 337.265625 352 l 1,10,-1
 386.490234375 288 l 1,11,-1
 379.102539062 256 l 1,12,-1
 315.102539062 256 l 1,13,-1
 322.490234375 288 l 1,14,-1
 297.877929688 320 l 1,15,-1
 169.877929688 320 l 1,16,-1
 130.490234375 288 l 1,17,-1
 93.55078125 128 l 1,18,-1
 118.163085938 96 l 1,19,-1
 246.163085938 96 l 1,20,-1
 285.55078125 128 l 1,21,-1
 349.55078125 128 l 1,22,-1
 270.775390625 64 l 1,23,-1
 206.775390625 64 l 1,24,-1
 192 0 l 1,25,-1
 128 0 l 1,0,-1
EndSplineSet
Validated: 1
EndChar

StartChar: sterling
Encoding: 163 163 100
Width: 332
Flags: W
LayerCount: 2
Back
Fore
SplineSet
0 0 m 1,0,-1
 7.3876953125 32 l 1,1,-1
 71.3876953125 32 l 1,2,-1
 123.102539062 256 l 1,3,-1
 91.1025390625 256 l 1,4,-1
 98.490234375 288 l 1,5,-1
 130.490234375 288 l 1,6,-1
 167.428710938 448 l 1,7,-1
 246.204101562 512 l 1,8,-1
 374.204101562 512 l 1,9,-1
 366.81640625 480 l 1,10,-1
 270.81640625 480 l 1,11,-1
 231.428710938 448 l 1,12,-1
 194.490234375 288 l 1,13,-1
 322.490234375 288 l 1,14,-1
 315.102539062 256 l 1,15,-1
 187.102539062 256 l 1,16,-1
 135.387695312 32 l 1,17,-1
 263.387695312 32 l 1,18,-1
 256 0 l 1,19,-1
 0 0 l 1,0,-1
EndSplineSet
Validated: 1
EndChar

StartChar: currency
Encoding: 164 164 101
Width: 332
Flags: W
LayerCount: 2
Back
Fore
SplineSet
204.327148438 192 m 1,0,-1
 233.877929688 320 l 1,1,-1
 169.877929688 320 l 1,2,-1
 140.327148438 192 l 1,3,-1
 204.327148438 192 l 1,0,-1
29.55078125 128 m 1,4,-1
 33.2451171875 144 l 1,5,-1
 72.6328125 176 l 1,6,-1
 102.18359375 304 l 1,7,-1
 77.5712890625 336 l 1,8,-1
 88.6533203125 384 l 1,9,-1
 136.653320312 384 l 1,10,-1
 161.265625 352 l 1,11,-1
 289.265625 352 l 1,12,-1
 328.653320312 384 l 1,13,-1
 344.653320312 384 l 1,14,-1
 337.265625 352 l 1,15,-1
 297.877929688 320 l 1,16,-1
 272.020507812 208 l 1,17,-1
 296.6328125 176 l 1,18,-1
 285.55078125 128 l 1,19,-1
 237.55078125 128 l 1,20,-1
 212.938476562 160 l 1,21,-1
 100.938476562 160 l 1,22,-1
 61.55078125 128 l 1,23,-1
 29.55078125 128 l 1,4,-1
EndSplineSet
Validated: 1
EndChar

StartChar: yen
Encoding: 165 165 102
Width: 396
Flags: W
LayerCount: 2
Back
Fore
SplineSet
128 0 m 1,0,-1
 142.775390625 64 l 1,1,-1
 46.775390625 64 l 1,2,-1
 54.1630859375 96 l 1,3,-1
 150.163085938 96 l 1,4,-1
 157.55078125 128 l 1,5,-1
 61.55078125 128 l 1,6,-1
 68.9384765625 160 l 1,7,-1
 164.938476562 160 l 1,8,-1
 179.71484375 224 l 1,9,-1
 110.81640625 480 l 1,10,-1
 158.81640625 480 l 1,11,-1
 219.102539062 256 l 1,12,-1
 382.81640625 480 l 1,13,-1
 430.81640625 480 l 1,14,-1
 243.71484375 224 l 1,15,-1
 228.938476562 160 l 1,16,-1
 324.938476562 160 l 1,17,-1
 317.55078125 128 l 1,18,-1
 221.55078125 128 l 1,19,-1
 214.163085938 96 l 1,20,-1
 310.163085938 96 l 1,21,-1
 302.775390625 64 l 1,22,-1
 206.775390625 64 l 1,23,-1
 192 0 l 1,24,-1
 128 0 l 1,0,-1
EndSplineSet
Validated: 1
EndChar

StartChar: brokenbar
Encoding: 166 166 103
Width: 140
Flags: W
LayerCount: 2
Back
Fore
SplineSet
-7.3876953125 -32 m 1,0,-1
 51.71484375 224 l 1,1,-1
 115.71484375 224 l 1,2,-1
 56.6123046875 -32 l 1,3,-1
 -7.3876953125 -32 l 1,0,-1
66.490234375 288 m 1,4,-1
 125.592773438 544 l 1,5,-1
 189.592773438 544 l 1,6,-1
 130.490234375 288 l 1,7,-1
 66.490234375 288 l 1,4,-1
EndSplineSet
Validated: 1
EndChar

StartChar: section
Encoding: 167 167 104
Width: 332
Flags: W
LayerCount: 2
Back
Fore
SplineSet
221.55078125 128 m 1,0,-1
 265.877929688 320 l 1,1,-1
 241.265625 352 l 1,2,-1
 145.265625 352 l 1,3,-1
 100.938476562 160 l 1,4,-1
 125.55078125 128 l 1,5,-1
 221.55078125 128 l 1,0,-1
49.224609375 -64 m 1,6,-1
 56.6123046875 -32 l 1,7,-1
 152.612304688 -32 l 1,8,-1
 192 0 l 1,9,-1
 214.163085938 96 l 1,10,-1
 86.1630859375 96 l 1,11,-1
 36.9384765625 160 l 1,12,-1
 110.81640625 480 l 1,13,-1
 189.592773438 544 l 1,14,-1
 317.592773438 544 l 1,15,-1
 310.204101562 512 l 1,16,-1
 214.204101562 512 l 1,17,-1
 174.81640625 480 l 1,18,-1
 152.653320312 384 l 1,19,-1
 280.653320312 384 l 1,20,-1
 329.877929688 320 l 1,21,-1
 256 0 l 1,22,-1
 177.224609375 -64 l 1,23,-1
 49.224609375 -64 l 1,6,-1
EndSplineSet
Validated: 1
EndChar

StartChar: dieresis
Encoding: 168 168 105
Width: 332
Flags: W
LayerCount: 2
Back
Fore
SplineSet
153.877929688 320 m 2,0,1
 146.877929688 320 146.877929688 320 142.801757812 324 c 0,2,3
 139.956054688 329 139.956054688 329 141.571289062 336 c 2,4,-1
 148.728515625 367 l 2,5,6
 150.344726562 374 150.344726562 374 155.499023438 379 c 0,7,8
 161.653320312 384 161.653320312 384 168.653320312 384 c 2,9,-1
 200.653320312 384 l 2,10,11
 206.653320312 384 206.653320312 384 210.499023438 379 c 256,12,13
 214.344726562 374 214.344726562 374 212.959960938 368 c 2,14,-1
 205.571289062 336 l 2,15,16
 203.956054688 329 203.956054688 329 197.801757812 324 c 0,17,18
 191.877929688 320 191.877929688 320 185.877929688 320 c 2,19,-1
 153.877929688 320 l 2,0,1
281.877929688 320 m 2,20,21
 274.877929688 320 274.877929688 320 270.801757812 324 c 0,22,23
 267.956054688 329 267.956054688 329 269.571289062 336 c 2,24,-1
 276.728515625 367 l 2,25,26
 278.344726562 374 278.344726562 374 283.499023438 379 c 0,27,28
 289.653320312 384 289.653320312 384 296.653320312 384 c 2,29,-1
 328.653320312 384 l 2,30,31
 334.653320312 384 334.653320312 384 338.499023438 379 c 256,32,33
 342.344726562 374 342.344726562 374 340.959960938 368 c 2,34,-1
 333.571289062 336 l 2,35,36
 331.956054688 329 331.956054688 329 325.801757812 324 c 0,37,38
 319.877929688 320 319.877929688 320 313.877929688 320 c 2,39,-1
 281.877929688 320 l 2,20,21
EndSplineSet
Validated: 1
EndChar

StartChar: copyright
Encoding: 169 169 106
Width: 396
Flags: W
LayerCount: 2
Back
Fore
SplineSet
164.938476562 160 m 1,0,-1
 140.327148438 192 l 1,1,-1
 177.265625 352 l 1,2,-1
 216.653320312 384 l 1,3,-1
 280.653320312 384 l 1,4,-1
 305.265625 352 l 1,5,-1
 297.877929688 320 l 1,6,-1
 265.877929688 320 l 1,7,-1
 241.265625 352 l 1,8,-1
 201.877929688 320 l 1,9,-1
 179.71484375 224 l 1,10,-1
 204.327148438 192 l 1,11,-1
 243.71484375 224 l 1,12,-1
 275.71484375 224 l 1,13,-1
 268.327148438 192 l 1,14,-1
 228.938476562 160 l 1,15,-1
 164.938476562 160 l 1,0,-1
253.55078125 128 m 1,16,-1
 292.938476562 160 l 1,17,-1
 344.653320312 384 l 1,18,-1
 320.041015625 416 l 1,19,-1
 192.041015625 416 l 1,20,-1
 152.653320312 384 l 1,21,-1
 100.938476562 160 l 1,22,-1
 125.55078125 128 l 1,23,-1
 253.55078125 128 l 1,16,-1
86.1630859375 96 m 1,24,-1
 36.9384765625 160 l 1,25,-1
 88.6533203125 384 l 1,26,-1
 167.428710938 448 l 1,27,-1
 359.428710938 448 l 1,28,-1
 408.653320312 384 l 1,29,-1
 356.938476562 160 l 1,30,-1
 278.163085938 96 l 1,31,-1
 86.1630859375 96 l 1,24,-1
EndSplineSet
Validated: 1
EndChar

StartChar: ordfeminine
Encoding: 170 170 107
Width: 236
Flags: W
CounterMasks: 1 e0
LayerCount: 2
Back
Fore
SplineSet
216.653320312 384 m 1,0,-1
 224.041015625 416 l 1,1,-1
 144.041015625 416 l 1,2,-1
 124.34765625 400 l 1,3,-1
 136.653320312 384 l 1,4,-1
 216.653320312 384 l 1,0,-1
113.265625 352 m 1,5,-1
 88.6533203125 384 l 1,6,-1
 96.041015625 416 l 1,7,-1
 135.428710938 448 l 1,8,-1
 231.428710938 448 l 1,9,-1
 206.81640625 480 l 1,10,-1
 110.81640625 480 l 1,11,-1
 118.204101562 512 l 1,12,-1
 246.204101562 512 l 1,13,-1
 270.81640625 480 l 1,14,-1
 241.265625 352 l 1,15,-1
 113.265625 352 l 1,5,-1
EndSplineSet
Validated: 1
EndChar

StartChar: guillemotleft
Encoding: 171 171 108
Width: 364
Flags: W
LayerCount: 2
Back
Fore
SplineSet
110.775390625 64 m 1,0,-1
 59.1025390625 256 l 1,1,-1
 176.041015625 416 l 1,2,-1
 240.041015625 416 l 1,3,-1
 99.71484375 224 l 1,4,-1
 142.775390625 64 l 1,5,-1
 110.775390625 64 l 1,0,-1
238.775390625 64 m 1,6,-1
 187.102539062 256 l 1,7,-1
 304.041015625 416 l 1,8,-1
 368.041015625 416 l 1,9,-1
 227.71484375 224 l 1,10,-1
 270.775390625 64 l 1,11,-1
 238.775390625 64 l 1,6,-1
EndSplineSet
Validated: 1
EndChar

StartChar: logicalnot
Encoding: 172 172 109
Width: 460
Flags: W
LayerCount: 2
Back
Fore
SplineSet
334.775390625 64 m 1,0,-1
 371.71484375 224 l 1,1,-1
 51.71484375 224 l 1,2,-1
 59.1025390625 256 l 1,3,-1
 443.102539062 256 l 1,4,-1
 398.775390625 64 l 1,5,-1
 334.775390625 64 l 1,0,-1
EndSplineSet
Validated: 1
EndChar

StartChar: registered
Encoding: 174 174 110
Width: 396
Flags: W
LayerCount: 2
Back
Fore
SplineSet
258.490234375 288 m 1,0,-1
 265.877929688 320 l 1,1,-1
 241.265625 352 l 1,2,-1
 209.265625 352 l 1,3,-1
 194.490234375 288 l 1,4,-1
 258.490234375 288 l 1,0,-1
132.938476562 160 m 1,5,-1
 184.653320312 384 l 1,6,-1
 280.653320312 384 l 1,7,-1
 305.265625 352 l 1,8,-1
 290.490234375 288 l 1,9,-1
 251.102539062 256 l 1,10,-1
 275.71484375 224 l 1,11,-1
 260.938476562 160 l 1,12,-1
 228.938476562 160 l 1,13,-1
 243.71484375 224 l 1,14,-1
 219.102539062 256 l 1,15,-1
 187.102539062 256 l 1,16,-1
 164.938476562 160 l 1,17,-1
 132.938476562 160 l 1,5,-1
253.55078125 128 m 1,18,-1
 292.938476562 160 l 1,19,-1
 344.653320312 384 l 1,20,-1
 320.041015625 416 l 1,21,-1
 192.041015625 416 l 1,22,-1
 152.653320312 384 l 1,23,-1
 100.938476562 160 l 1,24,-1
 125.55078125 128 l 1,25,-1
 253.55078125 128 l 1,18,-1
86.1630859375 96 m 1,26,-1
 36.9384765625 160 l 1,27,-1
 88.6533203125 384 l 1,28,-1
 167.428710938 448 l 1,29,-1
 359.428710938 448 l 1,30,-1
 408.653320312 384 l 1,31,-1
 356.938476562 160 l 1,32,-1
 278.163085938 96 l 1,33,-1
 86.1630859375 96 l 1,26,-1
EndSplineSet
Validated: 1
EndChar

StartChar: macron
Encoding: 175 175 111
Width: 332
Flags: W
LayerCount: 2
Back
Fore
SplineSet
189.592773438 544 m 1,0,-1
 196.98046875 576 l 1,1,-1
 388.98046875 576 l 1,2,-1
 381.592773438 544 l 1,3,-1
 189.592773438 544 l 1,0,-1
EndSplineSet
Validated: 1
EndChar

StartChar: degree
Encoding: 176 176 112
Width: 236
Flags: W
LayerCount: 2
Back
Fore
SplineSet
184.653320312 384 m 1,0,-1
 224.041015625 416 l 1,1,-1
 231.428710938 448 l 1,2,-1
 206.81640625 480 l 1,3,-1
 174.81640625 480 l 1,4,-1
 135.428710938 448 l 1,5,-1
 128.041015625 416 l 1,6,-1
 152.653320312 384 l 1,7,-1
 184.653320312 384 l 1,0,-1
113.265625 352 m 1,8,-1
 88.6533203125 384 l 1,9,-1
 110.81640625 480 l 1,10,-1
 150.204101562 512 l 1,11,-1
 246.204101562 512 l 1,12,-1
 270.81640625 480 l 1,13,-1
 248.653320312 384 l 1,14,-1
 209.265625 352 l 1,15,-1
 113.265625 352 l 1,8,-1
EndSplineSet
Validated: 1
EndChar

StartChar: plusminus
Encoding: 177 177 113
Width: 332
Flags: W
LayerCount: 2
Back
Fore
SplineSet
22.1630859375 96 m 1,0,-1
 29.55078125 128 l 1,1,-1
 285.55078125 128 l 1,2,-1
 278.163085938 96 l 1,3,-1
 22.1630859375 96 l 1,0,-1
129.245117188 144 m 1,4,-1
 155.102539062 256 l 1,5,-1
 59.1025390625 256 l 1,6,-1
 66.490234375 288 l 1,7,-1
 162.490234375 288 l 1,8,-1
 188.34765625 400 l 1,9,-1
 252.34765625 400 l 1,10,-1
 226.490234375 288 l 1,11,-1
 322.490234375 288 l 1,12,-1
 315.102539062 256 l 1,13,-1
 219.102539062 256 l 1,14,-1
 193.245117188 144 l 1,15,-1
 129.245117188 144 l 1,4,-1
EndSplineSet
Validated: 1
EndChar

StartChar: uni00B2
Encoding: 178 178 114
Width: 236
Flags: W
CounterMasks: 1 e0
LayerCount: 2
Back
Fore
SplineSet
81.265625 352 m 1,0,-1
 96.041015625 416 l 1,1,-1
 135.428710938 448 l 1,2,-1
 231.428710938 448 l 1,3,-1
 206.81640625 480 l 1,4,-1
 110.81640625 480 l 1,5,-1
 118.204101562 512 l 1,6,-1
 246.204101562 512 l 1,7,-1
 270.81640625 480 l 1,8,-1
 256.041015625 416 l 1,9,-1
 144.041015625 416 l 1,10,-1
 124.34765625 400 l 1,11,-1
 136.653320312 384 l 1,12,-1
 248.653320312 384 l 1,13,-1
 241.265625 352 l 1,14,-1
 81.265625 352 l 1,0,-1
EndSplineSet
Validated: 1
EndChar

StartChar: uni00B3
Encoding: 179 179 115
Width: 236
Flags: W
CounterMasks: 1 e0
LayerCount: 2
Back
Fore
SplineSet
81.265625 352 m 1,0,-1
 88.6533203125 384 l 1,1,-1
 184.653320312 384 l 1,2,-1
 224.041015625 416 l 1,3,-1
 128.041015625 416 l 1,4,-1
 135.428710938 448 l 1,5,-1
 231.428710938 448 l 1,6,-1
 206.81640625 480 l 1,7,-1
 110.81640625 480 l 1,8,-1
 118.204101562 512 l 1,9,-1
 246.204101562 512 l 1,10,-1
 270.81640625 480 l 1,11,-1
 263.428710938 448 l 1,12,-1
 262.428710938 448 l 1,13,-1
 243.735351562 432 l 1,14,-1
 256.041015625 416 l 1,15,-1
 248.653320312 384 l 1,16,-1
 209.265625 352 l 1,17,-1
 81.265625 352 l 1,0,-1
EndSplineSet
Validated: 1
EndChar

StartChar: acute
Encoding: 180 180 116
Width: 332
Flags: W
LayerCount: 2
Back
Fore
SplineSet
137.877929688 320 m 1,0,-1
 145.265625 352 l 1,1,-1
 323.735351562 432 l 1,2,-1
 355.735351562 432 l 1,3,-1
 348.34765625 400 l 1,4,-1
 169.877929688 320 l 1,5,-1
 137.877929688 320 l 1,0,-1
EndSplineSet
Validated: 1
EndChar

StartChar: mu
Encoding: 181 181 117
Width: 396
Flags: W
LayerCount: 2
Back
Fore
SplineSet
-29.55078125 -128 m 1,0,-1
 66.490234375 288 l 1,1,-1
 130.490234375 288 l 1,2,-1
 93.55078125 128 l 1,3,-1
 167.387695312 32 l 1,4,-1
 263.387695312 32 l 1,5,-1
 322.490234375 288 l 1,6,-1
 386.490234375 288 l 1,7,-1
 320 0 l 1,8,-1
 128 0 l 1,9,-1
 78.775390625 64 l 1,10,-1
 34.44921875 -128 l 1,11,-1
 -29.55078125 -128 l 1,0,-1
EndSplineSet
Validated: 1
EndChar

StartChar: paragraph
Encoding: 182 182 118
Width: 396
Flags: W
LayerCount: 2
Back
Fore
SplineSet
251.102539062 256 m 1,0,-1
 302.81640625 480 l 1,1,-1
 206.81640625 480 l 1,2,-1
 167.428710938 448 l 1,3,-1
 130.490234375 288 l 1,4,-1
 155.102539062 256 l 1,5,-1
 251.102539062 256 l 1,0,-1
192 0 m 1,6,-1
 243.71484375 224 l 1,7,-1
 115.71484375 224 l 1,8,-1
 66.490234375 288 l 1,9,-1
 103.428710938 448 l 1,10,-1
 182.204101562 512 l 1,11,-1
 342.204101562 512 l 1,12,-1
 224 0 l 1,13,-1
 192 0 l 1,6,-1
256 0 m 1,14,-1
 374.204101562 512 l 1,15,-1
 438.204101562 512 l 1,16,-1
 320 0 l 1,17,-1
 256 0 l 1,14,-1
EndSplineSet
Validated: 1
EndChar

StartChar: periodcentered
Encoding: 183 183 119
Width: 140
Flags: W
LayerCount: 2
Back
Fore
SplineSet
67.71484375 224 m 2,0,1
 60.71484375 224 60.71484375 224 56.6376953125 228 c 0,2,3
 53.7919921875 233 53.7919921875 233 55.408203125 240 c 2,4,-1
 62.5654296875 271 l 2,5,6
 64.181640625 278 64.181640625 278 69.3359375 283 c 0,7,8
 75.490234375 288 75.490234375 288 82.490234375 288 c 2,9,-1
 114.490234375 288 l 2,10,11
 120.490234375 288 120.490234375 288 124.3359375 283 c 256,12,13
 128.181640625 278 128.181640625 278 126.795898438 272 c 2,14,-1
 119.408203125 240 l 2,15,16
 117.791992188 233 117.791992188 233 111.637695312 228 c 0,17,18
 105.71484375 224 105.71484375 224 99.71484375 224 c 2,19,-1
 67.71484375 224 l 2,0,1
EndSplineSet
Validated: 1
EndChar

StartChar: cedilla
Encoding: 184 184 120
Width: 300
Flags: W
LayerCount: 2
Back
Fore
SplineSet
102.142578125 -112 m 1,0,-1
 105.836914062 -96 l 1,1,-1
 177.224609375 -64 l 1,2,-1
 180.91796875 -48 l 1,3,-1
 124.305664062 -16 l 1,4,-1
 128 0 l 1,5,-1
 160 0 l 1,6,-1
 216.612304688 -32 l 1,7,-1
 205.530273438 -80 l 1,8,-1
 134.142578125 -112 l 1,9,-1
 102.142578125 -112 l 1,0,-1
EndSplineSet
Validated: 1
EndChar

StartChar: uni00B9
Encoding: 185 185 121
Width: 172
Flags: W
LayerCount: 2
Back
Fore
SplineSet
145.265625 352 m 1,0,-1
 167.428710938 448 l 1,1,-1
 135.428710938 448 l 1,2,-1
 214.204101562 512 l 1,3,-1
 177.265625 352 l 1,4,-1
 145.265625 352 l 1,0,-1
EndSplineSet
Validated: 1
EndChar

StartChar: ordmasculine
Encoding: 186 186 122
Width: 236
Flags: W
LayerCount: 2
Back
Fore
SplineSet
184.653320312 384 m 1,0,-1
 224.041015625 416 l 1,1,-1
 231.428710938 448 l 1,2,-1
 206.81640625 480 l 1,3,-1
 174.81640625 480 l 1,4,-1
 135.428710938 448 l 1,5,-1
 128.041015625 416 l 1,6,-1
 152.653320312 384 l 1,7,-1
 184.653320312 384 l 1,0,-1
113.265625 352 m 1,8,-1
 88.6533203125 384 l 1,9,-1
 110.81640625 480 l 1,10,-1
 150.204101562 512 l 1,11,-1
 246.204101562 512 l 1,12,-1
 270.81640625 480 l 1,13,-1
 248.653320312 384 l 1,14,-1
 209.265625 352 l 1,15,-1
 113.265625 352 l 1,8,-1
EndSplineSet
Validated: 1
EndChar

StartChar: guillemotright
Encoding: 187 187 123
Width: 364
Flags: W
LayerCount: 2
Back
Fore
SplineSet
30.775390625 64 m 1,0,-1
 171.102539062 256 l 1,1,-1
 128.041015625 416 l 1,2,-1
 160.041015625 416 l 1,3,-1
 211.71484375 224 l 1,4,-1
 94.775390625 64 l 1,5,-1
 30.775390625 64 l 1,0,-1
158.775390625 64 m 1,6,-1
 299.102539062 256 l 1,7,-1
 256.041015625 416 l 1,8,-1
 288.041015625 416 l 1,9,-1
 339.71484375 224 l 1,10,-1
 222.775390625 64 l 1,11,-1
 158.775390625 64 l 1,6,-1
EndSplineSet
Validated: 1
EndChar

StartChar: onequarter
Encoding: 188 188 124
Width: 428
Flags: W
LayerCount: 2
Back
Fore
SplineSet
302.775390625 64 m 1,0,-1
 317.55078125 128 l 1,1,-1
 238.775390625 64 l 1,2,-1
 302.775390625 64 l 1,0,-1
288 0 m 1,3,-1
 295.387695312 32 l 1,4,-1
 199.387695312 32 l 1,5,-1
 206.775390625 64 l 1,6,-1
 324.938476562 160 l 1,7,-1
 356.938476562 160 l 1,8,-1
 334.775390625 64 l 1,9,-1
 366.775390625 64 l 1,10,-1
 359.387695312 32 l 1,11,-1
 327.387695312 32 l 1,12,-1
 320 0 l 1,13,-1
 288 0 l 1,3,-1
145.265625 352 m 1,14,-1
 167.428710938 448 l 1,15,-1
 135.428710938 448 l 1,16,-1
 214.204101562 512 l 1,17,-1
 177.265625 352 l 1,18,-1
 145.265625 352 l 1,14,-1
0 0 m 1,19,-1
 374.204101562 512 l 1,20,-1
 438.204101562 512 l 1,21,-1
 64 0 l 1,22,-1
 0 0 l 1,19,-1
EndSplineSet
Validated: 1
EndChar

StartChar: onehalf
Encoding: 189 189 125
Width: 428
Flags: W
LayerCount: 2
Back
Fore
SplineSet
192 0 m 1,0,-1
 206.775390625 64 l 1,1,-1
 246.163085938 96 l 1,2,-1
 342.163085938 96 l 1,3,-1
 317.55078125 128 l 1,4,-1
 221.55078125 128 l 1,5,-1
 228.938476562 160 l 1,6,-1
 356.938476562 160 l 1,7,-1
 381.55078125 128 l 1,8,-1
 366.775390625 64 l 1,9,-1
 254.775390625 64 l 1,10,-1
 235.08203125 48 l 1,11,-1
 247.387695312 32 l 1,12,-1
 359.387695312 32 l 1,13,-1
 352 0 l 1,14,-1
 192 0 l 1,0,-1
145.265625 352 m 1,15,-1
 167.428710938 448 l 1,16,-1
 135.428710938 448 l 1,17,-1
 214.204101562 512 l 1,18,-1
 177.265625 352 l 1,19,-1
 145.265625 352 l 1,15,-1
0 0 m 1,20,-1
 374.204101562 512 l 1,21,-1
 438.204101562 512 l 1,22,-1
 64 0 l 1,23,-1
 0 0 l 1,20,-1
EndSplineSet
Validated: 1
EndChar

StartChar: threequarters
Encoding: 190 190 126
Width: 428
Flags: W
LayerCount: 2
Back
Fore
SplineSet
302.775390625 64 m 1,0,-1
 317.55078125 128 l 1,1,-1
 238.775390625 64 l 1,2,-1
 302.775390625 64 l 1,0,-1
288 0 m 1,3,-1
 295.387695312 32 l 1,4,-1
 199.387695312 32 l 1,5,-1
 206.775390625 64 l 1,6,-1
 324.938476562 160 l 1,7,-1
 356.938476562 160 l 1,8,-1
 334.775390625 64 l 1,9,-1
 366.775390625 64 l 1,10,-1
 359.387695312 32 l 1,11,-1
 327.387695312 32 l 1,12,-1
 320 0 l 1,13,-1
 288 0 l 1,3,-1
81.265625 352 m 1,14,-1
 88.6533203125 384 l 1,15,-1
 184.653320312 384 l 1,16,-1
 224.041015625 416 l 1,17,-1
 128.041015625 416 l 1,18,-1
 135.428710938 448 l 1,19,-1
 231.428710938 448 l 1,20,-1
 206.81640625 480 l 1,21,-1
 110.81640625 480 l 1,22,-1
 118.204101562 512 l 1,23,-1
 246.204101562 512 l 1,24,-1
 270.81640625 480 l 1,25,-1
 263.428710938 448 l 1,26,-1
 262.428710938 448 l 1,27,-1
 243.735351562 432 l 1,28,-1
 256.041015625 416 l 1,29,-1
 248.653320312 384 l 1,30,-1
 209.265625 352 l 1,31,-1
 81.265625 352 l 1,14,-1
0 0 m 1,32,-1
 374.204101562 512 l 1,33,-1
 438.204101562 512 l 1,34,-1
 64 0 l 1,35,-1
 0 0 l 1,32,-1
EndSplineSet
Validated: 1
EndChar

StartChar: questiondown
Encoding: 191 191 127
Width: 396
Flags: W
CounterMasks: 1 38
LayerCount: 2
Back
Fore
SplineSet
64 0 m 1,0,-1
 14.775390625 64 l 1,1,-1
 36.9384765625 160 l 1,2,-1
 194.490234375 288 l 1,3,-1
 224.041015625 416 l 1,4,-1
 288.041015625 416 l 1,5,-1
 254.795898438 272 l 1,6,-1
 97.2451171875 144 l 1,7,-1
 78.775390625 64 l 1,8,-1
 103.387695312 32 l 1,9,-1
 231.387695312 32 l 1,10,-1
 270.775390625 64 l 1,11,-1
 278.163085938 96 l 1,12,-1
 342.163085938 96 l 1,13,-1
 334.775390625 64 l 1,14,-1
 256 0 l 1,15,-1
 64 0 l 1,0,-1
247.428710938 448 m 2,16,17
 240.428710938 448 240.428710938 448 236.352539062 452 c 0,18,19
 233.506835938 457 233.506835938 457 235.123046875 464 c 2,20,-1
 242.279296875 495 l 2,21,22
 243.895507812 502 243.895507812 502 249.049804688 507 c 0,23,24
 255.204101562 512 255.204101562 512 262.204101562 512 c 2,25,-1
 294.204101562 512 l 2,26,27
 300.204101562 512 300.204101562 512 304.049804688 507 c 256,28,29
 307.895507812 502 307.895507812 502 306.510742188 496 c 2,30,-1
 299.123046875 464 l 2,31,32
 297.506835938 457 297.506835938 457 291.352539062 452 c 0,33,34
 285.428710938 448 285.428710938 448 279.428710938 448 c 2,35,-1
 247.428710938 448 l 2,16,17
EndSplineSet
Validated: 1
EndChar

StartChar: Agrave
Encoding: 192 192 128
Width: 396
Flags: W
LayerCount: 2
Back
Fore
SplineSet
322.490234375 288 m 1,0,-1
 359.428710938 448 l 1,1,-1
 334.81640625 480 l 1,2,-1
 206.81640625 480 l 1,3,-1
 167.428710938 448 l 1,4,-1
 130.490234375 288 l 1,5,-1
 322.490234375 288 l 1,0,-1
0 0 m 1,6,-1
 103.428710938 448 l 1,7,-1
 182.204101562 512 l 1,8,-1
 374.204101562 512 l 1,9,-1
 423.428710938 448 l 1,10,-1
 320 0 l 1,11,-1
 256 0 l 1,12,-1
 315.102539062 256 l 1,13,-1
 123.102539062 256 l 1,14,-1
 64 0 l 1,15,-1
 0 0 l 1,6,-1
349.592773438 544 m 1,16,-1
 208.061523438 624 l 1,17,-1
 215.44921875 656 l 1,18,-1
 247.44921875 656 l 1,19,-1
 388.98046875 576 l 1,20,-1
 381.592773438 544 l 1,21,-1
 349.592773438 544 l 1,16,-1
EndSplineSet
Validated: 1
EndChar

StartChar: Aacute
Encoding: 193 193 129
Width: 396
Flags: W
LayerCount: 2
Back
Fore
SplineSet
322.490234375 288 m 1,0,-1
 359.428710938 448 l 1,1,-1
 334.81640625 480 l 1,2,-1
 206.81640625 480 l 1,3,-1
 167.428710938 448 l 1,4,-1
 130.490234375 288 l 1,5,-1
 322.490234375 288 l 1,0,-1
0 0 m 1,6,-1
 103.428710938 448 l 1,7,-1
 182.204101562 512 l 1,8,-1
 374.204101562 512 l 1,9,-1
 423.428710938 448 l 1,10,-1
 320 0 l 1,11,-1
 256 0 l 1,12,-1
 315.102539062 256 l 1,13,-1
 123.102539062 256 l 1,14,-1
 64 0 l 1,15,-1
 0 0 l 1,6,-1
189.592773438 544 m 1,16,-1
 196.98046875 576 l 1,17,-1
 375.44921875 656 l 1,18,-1
 407.44921875 656 l 1,19,-1
 400.061523438 624 l 1,20,-1
 221.592773438 544 l 1,21,-1
 189.592773438 544 l 1,16,-1
EndSplineSet
Validated: 1
EndChar

StartChar: Acircumflex
Encoding: 194 194 130
Width: 396
Flags: W
LayerCount: 2
Back
Fore
SplineSet
322.490234375 288 m 1,0,-1
 359.428710938 448 l 1,1,-1
 334.81640625 480 l 1,2,-1
 206.81640625 480 l 1,3,-1
 167.428710938 448 l 1,4,-1
 130.490234375 288 l 1,5,-1
 322.490234375 288 l 1,0,-1
0 0 m 1,6,-1
 103.428710938 448 l 1,7,-1
 182.204101562 512 l 1,8,-1
 374.204101562 512 l 1,9,-1
 423.428710938 448 l 1,10,-1
 320 0 l 1,11,-1
 256 0 l 1,12,-1
 315.102539062 256 l 1,13,-1
 123.102539062 256 l 1,14,-1
 64 0 l 1,15,-1
 0 0 l 1,6,-1
157.592773438 544 m 1,16,-1
 164.98046875 576 l 1,17,-1
 307.755859375 640 l 1,18,-1
 420.98046875 576 l 1,19,-1
 413.592773438 544 l 1,20,-1
 381.592773438 544 l 1,21,-1
 282.520507812 600 l 1,22,-1
 157.592773438 544 l 1,23,-1
 157.592773438 544 l 1,16,-1
EndSplineSet
Validated: 5
EndChar

StartChar: Atilde
Encoding: 195 195 131
Width: 396
Flags: W
LayerCount: 2
Back
Fore
SplineSet
322.490234375 288 m 1,0,-1
 359.428710938 448 l 1,1,-1
 334.81640625 480 l 1,2,-1
 206.81640625 480 l 1,3,-1
 167.428710938 448 l 1,4,-1
 130.490234375 288 l 1,5,-1
 322.490234375 288 l 1,0,-1
0 0 m 1,6,-1
 103.428710938 448 l 1,7,-1
 182.204101562 512 l 1,8,-1
 374.204101562 512 l 1,9,-1
 423.428710938 448 l 1,10,-1
 320 0 l 1,11,-1
 256 0 l 1,12,-1
 315.102539062 256 l 1,13,-1
 123.102539062 256 l 1,14,-1
 64 0 l 1,15,-1
 0 0 l 1,6,-1
333.592773438 544 m 1,16,-1
 234.520507812 600 l 1,17,-1
 145.286132812 560 l 1,18,-1
 152.673828125 592 l 1,19,-1
 259.755859375 640 l 1,20,-1
 358.827148438 584 l 1,21,-1
 448.061523438 624 l 1,22,-1
 440.673828125 592 l 1,23,-1
 333.592773438 544 l 1,24,-1
 333.592773438 544 l 1,16,-1
EndSplineSet
Validated: 5
EndChar

StartChar: Adieresis
Encoding: 196 196 132
Width: 396
Flags: W
LayerCount: 2
Back
Fore
SplineSet
322.490234375 288 m 1,0,-1
 359.428710938 448 l 1,1,-1
 334.81640625 480 l 1,2,-1
 206.81640625 480 l 1,3,-1
 167.428710938 448 l 1,4,-1
 130.490234375 288 l 1,5,-1
 322.490234375 288 l 1,0,-1
0 0 m 1,6,-1
 103.428710938 448 l 1,7,-1
 182.204101562 512 l 1,8,-1
 374.204101562 512 l 1,9,-1
 423.428710938 448 l 1,10,-1
 320 0 l 1,11,-1
 256 0 l 1,12,-1
 315.102539062 256 l 1,13,-1
 123.102539062 256 l 1,14,-1
 64 0 l 1,15,-1
 0 0 l 1,6,-1
205.592773438 544 m 2,16,17
 198.592773438 544 198.592773438 544 194.515625 548 c 0,18,19
 191.669921875 553 191.669921875 553 193.286132812 560 c 2,20,-1
 200.443359375 591 l 2,21,22
 202.059570312 598 202.059570312 598 207.213867188 603 c 0,23,24
 213.368164062 608 213.368164062 608 220.368164062 608 c 2,25,-1
 252.368164062 608 l 2,26,27
 258.368164062 608 258.368164062 608 262.213867188 603 c 256,28,29
 266.059570312 598 266.059570312 598 264.673828125 592 c 2,30,-1
 257.286132812 560 l 2,31,32
 255.669921875 553 255.669921875 553 249.515625 548 c 0,33,34
 243.592773438 544 243.592773438 544 237.592773438 544 c 2,35,-1
 205.592773438 544 l 2,16,17
333.592773438 544 m 2,36,37
 326.592773438 544 326.592773438 544 322.515625 548 c 0,38,39
 319.669921875 553 319.669921875 553 321.286132812 560 c 2,40,-1
 328.443359375 591 l 2,41,42
 330.059570312 598 330.059570312 598 335.213867188 603 c 0,43,44
 341.368164062 608 341.368164062 608 348.368164062 608 c 2,45,-1
 380.368164062 608 l 2,46,47
 386.368164062 608 386.368164062 608 390.213867188 603 c 256,48,49
 394.059570312 598 394.059570312 598 392.673828125 592 c 2,50,-1
 385.286132812 560 l 2,51,52
 383.669921875 553 383.669921875 553 377.515625 548 c 0,53,54
 371.592773438 544 371.592773438 544 365.592773438 544 c 2,55,-1
 333.592773438 544 l 2,36,37
EndSplineSet
Validated: 1
EndChar

StartChar: Aring
Encoding: 197 197 133
Width: 396
Flags: W
LayerCount: 2
Back
Fore
SplineSet
322.490234375 288 m 1,0,-1
 359.428710938 448 l 1,1,-1
 334.81640625 480 l 1,2,-1
 206.81640625 480 l 1,3,-1
 167.428710938 448 l 1,4,-1
 130.490234375 288 l 1,5,-1
 322.490234375 288 l 1,0,-1
0 0 m 1,6,-1
 103.428710938 448 l 1,7,-1
 182.204101562 512 l 1,8,-1
 374.204101562 512 l 1,9,-1
 423.428710938 448 l 1,10,-1
 320 0 l 1,11,-1
 256 0 l 1,12,-1
 315.102539062 256 l 1,13,-1
 123.102539062 256 l 1,14,-1
 64 0 l 1,15,-1
 0 0 l 1,6,-1
305.286132812 560 m 1,16,-1
 340.98046875 576 l 1,17,-1
 348.368164062 608 l 1,18,-1
 320.061523438 624 l 1,19,-1
 288.061523438 624 l 1,20,-1
 252.368164062 608 l 1,21,-1
 244.98046875 576 l 1,22,-1
 273.286132812 560 l 1,23,-1
 305.286132812 560 l 1,16,-1
237.592773438 544 m 1,24,-1
 209.286132812 560 l 1,25,-1
 224.061523438 624 l 1,26,-1
 259.755859375 640 l 1,27,-1
 355.755859375 640 l 1,28,-1
 384.061523438 624 l 1,29,-1
 369.286132812 560 l 1,30,-1
 333.592773438 544 l 1,31,-1
 237.592773438 544 l 1,24,-1
EndSplineSet
Validated: 1
EndChar

StartChar: AE
Encoding: 198 198 134
Width: 524
Flags: W
LayerCount: 2
Back
Fore
SplineSet
258.490234375 288 m 1,0,-1
 302.81640625 480 l 1,1,-1
 206.81640625 480 l 1,2,-1
 167.428710938 448 l 1,3,-1
 130.490234375 288 l 1,4,-1
 258.490234375 288 l 1,0,-1
0 0 m 1,5,-1
 103.428710938 448 l 1,6,-1
 182.204101562 512 l 1,7,-1
 566.204101562 512 l 1,8,-1
 558.81640625 480 l 1,9,-1
 366.81640625 480 l 1,10,-1
 322.490234375 288 l 1,11,-1
 514.490234375 288 l 1,12,-1
 507.102539062 256 l 1,13,-1
 315.102539062 256 l 1,14,-1
 263.387695312 32 l 1,15,-1
 455.387695312 32 l 1,16,-1
 448 0 l 1,17,-1
 192 0 l 1,18,-1
 251.102539062 256 l 1,19,-1
 123.102539062 256 l 1,20,-1
 64 0 l 1,21,-1
 0 0 l 1,5,-1
EndSplineSet
Validated: 1
EndChar

StartChar: Ccedilla
Encoding: 199 199 135
Width: 396
Flags: W
LayerCount: 2
Back
Fore
SplineSet
102.142578125 -112 m 1,0,-1
 105.836914062 -96 l 1,1,-1
 177.224609375 -64 l 1,2,-1
 180.91796875 -48 l 1,3,-1
 124.305664062 -16 l 1,4,-1
 128 0 l 1,5,-1
 64 0 l 1,6,-1
 14.775390625 64 l 1,7,-1
 103.428710938 448 l 1,8,-1
 182.204101562 512 l 1,9,-1
 374.204101562 512 l 1,10,-1
 423.428710938 448 l 1,11,-1
 416.041015625 416 l 1,12,-1
 352.041015625 416 l 1,13,-1
 359.428710938 448 l 1,14,-1
 334.81640625 480 l 1,15,-1
 206.81640625 480 l 1,16,-1
 167.428710938 448 l 1,17,-1
 78.775390625 64 l 1,18,-1
 103.387695312 32 l 1,19,-1
 231.387695312 32 l 1,20,-1
 270.775390625 64 l 1,21,-1
 334.775390625 64 l 1,22,-1
 256 0 l 1,23,-1
 160 0 l 1,24,-1
 216.612304688 -32 l 1,25,-1
 205.530273438 -80 l 1,26,-1
 134.142578125 -112 l 1,27,-1
 102.142578125 -112 l 1,0,-1
EndSplineSet
Validated: 1
EndChar

StartChar: Egrave
Encoding: 200 200 136
Width: 396
Flags: W
LayerCount: 2
Back
Fore
SplineSet
0 0 m 1,0,-1
 118.204101562 512 l 1,1,-1
 438.204101562 512 l 1,2,-1
 430.81640625 480 l 1,3,-1
 174.81640625 480 l 1,4,-1
 130.490234375 288 l 1,5,-1
 322.490234375 288 l 1,6,-1
 315.102539062 256 l 1,7,-1
 123.102539062 256 l 1,8,-1
 71.3876953125 32 l 1,9,-1
 327.387695312 32 l 1,10,-1
 320 0 l 1,11,-1
 0 0 l 1,0,-1
349.592773438 544 m 1,12,-1
 208.061523438 624 l 1,13,-1
 215.44921875 656 l 1,14,-1
 247.44921875 656 l 1,15,-1
 388.98046875 576 l 1,16,-1
 381.592773438 544 l 1,17,-1
 349.592773438 544 l 1,12,-1
EndSplineSet
Validated: 1
EndChar

StartChar: Eacute
Encoding: 201 201 137
Width: 396
Flags: W
LayerCount: 2
Back
Fore
SplineSet
0 0 m 1,0,-1
 118.204101562 512 l 1,1,-1
 438.204101562 512 l 1,2,-1
 430.81640625 480 l 1,3,-1
 174.81640625 480 l 1,4,-1
 130.490234375 288 l 1,5,-1
 322.490234375 288 l 1,6,-1
 315.102539062 256 l 1,7,-1
 123.102539062 256 l 1,8,-1
 71.3876953125 32 l 1,9,-1
 327.387695312 32 l 1,10,-1
 320 0 l 1,11,-1
 0 0 l 1,0,-1
189.592773438 544 m 1,12,-1
 196.98046875 576 l 1,13,-1
 375.44921875 656 l 1,14,-1
 407.44921875 656 l 1,15,-1
 400.061523438 624 l 1,16,-1
 221.592773438 544 l 1,17,-1
 189.592773438 544 l 1,12,-1
EndSplineSet
Validated: 1
EndChar

StartChar: Ecircumflex
Encoding: 202 202 138
Width: 396
Flags: W
LayerCount: 2
Back
Fore
SplineSet
0 0 m 1,0,-1
 118.204101562 512 l 1,1,-1
 438.204101562 512 l 1,2,-1
 430.81640625 480 l 1,3,-1
 174.81640625 480 l 1,4,-1
 130.490234375 288 l 1,5,-1
 322.490234375 288 l 1,6,-1
 315.102539062 256 l 1,7,-1
 123.102539062 256 l 1,8,-1
 71.3876953125 32 l 1,9,-1
 327.387695312 32 l 1,10,-1
 320 0 l 1,11,-1
 0 0 l 1,0,-1
157.592773438 544 m 1,12,-1
 164.98046875 576 l 1,13,-1
 307.755859375 640 l 1,14,-1
 420.98046875 576 l 1,15,-1
 413.592773438 544 l 1,16,-1
 381.592773438 544 l 1,17,-1
 282.520507812 600 l 1,18,-1
 157.592773438 544 l 1,19,-1
 157.592773438 544 l 1,12,-1
EndSplineSet
Validated: 5
EndChar

StartChar: Edieresis
Encoding: 203 203 139
Width: 396
Flags: W
LayerCount: 2
Back
Fore
SplineSet
0 0 m 1,0,-1
 118.204101562 512 l 1,1,-1
 438.204101562 512 l 1,2,-1
 430.81640625 480 l 1,3,-1
 174.81640625 480 l 1,4,-1
 130.490234375 288 l 1,5,-1
 322.490234375 288 l 1,6,-1
 315.102539062 256 l 1,7,-1
 123.102539062 256 l 1,8,-1
 71.3876953125 32 l 1,9,-1
 327.387695312 32 l 1,10,-1
 320 0 l 1,11,-1
 0 0 l 1,0,-1
205.592773438 544 m 2,12,13
 198.592773438 544 198.592773438 544 194.515625 548 c 0,14,15
 191.669921875 553 191.669921875 553 193.286132812 560 c 2,16,-1
 200.443359375 591 l 2,17,18
 202.059570312 598 202.059570312 598 207.213867188 603 c 0,19,20
 213.368164062 608 213.368164062 608 220.368164062 608 c 2,21,-1
 252.368164062 608 l 2,22,23
 258.368164062 608 258.368164062 608 262.213867188 603 c 256,24,25
 266.059570312 598 266.059570312 598 264.673828125 592 c 2,26,-1
 257.286132812 560 l 2,27,28
 255.669921875 553 255.669921875 553 249.515625 548 c 0,29,30
 243.592773438 544 243.592773438 544 237.592773438 544 c 2,31,-1
 205.592773438 544 l 2,12,13
333.592773438 544 m 2,32,33
 326.592773438 544 326.592773438 544 322.515625 548 c 0,34,35
 319.669921875 553 319.669921875 553 321.286132812 560 c 2,36,-1
 328.443359375 591 l 2,37,38
 330.059570312 598 330.059570312 598 335.213867188 603 c 0,39,40
 341.368164062 608 341.368164062 608 348.368164062 608 c 2,41,-1
 380.368164062 608 l 2,42,43
 386.368164062 608 386.368164062 608 390.213867188 603 c 256,44,45
 394.059570312 598 394.059570312 598 392.673828125 592 c 2,46,-1
 385.286132812 560 l 2,47,48
 383.669921875 553 383.669921875 553 377.515625 548 c 0,49,50
 371.592773438 544 371.592773438 544 365.592773438 544 c 2,51,-1
 333.592773438 544 l 2,32,33
EndSplineSet
Validated: 1
EndChar

StartChar: Igrave
Encoding: 204 204 140
Width: 236
Flags: W
LayerCount: 2
Back
Fore
SplineSet
32 0 m 1,0,-1
 150.204101562 512 l 1,1,-1
 214.204101562 512 l 1,2,-1
 96 0 l 1,3,-1
 32 0 l 1,0,-1
246.204101562 512 m 1,4,-1
 104.673828125 592 l 1,5,-1
 112.061523438 624 l 1,6,-1
 144.061523438 624 l 1,7,-1
 285.592773438 544 l 1,8,-1
 278.204101562 512 l 1,9,-1
 246.204101562 512 l 1,4,-1
EndSplineSet
Validated: 1
EndChar

StartChar: Iacute
Encoding: 205 205 141
Width: 236
Flags: W
LayerCount: 2
Back
Fore
SplineSet
32 0 m 1,0,-1
 150.204101562 512 l 1,1,-1
 214.204101562 512 l 1,2,-1
 96 0 l 1,3,-1
 32 0 l 1,0,-1
93.5927734375 544 m 1,4,-1
 100.98046875 576 l 1,5,-1
 279.44921875 656 l 1,6,-1
 311.44921875 656 l 1,7,-1
 304.061523438 624 l 1,8,-1
 125.592773438 544 l 1,9,-1
 93.5927734375 544 l 1,4,-1
EndSplineSet
Validated: 1
EndChar

StartChar: Icircumflex
Encoding: 206 206 142
Width: 300
Flags: W
LayerCount: 2
Back
Fore
SplineSet
64 0 m 1,0,-1
 182.204101562 512 l 1,1,-1
 246.204101562 512 l 1,2,-1
 128 0 l 1,3,-1
 64 0 l 1,0,-1
86.2041015625 512 m 1,4,-1
 93.5927734375 544 l 1,5,-1
 236.368164062 608 l 1,6,-1
 349.592773438 544 l 1,7,-1
 342.204101562 512 l 1,8,-1
 310.204101562 512 l 1,9,-1
 211.1328125 568 l 1,10,-1
 86.2041015625 512 l 1,11,-1
 86.2041015625 512 l 1,4,-1
EndSplineSet
Validated: 5
EndChar

StartChar: Idieresis
Encoding: 207 207 143
Width: 236
Flags: W
LayerCount: 2
Back
Fore
SplineSet
32 0 m 1,0,-1
 150.204101562 512 l 1,1,-1
 214.204101562 512 l 1,2,-1
 96 0 l 1,3,-1
 32 0 l 1,0,-1
109.592773438 544 m 2,4,5
 103.592773438 544 103.592773438 544 99.515625 548 c 0,6,7
 95.669921875 553 95.669921875 553 97.2861328125 560 c 2,8,-1
 104.443359375 591 l 2,9,10
 106.059570312 598 106.059570312 598 112.213867188 603 c 256,11,12
 118.368164062 608 118.368164062 608 124.368164062 608 c 2,13,-1
 156.368164062 608 l 2,14,15
 162.368164062 608 162.368164062 608 166.213867188 603 c 256,16,17
 170.059570312 598 170.059570312 598 168.673828125 592 c 2,18,-1
 161.286132812 560 l 2,19,20
 159.669921875 553 159.669921875 553 153.515625 548 c 0,21,22
 147.592773438 544 147.592773438 544 141.592773438 544 c 2,23,-1
 109.592773438 544 l 2,4,5
237.592773438 544 m 2,24,25
 230.592773438 544 230.592773438 544 226.515625 548 c 0,26,27
 223.669921875 553 223.669921875 553 225.286132812 560 c 2,28,-1
 232.443359375 591 l 2,29,30
 234.059570312 598 234.059570312 598 239.213867188 603 c 0,31,32
 245.368164062 608 245.368164062 608 252.368164062 608 c 2,33,-1
 284.368164062 608 l 2,34,35
 290.368164062 608 290.368164062 608 294.213867188 603 c 256,36,37
 298.059570312 598 298.059570312 598 296.673828125 592 c 2,38,-1
 289.286132812 560 l 2,39,40
 287.669921875 553 287.669921875 553 281.515625 548 c 0,41,42
 275.592773438 544 275.592773438 544 269.592773438 544 c 2,43,-1
 237.592773438 544 l 2,24,25
EndSplineSet
Validated: 1
EndChar

StartChar: Eth
Encoding: 208 208 144
Width: 460
Flags: W
LayerCount: 2
Back
Fore
SplineSet
295.387695312 32 m 1,0,-1
 334.775390625 64 l 1,1,-1
 423.428710938 448 l 1,2,-1
 398.81640625 480 l 1,3,-1
 238.81640625 480 l 1,4,-1
 194.490234375 288 l 1,5,-1
 258.490234375 288 l 1,6,-1
 251.102539062 256 l 1,7,-1
 187.102539062 256 l 1,8,-1
 135.387695312 32 l 1,9,-1
 295.387695312 32 l 1,0,-1
64 0 m 1,10,-1
 123.102539062 256 l 1,11,-1
 59.1025390625 256 l 1,12,-1
 66.490234375 288 l 1,13,-1
 130.490234375 288 l 1,14,-1
 182.204101562 512 l 1,15,-1
 438.204101562 512 l 1,16,-1
 487.428710938 448 l 1,17,-1
 398.775390625 64 l 1,18,-1
 320 0 l 1,19,-1
 64 0 l 1,10,-1
EndSplineSet
Validated: 1
EndChar

StartChar: Ntilde
Encoding: 209 209 145
Width: 396
Flags: W
LayerCount: 2
Back
Fore
SplineSet
0 0 m 1,0,-1
 118.204101562 512 l 1,1,-1
 166.204101562 512 l 1,2,-1
 278.163085938 96 l 1,3,-1
 374.204101562 512 l 1,4,-1
 438.204101562 512 l 1,5,-1
 320 0 l 1,6,-1
 272 0 l 1,7,-1
 160.041015625 416 l 1,8,-1
 64 0 l 1,9,-1
 0 0 l 1,0,-1
333.592773438 544 m 1,10,-1
 234.520507812 600 l 1,11,-1
 145.286132812 560 l 1,12,-1
 152.673828125 592 l 1,13,-1
 259.755859375 640 l 1,14,-1
 358.827148438 584 l 1,15,-1
 448.061523438 624 l 1,16,-1
 440.673828125 592 l 1,17,-1
 333.592773438 544 l 1,18,-1
 333.592773438 544 l 1,10,-1
EndSplineSet
Validated: 5
EndChar

StartChar: Ograve
Encoding: 210 210 146
Width: 396
Flags: W
LayerCount: 2
Back
Fore
SplineSet
231.387695312 32 m 1,0,-1
 270.775390625 64 l 1,1,-1
 359.428710938 448 l 1,2,-1
 334.81640625 480 l 1,3,-1
 206.81640625 480 l 1,4,-1
 167.428710938 448 l 1,5,-1
 78.775390625 64 l 1,6,-1
 103.387695312 32 l 1,7,-1
 231.387695312 32 l 1,0,-1
64 0 m 1,8,-1
 14.775390625 64 l 1,9,-1
 103.428710938 448 l 1,10,-1
 182.204101562 512 l 1,11,-1
 374.204101562 512 l 1,12,-1
 423.428710938 448 l 1,13,-1
 334.775390625 64 l 1,14,-1
 256 0 l 1,15,-1
 64 0 l 1,8,-1
349.592773438 544 m 1,16,-1
 208.061523438 624 l 1,17,-1
 215.44921875 656 l 1,18,-1
 247.44921875 656 l 1,19,-1
 388.98046875 576 l 1,20,-1
 381.592773438 544 l 1,21,-1
 349.592773438 544 l 1,16,-1
EndSplineSet
Validated: 1
EndChar

StartChar: Oacute
Encoding: 211 211 147
Width: 396
Flags: W
LayerCount: 2
Back
Fore
SplineSet
231.387695312 32 m 1,0,-1
 270.775390625 64 l 1,1,-1
 359.428710938 448 l 1,2,-1
 334.81640625 480 l 1,3,-1
 206.81640625 480 l 1,4,-1
 167.428710938 448 l 1,5,-1
 78.775390625 64 l 1,6,-1
 103.387695312 32 l 1,7,-1
 231.387695312 32 l 1,0,-1
64 0 m 1,8,-1
 14.775390625 64 l 1,9,-1
 103.428710938 448 l 1,10,-1
 182.204101562 512 l 1,11,-1
 374.204101562 512 l 1,12,-1
 423.428710938 448 l 1,13,-1
 334.775390625 64 l 1,14,-1
 256 0 l 1,15,-1
 64 0 l 1,8,-1
189.592773438 544 m 1,16,-1
 196.98046875 576 l 1,17,-1
 375.44921875 656 l 1,18,-1
 407.44921875 656 l 1,19,-1
 400.061523438 624 l 1,20,-1
 221.592773438 544 l 1,21,-1
 189.592773438 544 l 1,16,-1
EndSplineSet
Validated: 1
EndChar

StartChar: Ocircumflex
Encoding: 212 212 148
Width: 396
Flags: W
LayerCount: 2
Back
Fore
SplineSet
231.387695312 32 m 1,0,-1
 270.775390625 64 l 1,1,-1
 359.428710938 448 l 1,2,-1
 334.81640625 480 l 1,3,-1
 206.81640625 480 l 1,4,-1
 167.428710938 448 l 1,5,-1
 78.775390625 64 l 1,6,-1
 103.387695312 32 l 1,7,-1
 231.387695312 32 l 1,0,-1
64 0 m 1,8,-1
 14.775390625 64 l 1,9,-1
 103.428710938 448 l 1,10,-1
 182.204101562 512 l 1,11,-1
 374.204101562 512 l 1,12,-1
 423.428710938 448 l 1,13,-1
 334.775390625 64 l 1,14,-1
 256 0 l 1,15,-1
 64 0 l 1,8,-1
157.592773438 544 m 1,16,-1
 164.98046875 576 l 1,17,-1
 307.755859375 640 l 1,18,-1
 420.98046875 576 l 1,19,-1
 413.592773438 544 l 1,20,-1
 381.592773438 544 l 1,21,-1
 282.520507812 600 l 1,22,-1
 157.592773438 544 l 1,23,-1
 157.592773438 544 l 1,16,-1
EndSplineSet
Validated: 5
EndChar

StartChar: Otilde
Encoding: 213 213 149
Width: 396
Flags: W
LayerCount: 2
Back
Fore
SplineSet
231.387695312 32 m 1,0,-1
 270.775390625 64 l 1,1,-1
 359.428710938 448 l 1,2,-1
 334.81640625 480 l 1,3,-1
 206.81640625 480 l 1,4,-1
 167.428710938 448 l 1,5,-1
 78.775390625 64 l 1,6,-1
 103.387695312 32 l 1,7,-1
 231.387695312 32 l 1,0,-1
64 0 m 1,8,-1
 14.775390625 64 l 1,9,-1
 103.428710938 448 l 1,10,-1
 182.204101562 512 l 1,11,-1
 374.204101562 512 l 1,12,-1
 423.428710938 448 l 1,13,-1
 334.775390625 64 l 1,14,-1
 256 0 l 1,15,-1
 64 0 l 1,8,-1
333.592773438 544 m 1,16,-1
 234.520507812 600 l 1,17,-1
 145.286132812 560 l 1,18,-1
 152.673828125 592 l 1,19,-1
 259.755859375 640 l 1,20,-1
 358.827148438 584 l 1,21,-1
 448.061523438 624 l 1,22,-1
 440.673828125 592 l 1,23,-1
 333.592773438 544 l 1,24,-1
 333.592773438 544 l 1,16,-1
EndSplineSet
Validated: 5
EndChar

StartChar: Odieresis
Encoding: 214 214 150
Width: 396
Flags: W
LayerCount: 2
Back
Fore
SplineSet
231.387695312 32 m 1,0,-1
 270.775390625 64 l 1,1,-1
 359.428710938 448 l 1,2,-1
 334.81640625 480 l 1,3,-1
 206.81640625 480 l 1,4,-1
 167.428710938 448 l 1,5,-1
 78.775390625 64 l 1,6,-1
 103.387695312 32 l 1,7,-1
 231.387695312 32 l 1,0,-1
64 0 m 1,8,-1
 14.775390625 64 l 1,9,-1
 103.428710938 448 l 1,10,-1
 182.204101562 512 l 1,11,-1
 374.204101562 512 l 1,12,-1
 423.428710938 448 l 1,13,-1
 334.775390625 64 l 1,14,-1
 256 0 l 1,15,-1
 64 0 l 1,8,-1
205.592773438 544 m 2,16,17
 198.592773438 544 198.592773438 544 194.515625 548 c 0,18,19
 191.669921875 553 191.669921875 553 193.286132812 560 c 2,20,-1
 200.443359375 591 l 2,21,22
 202.059570312 598 202.059570312 598 207.213867188 603 c 0,23,24
 213.368164062 608 213.368164062 608 220.368164062 608 c 2,25,-1
 252.368164062 608 l 2,26,27
 258.368164062 608 258.368164062 608 262.213867188 603 c 256,28,29
 266.059570312 598 266.059570312 598 264.673828125 592 c 2,30,-1
 257.286132812 560 l 2,31,32
 255.669921875 553 255.669921875 553 249.515625 548 c 0,33,34
 243.592773438 544 243.592773438 544 237.592773438 544 c 2,35,-1
 205.592773438 544 l 2,16,17
333.592773438 544 m 2,36,37
 326.592773438 544 326.592773438 544 322.515625 548 c 0,38,39
 319.669921875 553 319.669921875 553 321.286132812 560 c 2,40,-1
 328.443359375 591 l 2,41,42
 330.059570312 598 330.059570312 598 335.213867188 603 c 0,43,44
 341.368164062 608 341.368164062 608 348.368164062 608 c 2,45,-1
 380.368164062 608 l 2,46,47
 386.368164062 608 386.368164062 608 390.213867188 603 c 256,48,49
 394.059570312 598 394.059570312 598 392.673828125 592 c 2,50,-1
 385.286132812 560 l 2,51,52
 383.669921875 553 383.669921875 553 377.515625 548 c 0,53,54
 371.592773438 544 371.592773438 544 365.592773438 544 c 2,55,-1
 333.592773438 544 l 2,36,37
EndSplineSet
Validated: 1
EndChar

StartChar: multiply
Encoding: 215 215 151
Width: 332
Flags: W
LayerCount: 2
Back
Fore
SplineSet
29.55078125 128 m 1,0,-1
 33.2451171875 144 l 1,1,-1
 151.408203125 240 l 1,2,-1
 77.5712890625 336 l 1,3,-1
 88.6533203125 384 l 1,4,-1
 136.653320312 384 l 1,5,-1
 210.490234375 288 l 1,6,-1
 328.653320312 384 l 1,7,-1
 344.653320312 384 l 1,8,-1
 337.265625 352 l 1,9,-1
 228.94921875 264 l 1,10,-1
 296.6328125 176 l 1,11,-1
 285.55078125 128 l 1,12,-1
 237.55078125 128 l 1,13,-1
 169.8671875 216 l 1,14,-1
 61.55078125 128 l 1,15,-1
 29.55078125 128 l 1,0,-1
EndSplineSet
Validated: 1
EndChar

StartChar: Oslash
Encoding: 216 216 152
Width: 396
Flags: W
LayerCount: 2
Back
Fore
SplineSet
231.387695312 32 m 1,0,-1
 270.775390625 64 l 1,1,-1
 329.877929688 320 l 1,2,-1
 93.55078125 128 l 1,3,-1
 78.775390625 64 l 1,4,-1
 103.387695312 32 l 1,5,-1
 231.387695312 32 l 1,0,-1
108.327148438 192 m 1,6,-1
 344.653320312 384 l 1,7,-1
 359.428710938 448 l 1,8,-1
 334.81640625 480 l 1,9,-1
 206.81640625 480 l 1,10,-1
 167.428710938 448 l 1,11,-1
 108.327148438 192 l 1,12,-1
 108.327148438 192 l 1,6,-1
64 0 m 1,13,-1
 14.775390625 64 l 1,14,-1
 103.428710938 448 l 1,15,-1
 182.204101562 512 l 1,16,-1
 374.204101562 512 l 1,17,-1
 423.428710938 448 l 1,18,-1
 334.775390625 64 l 1,19,-1
 256 0 l 1,20,-1
 64 0 l 1,13,-1
EndSplineSet
Validated: 5
EndChar

StartChar: Ugrave
Encoding: 217 217 153
Width: 396
Flags: W
LayerCount: 2
Back
Fore
SplineSet
64 0 m 1,0,-1
 14.775390625 64 l 1,1,-1
 118.204101562 512 l 1,2,-1
 182.204101562 512 l 1,3,-1
 78.775390625 64 l 1,4,-1
 103.387695312 32 l 1,5,-1
 231.387695312 32 l 1,6,-1
 270.775390625 64 l 1,7,-1
 374.204101562 512 l 1,8,-1
 438.204101562 512 l 1,9,-1
 334.775390625 64 l 1,10,-1
 256 0 l 1,11,-1
 64 0 l 1,0,-1
349.592773438 544 m 1,12,-1
 208.061523438 624 l 1,13,-1
 215.44921875 656 l 1,14,-1
 247.44921875 656 l 1,15,-1
 388.98046875 576 l 1,16,-1
 381.592773438 544 l 1,17,-1
 349.592773438 544 l 1,12,-1
EndSplineSet
Validated: 1
EndChar

StartChar: Uacute
Encoding: 218 218 154
Width: 396
Flags: W
LayerCount: 2
Back
Fore
SplineSet
64 0 m 1,0,-1
 14.775390625 64 l 1,1,-1
 118.204101562 512 l 1,2,-1
 182.204101562 512 l 1,3,-1
 78.775390625 64 l 1,4,-1
 103.387695312 32 l 1,5,-1
 231.387695312 32 l 1,6,-1
 270.775390625 64 l 1,7,-1
 374.204101562 512 l 1,8,-1
 438.204101562 512 l 1,9,-1
 334.775390625 64 l 1,10,-1
 256 0 l 1,11,-1
 64 0 l 1,0,-1
189.592773438 544 m 1,12,-1
 196.98046875 576 l 1,13,-1
 375.44921875 656 l 1,14,-1
 407.44921875 656 l 1,15,-1
 400.061523438 624 l 1,16,-1
 221.592773438 544 l 1,17,-1
 189.592773438 544 l 1,12,-1
EndSplineSet
Validated: 1
EndChar

StartChar: Ucircumflex
Encoding: 219 219 155
Width: 396
Flags: W
LayerCount: 2
Back
Fore
SplineSet
64 0 m 1,0,-1
 14.775390625 64 l 1,1,-1
 118.204101562 512 l 1,2,-1
 182.204101562 512 l 1,3,-1
 78.775390625 64 l 1,4,-1
 103.387695312 32 l 1,5,-1
 231.387695312 32 l 1,6,-1
 270.775390625 64 l 1,7,-1
 374.204101562 512 l 1,8,-1
 438.204101562 512 l 1,9,-1
 334.775390625 64 l 1,10,-1
 256 0 l 1,11,-1
 64 0 l 1,0,-1
157.592773438 544 m 1,12,-1
 164.98046875 576 l 1,13,-1
 307.755859375 640 l 1,14,-1
 420.98046875 576 l 1,15,-1
 413.592773438 544 l 1,16,-1
 381.592773438 544 l 1,17,-1
 282.520507812 600 l 1,18,-1
 157.592773438 544 l 1,19,-1
 157.592773438 544 l 1,12,-1
EndSplineSet
Validated: 5
EndChar

StartChar: Udieresis
Encoding: 220 220 156
Width: 396
Flags: W
LayerCount: 2
Back
Fore
SplineSet
64 0 m 1,0,-1
 14.775390625 64 l 1,1,-1
 118.204101562 512 l 1,2,-1
 182.204101562 512 l 1,3,-1
 78.775390625 64 l 1,4,-1
 103.387695312 32 l 1,5,-1
 231.387695312 32 l 1,6,-1
 270.775390625 64 l 1,7,-1
 374.204101562 512 l 1,8,-1
 438.204101562 512 l 1,9,-1
 334.775390625 64 l 1,10,-1
 256 0 l 1,11,-1
 64 0 l 1,0,-1
205.592773438 544 m 2,12,13
 198.592773438 544 198.592773438 544 194.515625 548 c 0,14,15
 191.669921875 553 191.669921875 553 193.286132812 560 c 2,16,-1
 200.443359375 591 l 2,17,18
 202.059570312 598 202.059570312 598 207.213867188 603 c 0,19,20
 213.368164062 608 213.368164062 608 220.368164062 608 c 2,21,-1
 252.368164062 608 l 2,22,23
 258.368164062 608 258.368164062 608 262.213867188 603 c 256,24,25
 266.059570312 598 266.059570312 598 264.673828125 592 c 2,26,-1
 257.286132812 560 l 2,27,28
 255.669921875 553 255.669921875 553 249.515625 548 c 0,29,30
 243.592773438 544 243.592773438 544 237.592773438 544 c 2,31,-1
 205.592773438 544 l 2,12,13
333.592773438 544 m 2,32,33
 326.592773438 544 326.592773438 544 322.515625 548 c 0,34,35
 319.669921875 553 319.669921875 553 321.286132812 560 c 2,36,-1
 328.443359375 591 l 2,37,38
 330.059570312 598 330.059570312 598 335.213867188 603 c 0,39,40
 341.368164062 608 341.368164062 608 348.368164062 608 c 2,41,-1
 380.368164062 608 l 2,42,43
 386.368164062 608 386.368164062 608 390.213867188 603 c 256,44,45
 394.059570312 598 394.059570312 598 392.673828125 592 c 2,46,-1
 385.286132812 560 l 2,47,48
 383.669921875 553 383.669921875 553 377.515625 548 c 0,49,50
 371.592773438 544 371.592773438 544 365.592773438 544 c 2,51,-1
 333.592773438 544 l 2,32,33
EndSplineSet
Validated: 1
EndChar

StartChar: Yacute
Encoding: 221 221 157
Width: 396
Flags: W
LayerCount: 2
Back
Fore
SplineSet
96 0 m 1,0,-1
 103.387695312 32 l 1,1,-1
 199.387695312 32 l 1,2,-1
 278.163085938 96 l 1,3,-1
 300.327148438 192 l 1,4,-1
 204.327148438 192 l 1,5,-1
 118.204101562 512 l 1,6,-1
 182.204101562 512 l 1,7,-1
 259.71484375 224 l 1,8,-1
 307.71484375 224 l 1,9,-1
 374.204101562 512 l 1,10,-1
 438.204101562 512 l 1,11,-1
 342.163085938 96 l 1,12,-1
 224 0 l 1,13,-1
 96 0 l 1,0,-1
189.592773438 544 m 1,14,-1
 196.98046875 576 l 1,15,-1
 375.44921875 656 l 1,16,-1
 407.44921875 656 l 1,17,-1
 400.061523438 624 l 1,18,-1
 221.592773438 544 l 1,19,-1
 189.592773438 544 l 1,14,-1
EndSplineSet
Validated: 1
EndChar

StartChar: Thorn
Encoding: 222 222 158
Width: 396
Flags: W
LayerCount: 2
Back
Fore
SplineSet
260.938476562 160 m 1,0,-1
 300.327148438 192 l 1,1,-1
 329.877929688 320 l 1,2,-1
 305.265625 352 l 1,3,-1
 145.265625 352 l 1,4,-1
 100.938476562 160 l 1,5,-1
 260.938476562 160 l 1,0,-1
0 0 m 1,6,-1
 118.204101562 512 l 1,7,-1
 182.204101562 512 l 1,8,-1
 152.653320312 384 l 1,9,-1
 344.653320312 384 l 1,10,-1
 393.877929688 320 l 1,11,-1
 364.327148438 192 l 1,12,-1
 285.55078125 128 l 1,13,-1
 93.55078125 128 l 1,14,-1
 64 0 l 1,15,-1
 0 0 l 1,6,-1
EndSplineSet
Validated: 1
EndChar

StartChar: germandbls
Encoding: 223 223 159
Width: 396
Flags: W
LayerCount: 2
Back
Fore
SplineSet
81.224609375 -64 m 1,0,-1
 88.6123046875 -32 l 1,1,-1
 168.612304688 -32 l 1,2,-1
 267.08203125 48 l 1,3,-1
 296.6328125 176 l 1,4,-1
 183.408203125 240 l 1,5,-1
 190.795898438 272 l 1,6,-1
 308.959960938 368 l 1,7,-1
 323.735351562 432 l 1,8,-1
 238.81640625 480 l 1,9,-1
 206.81640625 480 l 1,10,-1
 167.428710938 448 l 1,11,-1
 64 0 l 1,12,-1
 0 0 l 1,13,-1
 103.428710938 448 l 1,14,-1
 182.204101562 512 l 1,15,-1
 246.204101562 512 l 1,16,-1
 359.428710938 448 l 1,17,-1
 384.041015625 416 l 1,18,-1
 376.653320312 384 l 1,19,-1
 219.102539062 256 l 1,20,-1
 332.327148438 192 l 1,21,-1
 356.938476562 160 l 1,22,-1
 334.775390625 64 l 1,23,-1
 177.224609375 -64 l 1,24,-1
 81.224609375 -64 l 1,0,-1
EndSplineSet
Validated: 1
EndChar

StartChar: agrave
Encoding: 224 224 160
Width: 396
Flags: W
CounterMasks: 1 e0
LayerCount: 2
Back
Fore
SplineSet
263.387695312 32 m 1,0,-1
 285.55078125 128 l 1,1,-1
 125.55078125 128 l 1,2,-1
 86.1630859375 96 l 1,3,-1
 78.775390625 64 l 1,4,-1
 103.387695312 32 l 1,5,-1
 263.387695312 32 l 1,0,-1
64 0 m 1,6,-1
 14.775390625 64 l 1,7,-1
 22.1630859375 96 l 1,8,-1
 100.938476562 160 l 1,9,-1
 292.938476562 160 l 1,10,-1
 307.71484375 224 l 1,11,-1
 283.102539062 256 l 1,12,-1
 155.102539062 256 l 1,13,-1
 115.71484375 224 l 1,14,-1
 51.71484375 224 l 1,15,-1
 130.490234375 288 l 1,16,-1
 322.490234375 288 l 1,17,-1
 371.71484375 224 l 1,18,-1
 320 0 l 1,19,-1
 64 0 l 1,6,-1
297.877929688 320 m 1,20,-1
 156.34765625 400 l 1,21,-1
 163.735351562 432 l 1,22,-1
 195.735351562 432 l 1,23,-1
 337.265625 352 l 1,24,-1
 329.877929688 320 l 1,25,-1
 297.877929688 320 l 1,20,-1
EndSplineSet
Validated: 1
EndChar

StartChar: aacute
Encoding: 225 225 161
Width: 396
Flags: W
CounterMasks: 1 e0
LayerCount: 2
Back
Fore
SplineSet
263.387695312 32 m 1,0,-1
 285.55078125 128 l 1,1,-1
 125.55078125 128 l 1,2,-1
 86.1630859375 96 l 1,3,-1
 78.775390625 64 l 1,4,-1
 103.387695312 32 l 1,5,-1
 263.387695312 32 l 1,0,-1
64 0 m 1,6,-1
 14.775390625 64 l 1,7,-1
 22.1630859375 96 l 1,8,-1
 100.938476562 160 l 1,9,-1
 292.938476562 160 l 1,10,-1
 307.71484375 224 l 1,11,-1
 283.102539062 256 l 1,12,-1
 155.102539062 256 l 1,13,-1
 115.71484375 224 l 1,14,-1
 51.71484375 224 l 1,15,-1
 130.490234375 288 l 1,16,-1
 322.490234375 288 l 1,17,-1
 371.71484375 224 l 1,18,-1
 320 0 l 1,19,-1
 64 0 l 1,6,-1
137.877929688 320 m 1,20,-1
 145.265625 352 l 1,21,-1
 323.735351562 432 l 1,22,-1
 355.735351562 432 l 1,23,-1
 348.34765625 400 l 1,24,-1
 169.877929688 320 l 1,25,-1
 137.877929688 320 l 1,20,-1
EndSplineSet
Validated: 1
EndChar

StartChar: acircumflex
Encoding: 226 226 162
Width: 396
Flags: W
CounterMasks: 1 e0
LayerCount: 2
Back
Fore
SplineSet
263.387695312 32 m 1,0,-1
 285.55078125 128 l 1,1,-1
 125.55078125 128 l 1,2,-1
 86.1630859375 96 l 1,3,-1
 78.775390625 64 l 1,4,-1
 103.387695312 32 l 1,5,-1
 263.387695312 32 l 1,0,-1
64 0 m 1,6,-1
 14.775390625 64 l 1,7,-1
 22.1630859375 96 l 1,8,-1
 100.938476562 160 l 1,9,-1
 292.938476562 160 l 1,10,-1
 307.71484375 224 l 1,11,-1
 283.102539062 256 l 1,12,-1
 155.102539062 256 l 1,13,-1
 115.71484375 224 l 1,14,-1
 51.71484375 224 l 1,15,-1
 130.490234375 288 l 1,16,-1
 322.490234375 288 l 1,17,-1
 371.71484375 224 l 1,18,-1
 320 0 l 1,19,-1
 64 0 l 1,6,-1
105.877929688 320 m 1,20,-1
 113.265625 352 l 1,21,-1
 256.041015625 416 l 1,22,-1
 369.265625 352 l 1,23,-1
 361.877929688 320 l 1,24,-1
 329.877929688 320 l 1,25,-1
 230.806640625 376 l 1,26,-1
 105.877929688 320 l 1,27,-1
 105.877929688 320 l 1,20,-1
EndSplineSet
Validated: 5
EndChar

StartChar: atilde
Encoding: 227 227 163
Width: 396
Flags: W
CounterMasks: 1 e0
LayerCount: 2
Back
Fore
SplineSet
263.387695312 32 m 1,0,-1
 285.55078125 128 l 1,1,-1
 125.55078125 128 l 1,2,-1
 86.1630859375 96 l 1,3,-1
 78.775390625 64 l 1,4,-1
 103.387695312 32 l 1,5,-1
 263.387695312 32 l 1,0,-1
64 0 m 1,6,-1
 14.775390625 64 l 1,7,-1
 22.1630859375 96 l 1,8,-1
 100.938476562 160 l 1,9,-1
 292.938476562 160 l 1,10,-1
 307.71484375 224 l 1,11,-1
 283.102539062 256 l 1,12,-1
 155.102539062 256 l 1,13,-1
 115.71484375 224 l 1,14,-1
 51.71484375 224 l 1,15,-1
 130.490234375 288 l 1,16,-1
 322.490234375 288 l 1,17,-1
 371.71484375 224 l 1,18,-1
 320 0 l 1,19,-1
 64 0 l 1,6,-1
281.877929688 320 m 1,20,-1
 182.806640625 376 l 1,21,-1
 93.5712890625 336 l 1,22,-1
 100.959960938 368 l 1,23,-1
 208.041015625 416 l 1,24,-1
 307.112304688 360 l 1,25,-1
 396.34765625 400 l 1,26,-1
 388.959960938 368 l 1,27,-1
 281.877929688 320 l 1,28,-1
 281.877929688 320 l 1,20,-1
EndSplineSet
Validated: 5
EndChar

StartChar: adieresis
Encoding: 228 228 164
Width: 396
Flags: W
LayerCount: 2
Back
Fore
SplineSet
263.387695312 32 m 1,0,-1
 285.55078125 128 l 1,1,-1
 125.55078125 128 l 1,2,-1
 86.1630859375 96 l 1,3,-1
 78.775390625 64 l 1,4,-1
 103.387695312 32 l 1,5,-1
 263.387695312 32 l 1,0,-1
64 0 m 1,6,-1
 14.775390625 64 l 1,7,-1
 22.1630859375 96 l 1,8,-1
 100.938476562 160 l 1,9,-1
 292.938476562 160 l 1,10,-1
 307.71484375 224 l 1,11,-1
 283.102539062 256 l 1,12,-1
 155.102539062 256 l 1,13,-1
 115.71484375 224 l 1,14,-1
 51.71484375 224 l 1,15,-1
 130.490234375 288 l 1,16,-1
 322.490234375 288 l 1,17,-1
 371.71484375 224 l 1,18,-1
 320 0 l 1,19,-1
 64 0 l 1,6,-1
153.877929688 320 m 2,20,21
 146.877929688 320 146.877929688 320 142.801757812 324 c 0,22,23
 139.956054688 329 139.956054688 329 141.571289062 336 c 2,24,-1
 148.728515625 367 l 2,25,26
 150.344726562 374 150.344726562 374 155.499023438 379 c 0,27,28
 161.653320312 384 161.653320312 384 168.653320312 384 c 2,29,-1
 200.653320312 384 l 2,30,31
 206.653320312 384 206.653320312 384 210.499023438 379 c 256,32,33
 214.344726562 374 214.344726562 374 212.959960938 368 c 2,34,-1
 205.571289062 336 l 2,35,36
 203.956054688 329 203.956054688 329 197.801757812 324 c 0,37,38
 191.877929688 320 191.877929688 320 185.877929688 320 c 2,39,-1
 153.877929688 320 l 2,20,21
281.877929688 320 m 2,40,41
 274.877929688 320 274.877929688 320 270.801757812 324 c 0,42,43
 267.956054688 329 267.956054688 329 269.571289062 336 c 2,44,-1
 276.728515625 367 l 2,45,46
 278.344726562 374 278.344726562 374 283.499023438 379 c 0,47,48
 289.653320312 384 289.653320312 384 296.653320312 384 c 2,49,-1
 328.653320312 384 l 2,50,51
 334.653320312 384 334.653320312 384 338.499023438 379 c 256,52,53
 342.344726562 374 342.344726562 374 340.959960938 368 c 2,54,-1
 333.571289062 336 l 2,55,56
 331.956054688 329 331.956054688 329 325.801757812 324 c 0,57,58
 319.877929688 320 319.877929688 320 313.877929688 320 c 2,59,-1
 281.877929688 320 l 2,40,41
EndSplineSet
Validated: 1
EndChar

StartChar: aring
Encoding: 229 229 165
Width: 396
Flags: W
LayerCount: 2
Back
Fore
SplineSet
263.387695312 32 m 1,0,-1
 285.55078125 128 l 1,1,-1
 125.55078125 128 l 1,2,-1
 86.1630859375 96 l 1,3,-1
 78.775390625 64 l 1,4,-1
 103.387695312 32 l 1,5,-1
 263.387695312 32 l 1,0,-1
64 0 m 1,6,-1
 14.775390625 64 l 1,7,-1
 22.1630859375 96 l 1,8,-1
 100.938476562 160 l 1,9,-1
 292.938476562 160 l 1,10,-1
 307.71484375 224 l 1,11,-1
 283.102539062 256 l 1,12,-1
 155.102539062 256 l 1,13,-1
 115.71484375 224 l 1,14,-1
 51.71484375 224 l 1,15,-1
 130.490234375 288 l 1,16,-1
 322.490234375 288 l 1,17,-1
 371.71484375 224 l 1,18,-1
 320 0 l 1,19,-1
 64 0 l 1,6,-1
253.571289062 336 m 1,20,-1
 289.265625 352 l 1,21,-1
 296.653320312 384 l 1,22,-1
 268.34765625 400 l 1,23,-1
 236.34765625 400 l 1,24,-1
 200.653320312 384 l 1,25,-1
 193.265625 352 l 1,26,-1
 221.571289062 336 l 1,27,-1
 253.571289062 336 l 1,20,-1
185.877929688 320 m 1,28,-1
 157.571289062 336 l 1,29,-1
 172.34765625 400 l 1,30,-1
 208.041015625 416 l 1,31,-1
 304.041015625 416 l 1,32,-1
 332.34765625 400 l 1,33,-1
 317.571289062 336 l 1,34,-1
 281.877929688 320 l 1,35,-1
 185.877929688 320 l 1,28,-1
EndSplineSet
Validated: 1
EndChar

StartChar: ae
Encoding: 230 230 166
Width: 460
Flags: W
CounterMasks: 1 e0
LayerCount: 2
Back
Fore
SplineSet
167.387695312 32 m 1,0,-1
 189.55078125 128 l 1,1,-1
 125.55078125 128 l 1,2,-1
 86.1630859375 96 l 1,3,-1
 78.775390625 64 l 1,4,-1
 103.387695312 32 l 1,5,-1
 167.387695312 32 l 1,0,-1
356.938476562 160 m 1,6,-1
 371.71484375 224 l 1,7,-1
 347.102539062 256 l 1,8,-1
 283.102539062 256 l 1,9,-1
 260.938476562 160 l 1,10,-1
 356.938476562 160 l 1,6,-1
64 0 m 1,11,-1
 14.775390625 64 l 1,12,-1
 22.1630859375 96 l 1,13,-1
 100.938476562 160 l 1,14,-1
 196.938476562 160 l 1,15,-1
 219.102539062 256 l 1,16,-1
 155.102539062 256 l 1,17,-1
 115.71484375 224 l 1,18,-1
 51.71484375 224 l 1,19,-1
 130.490234375 288 l 1,20,-1
 386.490234375 288 l 1,21,-1
 435.71484375 224 l 1,22,-1
 413.55078125 128 l 1,23,-1
 253.55078125 128 l 1,24,-1
 231.387695312 32 l 1,25,-1
 295.387695312 32 l 1,26,-1
 334.775390625 64 l 1,27,-1
 398.775390625 64 l 1,28,-1
 320 0 l 1,29,-1
 64 0 l 1,11,-1
EndSplineSet
Validated: 1
EndChar

StartChar: ccedilla
Encoding: 231 231 167
Width: 396
Flags: W
LayerCount: 2
Back
Fore
SplineSet
102.142578125 -112 m 1,0,-1
 105.836914062 -96 l 1,1,-1
 177.224609375 -64 l 1,2,-1
 180.91796875 -48 l 1,3,-1
 124.305664062 -16 l 1,4,-1
 128 0 l 1,5,-1
 64 0 l 1,6,-1
 14.775390625 64 l 1,7,-1
 51.71484375 224 l 1,8,-1
 130.490234375 288 l 1,9,-1
 322.490234375 288 l 1,10,-1
 371.71484375 224 l 1,11,-1
 364.327148438 192 l 1,12,-1
 300.327148438 192 l 1,13,-1
 307.71484375 224 l 1,14,-1
 283.102539062 256 l 1,15,-1
 155.102539062 256 l 1,16,-1
 115.71484375 224 l 1,17,-1
 78.775390625 64 l 1,18,-1
 103.387695312 32 l 1,19,-1
 231.387695312 32 l 1,20,-1
 270.775390625 64 l 1,21,-1
 334.775390625 64 l 1,22,-1
 256 0 l 1,23,-1
 160 0 l 1,24,-1
 216.612304688 -32 l 1,25,-1
 205.530273438 -80 l 1,26,-1
 134.142578125 -112 l 1,27,-1
 102.142578125 -112 l 1,0,-1
EndSplineSet
Validated: 1
EndChar

StartChar: egrave
Encoding: 232 232 168
Width: 396
Flags: W
CounterMasks: 1 e0
LayerCount: 2
Back
Fore
SplineSet
292.938476562 160 m 1,0,-1
 307.71484375 224 l 1,1,-1
 283.102539062 256 l 1,2,-1
 155.102539062 256 l 1,3,-1
 115.71484375 224 l 1,4,-1
 100.938476562 160 l 1,5,-1
 292.938476562 160 l 1,0,-1
64 0 m 1,6,-1
 14.775390625 64 l 1,7,-1
 51.71484375 224 l 1,8,-1
 130.490234375 288 l 1,9,-1
 322.490234375 288 l 1,10,-1
 371.71484375 224 l 1,11,-1
 349.55078125 128 l 1,12,-1
 93.55078125 128 l 1,13,-1
 78.775390625 64 l 1,14,-1
 103.387695312 32 l 1,15,-1
 231.387695312 32 l 1,16,-1
 270.775390625 64 l 1,17,-1
 334.775390625 64 l 1,18,-1
 256 0 l 1,19,-1
 64 0 l 1,6,-1
297.877929688 320 m 1,20,-1
 156.34765625 400 l 1,21,-1
 163.735351562 432 l 1,22,-1
 195.735351562 432 l 1,23,-1
 337.265625 352 l 1,24,-1
 329.877929688 320 l 1,25,-1
 297.877929688 320 l 1,20,-1
EndSplineSet
Validated: 1
EndChar

StartChar: eacute
Encoding: 233 233 169
Width: 396
Flags: W
CounterMasks: 1 e0
LayerCount: 2
Back
Fore
SplineSet
292.938476562 160 m 1,0,-1
 307.71484375 224 l 1,1,-1
 283.102539062 256 l 1,2,-1
 155.102539062 256 l 1,3,-1
 115.71484375 224 l 1,4,-1
 100.938476562 160 l 1,5,-1
 292.938476562 160 l 1,0,-1
64 0 m 1,6,-1
 14.775390625 64 l 1,7,-1
 51.71484375 224 l 1,8,-1
 130.490234375 288 l 1,9,-1
 322.490234375 288 l 1,10,-1
 371.71484375 224 l 1,11,-1
 349.55078125 128 l 1,12,-1
 93.55078125 128 l 1,13,-1
 78.775390625 64 l 1,14,-1
 103.387695312 32 l 1,15,-1
 231.387695312 32 l 1,16,-1
 270.775390625 64 l 1,17,-1
 334.775390625 64 l 1,18,-1
 256 0 l 1,19,-1
 64 0 l 1,6,-1
137.877929688 320 m 1,20,-1
 145.265625 352 l 1,21,-1
 323.735351562 432 l 1,22,-1
 355.735351562 432 l 1,23,-1
 348.34765625 400 l 1,24,-1
 169.877929688 320 l 1,25,-1
 137.877929688 320 l 1,20,-1
EndSplineSet
Validated: 1
EndChar

StartChar: ecircumflex
Encoding: 234 234 170
Width: 396
Flags: W
CounterMasks: 1 e0
LayerCount: 2
Back
Fore
SplineSet
292.938476562 160 m 1,0,-1
 307.71484375 224 l 1,1,-1
 283.102539062 256 l 1,2,-1
 155.102539062 256 l 1,3,-1
 115.71484375 224 l 1,4,-1
 100.938476562 160 l 1,5,-1
 292.938476562 160 l 1,0,-1
64 0 m 1,6,-1
 14.775390625 64 l 1,7,-1
 51.71484375 224 l 1,8,-1
 130.490234375 288 l 1,9,-1
 322.490234375 288 l 1,10,-1
 371.71484375 224 l 1,11,-1
 349.55078125 128 l 1,12,-1
 93.55078125 128 l 1,13,-1
 78.775390625 64 l 1,14,-1
 103.387695312 32 l 1,15,-1
 231.387695312 32 l 1,16,-1
 270.775390625 64 l 1,17,-1
 334.775390625 64 l 1,18,-1
 256 0 l 1,19,-1
 64 0 l 1,6,-1
105.877929688 320 m 1,20,-1
 113.265625 352 l 1,21,-1
 256.041015625 416 l 1,22,-1
 369.265625 352 l 1,23,-1
 361.877929688 320 l 1,24,-1
 329.877929688 320 l 1,25,-1
 230.806640625 376 l 1,26,-1
 105.877929688 320 l 1,27,-1
 105.877929688 320 l 1,20,-1
EndSplineSet
Validated: 5
EndChar

StartChar: edieresis
Encoding: 235 235 171
Width: 396
Flags: W
LayerCount: 2
Back
Fore
SplineSet
292.938476562 160 m 1,0,-1
 307.71484375 224 l 1,1,-1
 283.102539062 256 l 1,2,-1
 155.102539062 256 l 1,3,-1
 115.71484375 224 l 1,4,-1
 100.938476562 160 l 1,5,-1
 292.938476562 160 l 1,0,-1
64 0 m 1,6,-1
 14.775390625 64 l 1,7,-1
 51.71484375 224 l 1,8,-1
 130.490234375 288 l 1,9,-1
 322.490234375 288 l 1,10,-1
 371.71484375 224 l 1,11,-1
 349.55078125 128 l 1,12,-1
 93.55078125 128 l 1,13,-1
 78.775390625 64 l 1,14,-1
 103.387695312 32 l 1,15,-1
 231.387695312 32 l 1,16,-1
 270.775390625 64 l 1,17,-1
 334.775390625 64 l 1,18,-1
 256 0 l 1,19,-1
 64 0 l 1,6,-1
153.877929688 320 m 2,20,21
 146.877929688 320 146.877929688 320 142.801757812 324 c 0,22,23
 139.956054688 329 139.956054688 329 141.571289062 336 c 2,24,-1
 148.728515625 367 l 2,25,26
 150.344726562 374 150.344726562 374 155.499023438 379 c 0,27,28
 161.653320312 384 161.653320312 384 168.653320312 384 c 2,29,-1
 200.653320312 384 l 2,30,31
 206.653320312 384 206.653320312 384 210.499023438 379 c 256,32,33
 214.344726562 374 214.344726562 374 212.959960938 368 c 2,34,-1
 205.571289062 336 l 2,35,36
 203.956054688 329 203.956054688 329 197.801757812 324 c 0,37,38
 191.877929688 320 191.877929688 320 185.877929688 320 c 2,39,-1
 153.877929688 320 l 2,20,21
281.877929688 320 m 2,40,41
 274.877929688 320 274.877929688 320 270.801757812 324 c 0,42,43
 267.956054688 329 267.956054688 329 269.571289062 336 c 2,44,-1
 276.728515625 367 l 2,45,46
 278.344726562 374 278.344726562 374 283.499023438 379 c 0,47,48
 289.653320312 384 289.653320312 384 296.653320312 384 c 2,49,-1
 328.653320312 384 l 2,50,51
 334.653320312 384 334.653320312 384 338.499023438 379 c 256,52,53
 342.344726562 374 342.344726562 374 340.959960938 368 c 2,54,-1
 333.571289062 336 l 2,55,56
 331.956054688 329 331.956054688 329 325.801757812 324 c 0,57,58
 319.877929688 320 319.877929688 320 313.877929688 320 c 2,59,-1
 281.877929688 320 l 2,40,41
EndSplineSet
Validated: 1
EndChar

StartChar: igrave
Encoding: 236 236 172
Width: 268
Flags: W
LayerCount: 2
Back
Fore
SplineSet
64 0 m 1,0,-1
 130.490234375 288 l 1,1,-1
 194.490234375 288 l 1,2,-1
 128 0 l 1,3,-1
 64 0 l 1,0,-1
233.877929688 320 m 1,4,-1
 92.34765625 400 l 1,5,-1
 99.7353515625 432 l 1,6,-1
 131.735351562 432 l 1,7,-1
 273.265625 352 l 1,8,-1
 265.877929688 320 l 1,9,-1
 233.877929688 320 l 1,4,-1
EndSplineSet
Validated: 1
EndChar

StartChar: iacute
Encoding: 237 237 173
Width: 268
Flags: W
LayerCount: 2
Back
Fore
SplineSet
64 0 m 1,0,-1
 130.490234375 288 l 1,1,-1
 194.490234375 288 l 1,2,-1
 128 0 l 1,3,-1
 64 0 l 1,0,-1
73.8779296875 320 m 1,4,-1
 81.265625 352 l 1,5,-1
 259.735351562 432 l 1,6,-1
 291.735351562 432 l 1,7,-1
 284.34765625 400 l 1,8,-1
 105.877929688 320 l 1,9,-1
 73.8779296875 320 l 1,4,-1
EndSplineSet
Validated: 1
EndChar

StartChar: icircumflex
Encoding: 238 238 174
Width: 268
Flags: W
LayerCount: 2
Back
Fore
SplineSet
64 0 m 1,0,-1
 130.490234375 288 l 1,1,-1
 194.490234375 288 l 1,2,-1
 128 0 l 1,3,-1
 64 0 l 1,0,-1
265.877929688 320 m 1,4,-1
 166.806640625 376 l 1,5,-1
 77.5712890625 336 l 1,6,-1
 84.9599609375 368 l 1,7,-1
 192.041015625 416 l 1,8,-1
 276.959960938 368 l 1,9,-1
 265.877929688 320 l 1,10,-1
 265.877929688 320 l 1,4,-1
EndSplineSet
Validated: 5
EndChar

StartChar: idieresis
Encoding: 239 239 175
Width: 268
Flags: W
LayerCount: 2
Back
Fore
SplineSet
64 0 m 1,0,-1
 130.490234375 288 l 1,1,-1
 194.490234375 288 l 1,2,-1
 128 0 l 1,3,-1
 64 0 l 1,0,-1
89.8779296875 320 m 2,4,5
 82.8779296875 320 82.8779296875 320 78.8017578125 324 c 0,6,7
 75.9560546875 329 75.9560546875 329 77.5712890625 336 c 2,8,-1
 84.728515625 367 l 2,9,10
 86.3447265625 374 86.3447265625 374 91.4990234375 379 c 0,11,12
 97.6533203125 384 97.6533203125 384 104.653320312 384 c 2,13,-1
 136.653320312 384 l 2,14,15
 142.653320312 384 142.653320312 384 146.499023438 379 c 256,16,17
 150.344726562 374 150.344726562 374 148.959960938 368 c 2,18,-1
 141.571289062 336 l 2,19,20
 139.956054688 329 139.956054688 329 133.801757812 324 c 0,21,22
 127.877929688 320 127.877929688 320 121.877929688 320 c 2,23,-1
 89.8779296875 320 l 2,4,5
217.877929688 320 m 2,24,25
 210.877929688 320 210.877929688 320 206.801757812 324 c 0,26,27
 203.956054688 329 203.956054688 329 205.571289062 336 c 2,28,-1
 212.728515625 367 l 2,29,30
 214.344726562 374 214.344726562 374 219.499023438 379 c 0,31,32
 225.653320312 384 225.653320312 384 232.653320312 384 c 2,33,-1
 264.653320312 384 l 2,34,35
 270.653320312 384 270.653320312 384 274.499023438 379 c 256,36,37
 278.344726562 374 278.344726562 374 276.959960938 368 c 2,38,-1
 269.571289062 336 l 2,39,40
 267.956054688 329 267.956054688 329 261.801757812 324 c 0,41,42
 255.877929688 320 255.877929688 320 249.877929688 320 c 2,43,-1
 217.877929688 320 l 2,24,25
EndSplineSet
Validated: 1
EndChar

StartChar: eth
Encoding: 240 240 176
Width: 396
Flags: W
LayerCount: 2
Back
Fore
SplineSet
231.387695312 32 m 1,0,-1
 270.775390625 64 l 1,1,-1
 307.71484375 224 l 1,2,-1
 283.102539062 256 l 1,3,-1
 155.102539062 256 l 1,4,-1
 115.71484375 224 l 1,5,-1
 78.775390625 64 l 1,6,-1
 103.387695312 32 l 1,7,-1
 231.387695312 32 l 1,0,-1
64 0 m 1,8,-1
 14.775390625 64 l 1,9,-1
 51.71484375 224 l 1,10,-1
 130.490234375 288 l 1,11,-1
 290.490234375 288 l 1,12,-1
 264.653320312 384 l 1,13,-1
 184.653320312 384 l 1,14,-1
 192.041015625 416 l 1,15,-1
 256.041015625 416 l 1,16,-1
 238.81640625 480 l 1,17,-1
 318.81640625 480 l 1,18,-1
 336.041015625 416 l 1,19,-1
 416.041015625 416 l 1,20,-1
 408.653320312 384 l 1,21,-1
 344.653320312 384 l 1,22,-1
 379.102539062 256 l 1,23,-1
 334.775390625 64 l 1,24,-1
 256 0 l 1,25,-1
 64 0 l 1,8,-1
EndSplineSet
Validated: 1
EndChar

StartChar: ntilde
Encoding: 241 241 177
Width: 396
Flags: W
LayerCount: 2
Back
Fore
SplineSet
0 0 m 1,0,-1
 66.490234375 288 l 1,1,-1
 322.490234375 288 l 1,2,-1
 371.71484375 224 l 1,3,-1
 320 0 l 1,4,-1
 256 0 l 1,5,-1
 307.71484375 224 l 1,6,-1
 283.102539062 256 l 1,7,-1
 123.102539062 256 l 1,8,-1
 64 0 l 1,9,-1
 0 0 l 1,0,-1
281.877929688 320 m 1,10,-1
 182.806640625 376 l 1,11,-1
 93.5712890625 336 l 1,12,-1
 100.959960938 368 l 1,13,-1
 208.041015625 416 l 1,14,-1
 307.112304688 360 l 1,15,-1
 396.34765625 400 l 1,16,-1
 388.959960938 368 l 1,17,-1
 281.877929688 320 l 1,18,-1
 281.877929688 320 l 1,10,-1
EndSplineSet
Validated: 5
EndChar

StartChar: ograve
Encoding: 242 242 178
Width: 396
Flags: W
LayerCount: 2
Back
Fore
SplineSet
231.387695312 32 m 1,0,-1
 270.775390625 64 l 1,1,-1
 307.71484375 224 l 1,2,-1
 283.102539062 256 l 1,3,-1
 155.102539062 256 l 1,4,-1
 115.71484375 224 l 1,5,-1
 78.775390625 64 l 1,6,-1
 103.387695312 32 l 1,7,-1
 231.387695312 32 l 1,0,-1
64 0 m 1,8,-1
 14.775390625 64 l 1,9,-1
 51.71484375 224 l 1,10,-1
 130.490234375 288 l 1,11,-1
 322.490234375 288 l 1,12,-1
 371.71484375 224 l 1,13,-1
 334.775390625 64 l 1,14,-1
 256 0 l 1,15,-1
 64 0 l 1,8,-1
297.877929688 320 m 1,16,-1
 156.34765625 400 l 1,17,-1
 163.735351562 432 l 1,18,-1
 195.735351562 432 l 1,19,-1
 337.265625 352 l 1,20,-1
 329.877929688 320 l 1,21,-1
 297.877929688 320 l 1,16,-1
EndSplineSet
Validated: 1
EndChar

StartChar: oacute
Encoding: 243 243 179
Width: 396
Flags: W
LayerCount: 2
Back
Fore
SplineSet
231.387695312 32 m 1,0,-1
 270.775390625 64 l 1,1,-1
 307.71484375 224 l 1,2,-1
 283.102539062 256 l 1,3,-1
 155.102539062 256 l 1,4,-1
 115.71484375 224 l 1,5,-1
 78.775390625 64 l 1,6,-1
 103.387695312 32 l 1,7,-1
 231.387695312 32 l 1,0,-1
64 0 m 1,8,-1
 14.775390625 64 l 1,9,-1
 51.71484375 224 l 1,10,-1
 130.490234375 288 l 1,11,-1
 322.490234375 288 l 1,12,-1
 371.71484375 224 l 1,13,-1
 334.775390625 64 l 1,14,-1
 256 0 l 1,15,-1
 64 0 l 1,8,-1
137.877929688 320 m 1,16,-1
 145.265625 352 l 1,17,-1
 323.735351562 432 l 1,18,-1
 355.735351562 432 l 1,19,-1
 348.34765625 400 l 1,20,-1
 169.877929688 320 l 1,21,-1
 137.877929688 320 l 1,16,-1
EndSplineSet
Validated: 1
EndChar

StartChar: ocircumflex
Encoding: 244 244 180
Width: 396
Flags: W
LayerCount: 2
Back
Fore
SplineSet
231.387695312 32 m 1,0,-1
 270.775390625 64 l 1,1,-1
 307.71484375 224 l 1,2,-1
 283.102539062 256 l 1,3,-1
 155.102539062 256 l 1,4,-1
 115.71484375 224 l 1,5,-1
 78.775390625 64 l 1,6,-1
 103.387695312 32 l 1,7,-1
 231.387695312 32 l 1,0,-1
64 0 m 1,8,-1
 14.775390625 64 l 1,9,-1
 51.71484375 224 l 1,10,-1
 130.490234375 288 l 1,11,-1
 322.490234375 288 l 1,12,-1
 371.71484375 224 l 1,13,-1
 334.775390625 64 l 1,14,-1
 256 0 l 1,15,-1
 64 0 l 1,8,-1
105.877929688 320 m 1,16,-1
 113.265625 352 l 1,17,-1
 256.041015625 416 l 1,18,-1
 369.265625 352 l 1,19,-1
 361.877929688 320 l 1,20,-1
 329.877929688 320 l 1,21,-1
 230.806640625 376 l 1,22,-1
 105.877929688 320 l 1,23,-1
 105.877929688 320 l 1,16,-1
EndSplineSet
Validated: 5
EndChar

StartChar: otilde
Encoding: 245 245 181
Width: 396
Flags: W
LayerCount: 2
Back
Fore
SplineSet
231.387695312 32 m 1,0,-1
 270.775390625 64 l 1,1,-1
 307.71484375 224 l 1,2,-1
 283.102539062 256 l 1,3,-1
 155.102539062 256 l 1,4,-1
 115.71484375 224 l 1,5,-1
 78.775390625 64 l 1,6,-1
 103.387695312 32 l 1,7,-1
 231.387695312 32 l 1,0,-1
64 0 m 1,8,-1
 14.775390625 64 l 1,9,-1
 51.71484375 224 l 1,10,-1
 130.490234375 288 l 1,11,-1
 322.490234375 288 l 1,12,-1
 371.71484375 224 l 1,13,-1
 334.775390625 64 l 1,14,-1
 256 0 l 1,15,-1
 64 0 l 1,8,-1
281.877929688 320 m 1,16,-1
 182.806640625 376 l 1,17,-1
 93.5712890625 336 l 1,18,-1
 100.959960938 368 l 1,19,-1
 208.041015625 416 l 1,20,-1
 307.112304688 360 l 1,21,-1
 396.34765625 400 l 1,22,-1
 388.959960938 368 l 1,23,-1
 281.877929688 320 l 1,24,-1
 281.877929688 320 l 1,16,-1
EndSplineSet
Validated: 5
EndChar

StartChar: odieresis
Encoding: 246 246 182
Width: 396
Flags: W
LayerCount: 2
Back
Fore
SplineSet
231.387695312 32 m 1,0,-1
 270.775390625 64 l 1,1,-1
 307.71484375 224 l 1,2,-1
 283.102539062 256 l 1,3,-1
 155.102539062 256 l 1,4,-1
 115.71484375 224 l 1,5,-1
 78.775390625 64 l 1,6,-1
 103.387695312 32 l 1,7,-1
 231.387695312 32 l 1,0,-1
64 0 m 1,8,-1
 14.775390625 64 l 1,9,-1
 51.71484375 224 l 1,10,-1
 130.490234375 288 l 1,11,-1
 322.490234375 288 l 1,12,-1
 371.71484375 224 l 1,13,-1
 334.775390625 64 l 1,14,-1
 256 0 l 1,15,-1
 64 0 l 1,8,-1
153.877929688 320 m 2,16,17
 146.877929688 320 146.877929688 320 142.801757812 324 c 0,18,19
 139.956054688 329 139.956054688 329 141.571289062 336 c 2,20,-1
 148.728515625 367 l 2,21,22
 150.344726562 374 150.344726562 374 155.499023438 379 c 0,23,24
 161.653320312 384 161.653320312 384 168.653320312 384 c 2,25,-1
 200.653320312 384 l 2,26,27
 206.653320312 384 206.653320312 384 210.499023438 379 c 256,28,29
 214.344726562 374 214.344726562 374 212.959960938 368 c 2,30,-1
 205.571289062 336 l 2,31,32
 203.956054688 329 203.956054688 329 197.801757812 324 c 0,33,34
 191.877929688 320 191.877929688 320 185.877929688 320 c 2,35,-1
 153.877929688 320 l 2,16,17
281.877929688 320 m 2,36,37
 274.877929688 320 274.877929688 320 270.801757812 324 c 0,38,39
 267.956054688 329 267.956054688 329 269.571289062 336 c 2,40,-1
 276.728515625 367 l 2,41,42
 278.344726562 374 278.344726562 374 283.499023438 379 c 0,43,44
 289.653320312 384 289.653320312 384 296.653320312 384 c 2,45,-1
 328.653320312 384 l 2,46,47
 334.653320312 384 334.653320312 384 338.499023438 379 c 256,48,49
 342.344726562 374 342.344726562 374 340.959960938 368 c 2,50,-1
 333.571289062 336 l 2,51,52
 331.956054688 329 331.956054688 329 325.801757812 324 c 0,53,54
 319.877929688 320 319.877929688 320 313.877929688 320 c 2,55,-1
 281.877929688 320 l 2,36,37
EndSplineSet
Validated: 1
EndChar

StartChar: divide
Encoding: 247 247 183
Width: 332
Flags: W
CounterMasks: 1 e0
LayerCount: 2
Back
Fore
SplineSet
129.245117188 144 m 1,0,-1
 147.71484375 224 l 1,1,-1
 211.71484375 224 l 1,2,-1
 193.245117188 144 l 1,3,-1
 129.245117188 144 l 1,0,-1
59.1025390625 256 m 1,4,-1
 66.490234375 288 l 1,5,-1
 322.490234375 288 l 1,6,-1
 315.102539062 256 l 1,7,-1
 59.1025390625 256 l 1,4,-1
169.877929688 320 m 1,8,-1
 188.34765625 400 l 1,9,-1
 252.34765625 400 l 1,10,-1
 233.877929688 320 l 1,11,-1
 169.877929688 320 l 1,8,-1
EndSplineSet
Validated: 1
EndChar

StartChar: oslash
Encoding: 248 248 184
Width: 396
Flags: W
LayerCount: 2
Back
Fore
SplineSet
231.387695312 32 m 1,0,-1
 270.775390625 64 l 1,1,-1
 296.6328125 176 l 1,2,-1
 82.4697265625 80 l 1,3,-1
 78.775390625 64 l 1,4,-1
 103.387695312 32 l 1,5,-1
 231.387695312 32 l 1,0,-1
89.857421875 112 m 1,6,-1
 304.020507812 208 l 1,7,-1
 307.71484375 224 l 1,8,-1
 283.102539062 256 l 1,9,-1
 155.102539062 256 l 1,10,-1
 115.71484375 224 l 1,11,-1
 89.857421875 112 l 1,12,-1
 89.857421875 112 l 1,6,-1
64 0 m 1,13,-1
 14.775390625 64 l 1,14,-1
 51.71484375 224 l 1,15,-1
 130.490234375 288 l 1,16,-1
 322.490234375 288 l 1,17,-1
 371.71484375 224 l 1,18,-1
 334.775390625 64 l 1,19,-1
 256 0 l 1,20,-1
 64 0 l 1,13,-1
EndSplineSet
Validated: 5
EndChar

StartChar: ugrave
Encoding: 249 249 185
Width: 396
Flags: W
LayerCount: 2
Back
Fore
SplineSet
64 0 m 1,0,-1
 14.775390625 64 l 1,1,-1
 66.490234375 288 l 1,2,-1
 130.490234375 288 l 1,3,-1
 78.775390625 64 l 1,4,-1
 103.387695312 32 l 1,5,-1
 263.387695312 32 l 1,6,-1
 322.490234375 288 l 1,7,-1
 386.490234375 288 l 1,8,-1
 320 0 l 1,9,-1
 64 0 l 1,0,-1
297.877929688 320 m 1,10,-1
 156.34765625 400 l 1,11,-1
 163.735351562 432 l 1,12,-1
 195.735351562 432 l 1,13,-1
 337.265625 352 l 1,14,-1
 329.877929688 320 l 1,15,-1
 297.877929688 320 l 1,10,-1
EndSplineSet
Validated: 1
EndChar

StartChar: uacute
Encoding: 250 250 186
Width: 396
Flags: W
LayerCount: 2
Back
Fore
SplineSet
64 0 m 1,0,-1
 14.775390625 64 l 1,1,-1
 66.490234375 288 l 1,2,-1
 130.490234375 288 l 1,3,-1
 78.775390625 64 l 1,4,-1
 103.387695312 32 l 1,5,-1
 263.387695312 32 l 1,6,-1
 322.490234375 288 l 1,7,-1
 386.490234375 288 l 1,8,-1
 320 0 l 1,9,-1
 64 0 l 1,0,-1
137.877929688 320 m 1,10,-1
 145.265625 352 l 1,11,-1
 323.735351562 432 l 1,12,-1
 355.735351562 432 l 1,13,-1
 348.34765625 400 l 1,14,-1
 169.877929688 320 l 1,15,-1
 137.877929688 320 l 1,10,-1
EndSplineSet
Validated: 1
EndChar

StartChar: ucircumflex
Encoding: 251 251 187
Width: 396
Flags: W
LayerCount: 2
Back
Fore
SplineSet
64 0 m 1,0,-1
 14.775390625 64 l 1,1,-1
 66.490234375 288 l 1,2,-1
 130.490234375 288 l 1,3,-1
 78.775390625 64 l 1,4,-1
 103.387695312 32 l 1,5,-1
 263.387695312 32 l 1,6,-1
 322.490234375 288 l 1,7,-1
 386.490234375 288 l 1,8,-1
 320 0 l 1,9,-1
 64 0 l 1,0,-1
105.877929688 320 m 1,10,-1
 113.265625 352 l 1,11,-1
 256.041015625 416 l 1,12,-1
 369.265625 352 l 1,13,-1
 361.877929688 320 l 1,14,-1
 329.877929688 320 l 1,15,-1
 230.806640625 376 l 1,16,-1
 105.877929688 320 l 1,17,-1
 105.877929688 320 l 1,10,-1
EndSplineSet
Validated: 5
EndChar

StartChar: udieresis
Encoding: 252 252 188
Width: 396
Flags: W
LayerCount: 2
Back
Fore
SplineSet
64 0 m 1,0,-1
 14.775390625 64 l 1,1,-1
 66.490234375 288 l 1,2,-1
 130.490234375 288 l 1,3,-1
 78.775390625 64 l 1,4,-1
 103.387695312 32 l 1,5,-1
 263.387695312 32 l 1,6,-1
 322.490234375 288 l 1,7,-1
 386.490234375 288 l 1,8,-1
 320 0 l 1,9,-1
 64 0 l 1,0,-1
153.877929688 320 m 2,10,11
 146.877929688 320 146.877929688 320 142.801757812 324 c 0,12,13
 139.956054688 329 139.956054688 329 141.571289062 336 c 2,14,-1
 148.728515625 367 l 2,15,16
 150.344726562 374 150.344726562 374 155.499023438 379 c 0,17,18
 161.653320312 384 161.653320312 384 168.653320312 384 c 2,19,-1
 200.653320312 384 l 2,20,21
 206.653320312 384 206.653320312 384 210.499023438 379 c 256,22,23
 214.344726562 374 214.344726562 374 212.959960938 368 c 2,24,-1
 205.571289062 336 l 2,25,26
 203.956054688 329 203.956054688 329 197.801757812 324 c 0,27,28
 191.877929688 320 191.877929688 320 185.877929688 320 c 2,29,-1
 153.877929688 320 l 2,10,11
281.877929688 320 m 2,30,31
 274.877929688 320 274.877929688 320 270.801757812 324 c 0,32,33
 267.956054688 329 267.956054688 329 269.571289062 336 c 2,34,-1
 276.728515625 367 l 2,35,36
 278.344726562 374 278.344726562 374 283.499023438 379 c 0,37,38
 289.653320312 384 289.653320312 384 296.653320312 384 c 2,39,-1
 328.653320312 384 l 2,40,41
 334.653320312 384 334.653320312 384 338.499023438 379 c 256,42,43
 342.344726562 374 342.344726562 374 340.959960938 368 c 2,44,-1
 333.571289062 336 l 2,45,46
 331.956054688 329 331.956054688 329 325.801757812 324 c 0,47,48
 319.877929688 320 319.877929688 320 313.877929688 320 c 2,49,-1
 281.877929688 320 l 2,30,31
EndSplineSet
Validated: 1
EndChar

StartChar: yacute
Encoding: 253 253 189
Width: 396
Flags: W
LayerCount: 2
Back
Fore
SplineSet
34.44921875 -128 m 1,0,-1
 41.8369140625 -96 l 1,1,-1
 201.836914062 -96 l 1,2,-1
 241.224609375 -64 l 1,3,-1
 256 0 l 1,4,-1
 64 0 l 1,5,-1
 14.775390625 64 l 1,6,-1
 66.490234375 288 l 1,7,-1
 130.490234375 288 l 1,8,-1
 78.775390625 64 l 1,9,-1
 103.387695312 32 l 1,10,-1
 263.387695312 32 l 1,11,-1
 322.490234375 288 l 1,12,-1
 386.490234375 288 l 1,13,-1
 305.224609375 -64 l 1,14,-1
 226.44921875 -128 l 1,15,-1
 34.44921875 -128 l 1,0,-1
137.877929688 320 m 1,16,-1
 145.265625 352 l 1,17,-1
 323.735351562 432 l 1,18,-1
 355.735351562 432 l 1,19,-1
 348.34765625 400 l 1,20,-1
 169.877929688 320 l 1,21,-1
 137.877929688 320 l 1,16,-1
EndSplineSet
Validated: 1
EndChar

StartChar: thorn
Encoding: 254 254 190
Width: 396
Flags: W
LayerCount: 2
Back
Fore
SplineSet
231.387695312 32 m 1,0,-1
 270.775390625 64 l 1,1,-1
 307.71484375 224 l 1,2,-1
 283.102539062 256 l 1,3,-1
 123.102539062 256 l 1,4,-1
 71.3876953125 32 l 1,5,-1
 231.387695312 32 l 1,0,-1
-29.55078125 -128 m 1,6,-1
 103.428710938 448 l 1,7,-1
 167.428710938 448 l 1,8,-1
 130.490234375 288 l 1,9,-1
 322.490234375 288 l 1,10,-1
 371.71484375 224 l 1,11,-1
 334.775390625 64 l 1,12,-1
 256 0 l 1,13,-1
 64 0 l 1,14,-1
 34.44921875 -128 l 1,15,-1
 -29.55078125 -128 l 1,6,-1
EndSplineSet
Validated: 1
EndChar

StartChar: ydieresis
Encoding: 255 255 191
Width: 396
Flags: W
LayerCount: 2
Back
Fore
SplineSet
34.44921875 -128 m 1,0,-1
 41.8369140625 -96 l 1,1,-1
 201.836914062 -96 l 1,2,-1
 241.224609375 -64 l 1,3,-1
 256 0 l 1,4,-1
 64 0 l 1,5,-1
 14.775390625 64 l 1,6,-1
 66.490234375 288 l 1,7,-1
 130.490234375 288 l 1,8,-1
 78.775390625 64 l 1,9,-1
 103.387695312 32 l 1,10,-1
 263.387695312 32 l 1,11,-1
 322.490234375 288 l 1,12,-1
 386.490234375 288 l 1,13,-1
 305.224609375 -64 l 1,14,-1
 226.44921875 -128 l 1,15,-1
 34.44921875 -128 l 1,0,-1
153.877929688 320 m 2,16,17
 146.877929688 320 146.877929688 320 142.801757812 324 c 0,18,19
 139.956054688 329 139.956054688 329 141.571289062 336 c 2,20,-1
 148.728515625 367 l 2,21,22
 150.344726562 374 150.344726562 374 155.499023438 379 c 0,23,24
 161.653320312 384 161.653320312 384 168.653320312 384 c 2,25,-1
 200.653320312 384 l 2,26,27
 206.653320312 384 206.653320312 384 210.499023438 379 c 256,28,29
 214.344726562 374 214.344726562 374 212.959960938 368 c 2,30,-1
 205.571289062 336 l 2,31,32
 203.956054688 329 203.956054688 329 197.801757812 324 c 0,33,34
 191.877929688 320 191.877929688 320 185.877929688 320 c 2,35,-1
 153.877929688 320 l 2,16,17
281.877929688 320 m 2,36,37
 274.877929688 320 274.877929688 320 270.801757812 324 c 0,38,39
 267.956054688 329 267.956054688 329 269.571289062 336 c 2,40,-1
 276.728515625 367 l 2,41,42
 278.344726562 374 278.344726562 374 283.499023438 379 c 0,43,44
 289.653320312 384 289.653320312 384 296.653320312 384 c 2,45,-1
 328.653320312 384 l 2,46,47
 334.653320312 384 334.653320312 384 338.499023438 379 c 256,48,49
 342.344726562 374 342.344726562 374 340.959960938 368 c 2,50,-1
 333.571289062 336 l 2,51,52
 331.956054688 329 331.956054688 329 325.801757812 324 c 0,53,54
 319.877929688 320 319.877929688 320 313.877929688 320 c 2,55,-1
 281.877929688 320 l 2,36,37
EndSplineSet
Validated: 1
EndChar

StartChar: Ydieresis
Encoding: 376 376 192
Width: 396
Flags: W
LayerCount: 2
Back
Fore
SplineSet
96 0 m 1,0,-1
 103.387695312 32 l 1,1,-1
 199.387695312 32 l 1,2,-1
 278.163085938 96 l 1,3,-1
 300.327148438 192 l 1,4,-1
 204.327148438 192 l 1,5,-1
 118.204101562 512 l 1,6,-1
 182.204101562 512 l 1,7,-1
 259.71484375 224 l 1,8,-1
 307.71484375 224 l 1,9,-1
 374.204101562 512 l 1,10,-1
 438.204101562 512 l 1,11,-1
 342.163085938 96 l 1,12,-1
 224 0 l 1,13,-1
 96 0 l 1,0,-1
205.592773438 544 m 2,14,15
 198.592773438 544 198.592773438 544 194.515625 548 c 0,16,17
 191.669921875 553 191.669921875 553 193.286132812 560 c 2,18,-1
 200.443359375 591 l 2,19,20
 202.059570312 598 202.059570312 598 207.213867188 603 c 0,21,22
 213.368164062 608 213.368164062 608 220.368164062 608 c 2,23,-1
 252.368164062 608 l 2,24,25
 258.368164062 608 258.368164062 608 262.213867188 603 c 256,26,27
 266.059570312 598 266.059570312 598 264.673828125 592 c 2,28,-1
 257.286132812 560 l 2,29,30
 255.669921875 553 255.669921875 553 249.515625 548 c 0,31,32
 243.592773438 544 243.592773438 544 237.592773438 544 c 2,33,-1
 205.592773438 544 l 2,14,15
333.592773438 544 m 2,34,35
 326.592773438 544 326.592773438 544 322.515625 548 c 0,36,37
 319.669921875 553 319.669921875 553 321.286132812 560 c 2,38,-1
 328.443359375 591 l 2,39,40
 330.059570312 598 330.059570312 598 335.213867188 603 c 0,41,42
 341.368164062 608 341.368164062 608 348.368164062 608 c 2,43,-1
 380.368164062 608 l 2,44,45
 386.368164062 608 386.368164062 608 390.213867188 603 c 256,46,47
 394.059570312 598 394.059570312 598 392.673828125 592 c 2,48,-1
 385.286132812 560 l 2,49,50
 383.669921875 553 383.669921875 553 377.515625 548 c 0,51,52
 371.592773438 544 371.592773438 544 365.592773438 544 c 2,53,-1
 333.592773438 544 l 2,34,35
EndSplineSet
Validated: 1
EndChar

StartChar: uni1E9E
Encoding: 7838 7838 193
Width: 492
Flags: W
LayerCount: 2
Back
Fore
SplineSet
0 0 m 1,0,-1
 103.428710938 448 l 1,1,-1
 182.204101562 512 l 1,2,-1
 438.204101562 512 l 1,3,-1
 487.428710938 448 l 1,4,-1
 480.041015625 416 l 1,5,-1
 319.418945312 344 l 1,6,-1
 313.877929688 320 l 1,7,-1
 449.245117188 144 l 1,8,-1
 430.775390625 64 l 1,9,-1
 352 0 l 1,10,-1
 160 0 l 1,11,-1
 110.775390625 64 l 1,12,-1
 118.163085938 96 l 1,13,-1
 182.163085938 96 l 1,14,-1
 174.775390625 64 l 1,15,-1
 199.387695312 32 l 1,16,-1
 327.387695312 32 l 1,17,-1
 366.775390625 64 l 1,18,-1
 381.55078125 128 l 1,19,-1
 233.877929688 320 l 1,20,-1
 237.571289062 336 l 1,21,-1
 416.041015625 416 l 1,22,-1
 423.428710938 448 l 1,23,-1
 398.81640625 480 l 1,24,-1
 206.81640625 480 l 1,25,-1
 167.428710938 448 l 1,26,-1
 64 0 l 1,27,-1
 0 0 l 1,0,-1
EndSplineSet
Validated: 1
EndChar

StartChar: emdash
Encoding: 8212 8212 194
Width: 396
Flags: W
LayerCount: 2
Back
Fore
SplineSet
59.1025390625 256 m 1,0,-1
 66.490234375 288 l 1,1,-1
 386.490234375 288 l 1,2,-1
 379.102539062 256 l 1,3,-1
 59.1025390625 256 l 1,0,-1
EndSplineSet
Validated: 1
EndChar

StartChar: quoteleft
Encoding: 8216 8216 195
Width: 140
Flags: W
LayerCount: 2
Back
Fore
SplineSet
104.653320312 384 m 2,0,1
 97.6533203125 384 97.6533203125 384 93.5771484375 388 c 0,2,3
 90.7314453125 393 90.7314453125 393 92.34765625 400 c 2,4,-1
 110.81640625 480 l 1,5,-1
 150.204101562 512 l 1,6,-1
 182.204101562 512 l 1,7,-1
 142.81640625 480 l 1,8,-1
 135.428710938 448 l 1,9,-1
 151.428710938 448 l 2,10,11
 157.428710938 448 157.428710938 448 161.274414062 443 c 256,12,13
 165.120117188 438 165.120117188 438 163.735351562 432 c 2,14,-1
 156.34765625 400 l 2,15,16
 154.731445312 393 154.731445312 393 148.577148438 388 c 0,17,18
 142.653320312 384 142.653320312 384 136.653320312 384 c 2,19,-1
 104.653320312 384 l 2,0,1
EndSplineSet
Validated: 1
EndChar

StartChar: quoteright
Encoding: 8217 8217 196
Width: 140
Flags: W
LayerCount: 2
Back
Fore
SplineSet
88.6533203125 384 m 1,0,-1
 128.041015625 416 l 1,1,-1
 135.428710938 448 l 1,2,-1
 119.428710938 448 l 2,3,4
 112.428710938 448 112.428710938 448 108.352539062 452 c 0,5,6
 105.506835938 457 105.506835938 457 107.123046875 464 c 2,7,-1
 114.279296875 495 l 2,8,9
 115.895507812 502 115.895507812 502 121.049804688 507 c 0,10,11
 127.204101562 512 127.204101562 512 134.204101562 512 c 2,12,-1
 166.204101562 512 l 2,13,14
 172.204101562 512 172.204101562 512 176.049804688 507 c 256,15,16
 179.895507812 502 179.895507812 502 178.510742188 496 c 2,17,-1
 160.041015625 416 l 1,18,-1
 120.653320312 384 l 1,19,-1
 88.6533203125 384 l 1,0,-1
EndSplineSet
Validated: 1
EndChar

StartChar: quotesinglbase
Encoding: 8218 8218 197
Width: 140
Flags: W
LayerCount: 2
Back
Fore
SplineSet
-14.775390625 -64 m 1,0,-1
 24.6123046875 -32 l 1,1,-1
 32 0 l 1,2,-1
 16 0 l 2,3,4
 9 0 9 0 4.923828125 4 c 0,5,6
 2.078125 9 2.078125 9 3.6943359375 16 c 2,7,-1
 10.8505859375 47 l 2,8,9
 12.466796875 54 12.466796875 54 17.62109375 59 c 0,10,11
 23.775390625 64 23.775390625 64 30.775390625 64 c 2,12,-1
 62.775390625 64 l 2,13,14
 68.775390625 64 68.775390625 64 72.62109375 59 c 256,15,16
 76.466796875 54 76.466796875 54 75.08203125 48 c 2,17,-1
 56.6123046875 -32 l 1,18,-1
 17.224609375 -64 l 1,19,-1
 -14.775390625 -64 l 1,0,-1
EndSplineSet
Validated: 1
EndChar

StartChar: quotereversed
Encoding: 8219 8219 198
Width: 140
Flags: W
LayerCount: 2
Back
Fore
SplineSet
120.653320312 384 m 1,0,-1
 96.041015625 416 l 1,1,-1
 114.510742188 496 l 2,2,3
 115.895507812 502 115.895507812 502 121.049804688 507 c 0,4,5
 127.204101562 512 127.204101562 512 134.204101562 512 c 2,6,-1
 166.204101562 512 l 2,7,8
 172.204101562 512 172.204101562 512 176.049804688 507 c 256,9,10
 179.895507812 502 179.895507812 502 178.279296875 495 c 2,11,-1
 171.123046875 464 l 2,12,13
 169.506835938 457 169.506835938 457 163.352539062 452 c 0,14,15
 157.428710938 448 157.428710938 448 151.428710938 448 c 2,16,-1
 135.428710938 448 l 1,17,-1
 128.041015625 416 l 1,18,-1
 152.653320312 384 l 1,19,-1
 120.653320312 384 l 1,0,-1
EndSplineSet
Validated: 1
EndChar

StartChar: quotedblleft
Encoding: 8220 8220 199
Width: 236
Flags: W
LayerCount: 2
Back
Fore
SplineSet
104.653320312 384 m 2,0,1
 97.6533203125 384 97.6533203125 384 93.5771484375 388 c 0,2,3
 90.7314453125 393 90.7314453125 393 92.34765625 400 c 2,4,-1
 110.81640625 480 l 1,5,-1
 150.204101562 512 l 1,6,-1
 182.204101562 512 l 1,7,-1
 142.81640625 480 l 1,8,-1
 135.428710938 448 l 1,9,-1
 151.428710938 448 l 2,10,11
 157.428710938 448 157.428710938 448 161.274414062 443 c 256,12,13
 165.120117188 438 165.120117188 438 163.735351562 432 c 2,14,-1
 156.34765625 400 l 2,15,16
 154.731445312 393 154.731445312 393 148.577148438 388 c 0,17,18
 142.653320312 384 142.653320312 384 136.653320312 384 c 2,19,-1
 104.653320312 384 l 2,0,1
200.653320312 384 m 2,20,21
 193.653320312 384 193.653320312 384 189.577148438 388 c 0,22,23
 186.731445312 393 186.731445312 393 188.34765625 400 c 2,24,-1
 206.81640625 480 l 1,25,-1
 246.204101562 512 l 1,26,-1
 278.204101562 512 l 1,27,-1
 238.81640625 480 l 1,28,-1
 231.428710938 448 l 1,29,-1
 247.428710938 448 l 2,30,31
 253.428710938 448 253.428710938 448 257.274414062 443 c 256,32,33
 261.120117188 438 261.120117188 438 259.735351562 432 c 2,34,-1
 252.34765625 400 l 2,35,36
 250.731445312 393 250.731445312 393 244.577148438 388 c 0,37,38
 238.653320312 384 238.653320312 384 232.653320312 384 c 2,39,-1
 200.653320312 384 l 2,20,21
EndSplineSet
Validated: 1
EndChar

StartChar: quotedblright
Encoding: 8221 8221 200
Width: 236
Flags: W
LayerCount: 2
Back
Fore
SplineSet
88.6533203125 384 m 1,0,-1
 128.041015625 416 l 1,1,-1
 135.428710938 448 l 1,2,-1
 119.428710938 448 l 2,3,4
 112.428710938 448 112.428710938 448 108.352539062 452 c 0,5,6
 105.506835938 457 105.506835938 457 107.123046875 464 c 2,7,-1
 114.279296875 495 l 2,8,9
 115.895507812 502 115.895507812 502 121.049804688 507 c 0,10,11
 127.204101562 512 127.204101562 512 134.204101562 512 c 2,12,-1
 166.204101562 512 l 2,13,14
 172.204101562 512 172.204101562 512 176.049804688 507 c 256,15,16
 179.895507812 502 179.895507812 502 178.510742188 496 c 2,17,-1
 160.041015625 416 l 1,18,-1
 120.653320312 384 l 1,19,-1
 88.6533203125 384 l 1,0,-1
184.653320312 384 m 1,20,-1
 224.041015625 416 l 1,21,-1
 231.428710938 448 l 1,22,-1
 215.428710938 448 l 2,23,24
 208.428710938 448 208.428710938 448 204.352539062 452 c 0,25,26
 201.506835938 457 201.506835938 457 203.123046875 464 c 2,27,-1
 210.279296875 495 l 2,28,29
 211.895507812 502 211.895507812 502 217.049804688 507 c 0,30,31
 223.204101562 512 223.204101562 512 230.204101562 512 c 2,32,-1
 262.204101562 512 l 2,33,34
 268.204101562 512 268.204101562 512 272.049804688 507 c 256,35,36
 275.895507812 502 275.895507812 502 274.510742188 496 c 2,37,-1
 256.041015625 416 l 1,38,-1
 216.653320312 384 l 1,39,-1
 184.653320312 384 l 1,20,-1
EndSplineSet
Validated: 1
EndChar

StartChar: quotedblbase
Encoding: 8222 8222 201
Width: 236
Flags: W
LayerCount: 2
Back
Fore
SplineSet
-14.775390625 -64 m 1,0,-1
 24.6123046875 -32 l 1,1,-1
 32 0 l 1,2,-1
 16 0 l 2,3,4
 9 0 9 0 4.923828125 4 c 0,5,6
 2.078125 9 2.078125 9 3.6943359375 16 c 2,7,-1
 10.8505859375 47 l 2,8,9
 12.466796875 54 12.466796875 54 17.62109375 59 c 0,10,11
 23.775390625 64 23.775390625 64 30.775390625 64 c 2,12,-1
 62.775390625 64 l 2,13,14
 68.775390625 64 68.775390625 64 72.62109375 59 c 256,15,16
 76.466796875 54 76.466796875 54 75.08203125 48 c 2,17,-1
 56.6123046875 -32 l 1,18,-1
 17.224609375 -64 l 1,19,-1
 -14.775390625 -64 l 1,0,-1
81.224609375 -64 m 1,20,-1
 120.612304688 -32 l 1,21,-1
 128 0 l 1,22,-1
 112 0 l 2,23,24
 105 0 105 0 100.923828125 4 c 0,25,26
 98.078125 9 98.078125 9 99.6943359375 16 c 2,27,-1
 106.850585938 47 l 2,28,29
 108.466796875 54 108.466796875 54 113.62109375 59 c 0,30,31
 119.775390625 64 119.775390625 64 126.775390625 64 c 2,32,-1
 158.775390625 64 l 2,33,34
 164.775390625 64 164.775390625 64 168.62109375 59 c 256,35,36
 172.466796875 54 172.466796875 54 171.08203125 48 c 2,37,-1
 152.612304688 -32 l 1,38,-1
 113.224609375 -64 l 1,39,-1
 81.224609375 -64 l 1,20,-1
EndSplineSet
Validated: 1
EndChar

StartChar: dagger
Encoding: 8224 8224 202
Width: 332
Flags: W
LayerCount: 2
Back
Fore
SplineSet
96 0 m 1,0,-1
 184.653320312 384 l 1,1,-1
 88.6533203125 384 l 1,2,-1
 96.041015625 416 l 1,3,-1
 192.041015625 416 l 1,4,-1
 214.204101562 512 l 1,5,-1
 278.204101562 512 l 1,6,-1
 256.041015625 416 l 1,7,-1
 352.041015625 416 l 1,8,-1
 344.653320312 384 l 1,9,-1
 248.653320312 384 l 1,10,-1
 160 0 l 1,11,-1
 96 0 l 1,0,-1
EndSplineSet
Validated: 1
EndChar

StartChar: bullet
Encoding: 8226 8226 203
Width: 204
Flags: W
LayerCount: 2
Back
Fore
SplineSet
76.3271484375 192 m 2,0,1
 62.3271484375 192 62.3271484375 192 55.404296875 201 c 256,2,3
 48.482421875 210 48.482421875 210 51.71484375 224 c 2,4,-1
 66.490234375 288 l 2,5,6
 69.4912109375 301 69.4912109375 301 80.5693359375 310 c 0,7,8
 91.8779296875 320 91.8779296875 320 105.877929688 320 c 2,9,-1
 169.877929688 320 l 2,10,11
 182.877929688 320 182.877929688 320 189.569335938 310 c 0,12,13
 197.491210938 301 197.491210938 301 194.490234375 288 c 2,14,-1
 179.71484375 224 l 2,15,16
 176.482421875 210 176.482421875 210 164.404296875 201 c 0,17,18
 153.327148438 192 153.327148438 192 140.327148438 192 c 2,19,-1
 76.3271484375 192 l 2,0,1
EndSplineSet
Validated: 1
EndChar

StartChar: ellipsis
Encoding: 8230 8230 204
Width: 332
Flags: W
CounterMasks: 1 70
LayerCount: 2
Back
Fore
SplineSet
16 0 m 2,0,1
 9 0 9 0 4.923828125 4 c 0,2,3
 2.078125 9 2.078125 9 3.6943359375 16 c 2,4,-1
 10.8505859375 47 l 2,5,6
 12.466796875 54 12.466796875 54 17.62109375 59 c 0,7,8
 23.775390625 64 23.775390625 64 30.775390625 64 c 2,9,-1
 62.775390625 64 l 2,10,11
 68.775390625 64 68.775390625 64 72.62109375 59 c 256,12,13
 76.466796875 54 76.466796875 54 75.08203125 48 c 2,14,-1
 67.6943359375 16 l 2,15,16
 66.078125 9 66.078125 9 59.923828125 4 c 0,17,18
 54 0 54 0 48 0 c 2,19,-1
 16 0 l 2,0,1
112 0 m 2,20,21
 105 0 105 0 100.923828125 4 c 0,22,23
 98.078125 9 98.078125 9 99.6943359375 16 c 2,24,-1
 106.850585938 47 l 2,25,26
 108.466796875 54 108.466796875 54 113.62109375 59 c 0,27,28
 119.775390625 64 119.775390625 64 126.775390625 64 c 2,29,-1
 158.775390625 64 l 2,30,31
 164.775390625 64 164.775390625 64 168.62109375 59 c 256,32,33
 172.466796875 54 172.466796875 54 171.08203125 48 c 2,34,-1
 163.694335938 16 l 2,35,36
 162.078125 9 162.078125 9 155.923828125 4 c 0,37,38
 150 0 150 0 144 0 c 2,39,-1
 112 0 l 2,20,21
208 0 m 2,40,41
 201 0 201 0 196.923828125 4 c 0,42,43
 194.078125 9 194.078125 9 195.694335938 16 c 2,44,-1
 202.850585938 47 l 2,45,46
 204.466796875 54 204.466796875 54 209.62109375 59 c 0,47,48
 215.775390625 64 215.775390625 64 222.775390625 64 c 2,49,-1
 254.775390625 64 l 2,50,51
 260.775390625 64 260.775390625 64 264.62109375 59 c 256,52,53
 268.466796875 54 268.466796875 54 267.08203125 48 c 2,54,-1
 259.694335938 16 l 2,55,56
 258.078125 9 258.078125 9 251.923828125 4 c 0,57,58
 246 0 246 0 240 0 c 2,59,-1
 208 0 l 2,40,41
EndSplineSet
Validated: 1
EndChar

StartChar: guilsinglleft
Encoding: 8249 8249 205
Width: 236
Flags: W
LayerCount: 2
Back
Fore
SplineSet
110.775390625 64 m 1,0,-1
 59.1025390625 256 l 1,1,-1
 176.041015625 416 l 1,2,-1
 240.041015625 416 l 1,3,-1
 99.71484375 224 l 1,4,-1
 142.775390625 64 l 1,5,-1
 110.775390625 64 l 1,0,-1
EndSplineSet
Validated: 1
EndChar

StartChar: guilsinglright
Encoding: 8250 8250 206
Width: 236
Flags: W
LayerCount: 2
Back
Fore
SplineSet
30.775390625 64 m 1,0,-1
 171.102539062 256 l 1,1,-1
 128.041015625 416 l 1,2,-1
 160.041015625 416 l 1,3,-1
 211.71484375 224 l 1,4,-1
 94.775390625 64 l 1,5,-1
 30.775390625 64 l 1,0,-1
EndSplineSet
Validated: 1
EndChar

StartChar: Euro
Encoding: 8364 8364 207
Width: 396
Flags: W
LayerCount: 2
Back
Fore
SplineSet
103.387695312 32 m 1,0,-1
 54.1630859375 96 l 1,1,-1
 76.3271484375 192 l 1,2,-1
 44.3271484375 192 l 1,3,-1
 51.71484375 224 l 1,4,-1
 83.71484375 224 l 1,5,-1
 98.490234375 288 l 1,6,-1
 66.490234375 288 l 1,7,-1
 73.8779296875 320 l 1,8,-1
 105.877929688 320 l 1,9,-1
 128.041015625 416 l 1,10,-1
 206.81640625 480 l 1,11,-1
 366.81640625 480 l 1,12,-1
 416.041015625 416 l 1,13,-1
 352.041015625 416 l 1,14,-1
 327.428710938 448 l 1,15,-1
 231.428710938 448 l 1,16,-1
 192.041015625 416 l 1,17,-1
 169.877929688 320 l 1,18,-1
 265.877929688 320 l 1,19,-1
 258.490234375 288 l 1,20,-1
 162.490234375 288 l 1,21,-1
 147.71484375 224 l 1,22,-1
 243.71484375 224 l 1,23,-1
 236.327148438 192 l 1,24,-1
 140.327148438 192 l 1,25,-1
 118.163085938 96 l 1,26,-1
 142.775390625 64 l 1,27,-1
 238.775390625 64 l 1,28,-1
 278.163085938 96 l 1,29,-1
 342.163085938 96 l 1,30,-1
 263.387695312 32 l 1,31,-1
 103.387695312 32 l 1,0,-1
EndSplineSet
Validated: 1
EndChar

StartChar: trademark
Encoding: 8482 8482 208
Width: 428
Flags: W
CounterMasks: 1 38
LayerCount: 2
Back
Fore
SplineSet
145.265625 352 m 1,0,-1
 174.81640625 480 l 1,1,-1
 110.81640625 480 l 1,2,-1
 118.204101562 512 l 1,3,-1
 278.204101562 512 l 1,4,-1
 270.81640625 480 l 1,5,-1
 206.81640625 480 l 1,6,-1
 177.265625 352 l 1,7,-1
 145.265625 352 l 1,0,-1
273.265625 352 m 1,8,-1
 310.204101562 512 l 1,9,-1
 342.204101562 512 l 1,10,-1
 366.81640625 480 l 1,11,-1
 366.5859375 479 l 1,12,-1
 379.123046875 464 l 1,13,-1
 438.204101562 512 l 1,14,-1
 470.204101562 512 l 1,15,-1
 433.265625 352 l 1,16,-1
 401.265625 352 l 1,17,-1
 423.428710938 448 l 1,18,-1
 364.34765625 400 l 1,19,-1
 327.428710938 448 l 1,20,-1
 305.265625 352 l 1,21,-1
 273.265625 352 l 1,8,-1
EndSplineSet
Validated: 1
EndChar

StartChar: uniFB00
Encoding: 64256 64256 209
Width: 460
Flags: W
LayerCount: 2
Back
Fore
SplineSet
0 0 m 1,0,-1
 103.428710938 448 l 1,1,-1
 182.204101562 512 l 1,2,-1
 310.204101562 512 l 1,3,-1
 302.81640625 480 l 1,4,-1
 206.81640625 480 l 1,5,-1
 167.428710938 448 l 1,6,-1
 130.490234375 288 l 1,7,-1
 258.490234375 288 l 1,8,-1
 295.428710938 448 l 1,9,-1
 374.204101562 512 l 1,10,-1
 502.204101562 512 l 1,11,-1
 494.81640625 480 l 1,12,-1
 398.81640625 480 l 1,13,-1
 359.428710938 448 l 1,14,-1
 322.490234375 288 l 1,15,-1
 450.490234375 288 l 1,16,-1
 443.102539062 256 l 1,17,-1
 315.102539062 256 l 1,18,-1
 256 0 l 1,19,-1
 192 0 l 1,20,-1
 251.102539062 256 l 1,21,-1
 123.102539062 256 l 1,22,-1
 64 0 l 1,23,-1
 0 0 l 1,0,-1
EndSplineSet
Validated: 1
EndChar

StartChar: uniFB01
Encoding: 64257 64257 210
Width: 300
Flags: W
LayerCount: 2
Back
Fore
SplineSet
0 0 m 1,0,-1
 103.428710938 448 l 1,1,-1
 182.204101562 512 l 1,2,-1
 310.204101562 512 l 1,3,-1
 302.81640625 480 l 1,4,-1
 206.81640625 480 l 1,5,-1
 167.428710938 448 l 1,6,-1
 130.490234375 288 l 1,7,-1
 290.490234375 288 l 1,8,-1
 224 0 l 1,9,-1
 160 0 l 1,10,-1
 219.102539062 256 l 1,11,-1
 123.102539062 256 l 1,12,-1
 64 0 l 1,13,-1
 0 0 l 1,0,-1
EndSplineSet
Validated: 1
EndChar

StartChar: uniFB02
Encoding: 64258 64258 211
Width: 396
Flags: W
LayerCount: 2
Back
Fore
SplineSet
0 0 m 1,0,-1
 103.428710938 448 l 1,1,-1
 182.204101562 512 l 1,2,-1
 406.204101562 512 l 1,3,-1
 310.163085938 96 l 1,4,-1
 334.775390625 64 l 1,5,-1
 320 0 l 1,6,-1
 288 0 l 1,7,-1
 238.775390625 64 l 1,8,-1
 334.81640625 480 l 1,9,-1
 206.81640625 480 l 1,10,-1
 167.428710938 448 l 1,11,-1
 130.490234375 288 l 1,12,-1
 258.490234375 288 l 1,13,-1
 251.102539062 256 l 1,14,-1
 123.102539062 256 l 1,15,-1
 64 0 l 1,16,-1
 0 0 l 1,0,-1
EndSplineSet
Validated: 1
EndChar

StartChar: uniFB03
Encoding: 64259 64259 212
Width: 492
Flags: W
LayerCount: 2
Back
Fore
SplineSet
0 0 m 1,0,-1
 103.428710938 448 l 1,1,-1
 182.204101562 512 l 1,2,-1
 310.204101562 512 l 1,3,-1
 302.81640625 480 l 1,4,-1
 206.81640625 480 l 1,5,-1
 167.428710938 448 l 1,6,-1
 130.490234375 288 l 1,7,-1
 258.490234375 288 l 1,8,-1
 295.428710938 448 l 1,9,-1
 374.204101562 512 l 1,10,-1
 502.204101562 512 l 1,11,-1
 494.81640625 480 l 1,12,-1
 398.81640625 480 l 1,13,-1
 359.428710938 448 l 1,14,-1
 322.490234375 288 l 1,15,-1
 482.490234375 288 l 1,16,-1
 416 0 l 1,17,-1
 352 0 l 1,18,-1
 411.102539062 256 l 1,19,-1
 315.102539062 256 l 1,20,-1
 256 0 l 1,21,-1
 192 0 l 1,22,-1
 251.102539062 256 l 1,23,-1
 123.102539062 256 l 1,24,-1
 64 0 l 1,25,-1
 0 0 l 1,0,-1
EndSplineSet
Validated: 1
EndChar

StartChar: uniFB04
Encoding: 64260 64260 213
Width: 588
Flags: W
LayerCount: 2
Back
Fore
SplineSet
0 0 m 1,0,-1
 103.428710938 448 l 1,1,-1
 182.204101562 512 l 1,2,-1
 310.204101562 512 l 1,3,-1
 302.81640625 480 l 1,4,-1
 206.81640625 480 l 1,5,-1
 167.428710938 448 l 1,6,-1
 130.490234375 288 l 1,7,-1
 258.490234375 288 l 1,8,-1
 295.428710938 448 l 1,9,-1
 374.204101562 512 l 1,10,-1
 598.204101562 512 l 1,11,-1
 502.163085938 96 l 1,12,-1
 526.775390625 64 l 1,13,-1
 512 0 l 1,14,-1
 480 0 l 1,15,-1
 430.775390625 64 l 1,16,-1
 526.81640625 480 l 1,17,-1
 398.81640625 480 l 1,18,-1
 359.428710938 448 l 1,19,-1
 322.490234375 288 l 1,20,-1
 450.490234375 288 l 1,21,-1
 443.102539062 256 l 1,22,-1
 315.102539062 256 l 1,23,-1
 256 0 l 1,24,-1
 192 0 l 1,25,-1
 251.102539062 256 l 1,26,-1
 123.102539062 256 l 1,27,-1
 64 0 l 1,28,-1
 0 0 l 1,0,-1
EndSplineSet
Validated: 1
EndChar

StartChar: uniFB06
Encoding: 64262 64262 214
Width: 588
Flags: W
CounterMasks: 1 e0
LayerCount: 2
Back
Fore
SplineSet
64 0 m 1,0,-1
 14.775390625 64 l 1,1,-1
 78.775390625 64 l 1,2,-1
 103.387695312 32 l 1,3,-1
 231.387695312 32 l 1,4,-1
 270.775390625 64 l 1,5,-1
 278.163085938 96 l 1,6,-1
 253.55078125 128 l 1,7,-1
 61.55078125 128 l 1,8,-1
 36.9384765625 160 l 1,9,-1
 51.71484375 224 l 1,10,-1
 130.490234375 288 l 1,11,-1
 418.490234375 288 l 1,12,-1
 433.265625 352 l 1,13,-1
 497.265625 352 l 1,14,-1
 482.490234375 288 l 1,15,-1
 578.490234375 288 l 1,16,-1
 571.102539062 256 l 1,17,-1
 475.102539062 256 l 1,18,-1
 430.775390625 64 l 1,19,-1
 455.387695312 32 l 1,20,-1
 519.387695312 32 l 1,21,-1
 512 0 l 1,22,-1
 416 0 l 1,23,-1
 366.775390625 64 l 1,24,-1
 411.102539062 256 l 1,25,-1
 155.102539062 256 l 1,26,-1
 115.71484375 224 l 1,27,-1
 108.327148438 192 l 1,28,-1
 132.938476562 160 l 1,29,-1
 324.938476562 160 l 1,30,-1
 349.55078125 128 l 1,31,-1
 334.775390625 64 l 1,32,-1
 256 0 l 1,33,-1
 64 0 l 1,0,-1
EndSplineSet
Validated: 1
EndChar
